<?xml version="1.0" encoding="utf-8"?>
<!-- Generator: Adobe Illustrator 16.0.0, SVG Export Plug-In . SVG Version: 6.00 Build 0)  -->
<!DOCTYPE svg PUBLIC "-//W3C//DTD SVG 1.1//EN" "http://www.w3.org/Graphics/SVG/1.1/DTD/svg11.dtd">
<svg version="1.1" id="图层_1" xmlns="http://www.w3.org/2000/svg" xmlns:xlink="http://www.w3.org/1999/xlink" x="0px" y="0px"
	 width="700px" height="700px" viewBox="0 0 700 700" enable-background="new 0 0 700 700" xml:space="preserve">
<path fill="#6FC29F" d="M350,0.237C156.832,0.237,0.237,156.832,0.237,350c0,193.167,156.595,349.762,349.763,349.762
	S699.764,543.168,699.764,350C699.762,156.832,543.167,0.237,350,0.237z M393.796,128.043c0.854,4.602-0.012,9.89-1.436,13.398
	c-3.899,9.602-11.249,14.816-22.968,16.747c-4.424,0.729-8.876-0.848-11.722-2.033c-10.146-4.227-20.118-16.637-15.431-31.939
	c2.437-7.954,7.999-13.896,15.313-16.985c2.413-1.019,5.307-0.845,8.015-1.914C382.133,105.074,391.236,114.242,393.796,128.043z
	 M257.189,204.003c0.941-5.699,0.299-11.027,1.317-16.269c1.337-6.882,2.349-13.585,4.305-19.857
	c10.243-32.824,28.081-56.489,55.265-72.37c5.889-3.441,13.025-5.652,20.456-7.415c2.393-0.359,4.784-0.718,7.177-1.076
	c1.235-0.079,2.472-0.159,3.708-0.24c8.757-0.17,16.161,1.18,22.369,3.589c1.346,0.521,3.118,0.742,4.067,1.675
	c-9.071-0.013-20.164,3.706-26.794,6.58c-15.397,6.673-25.025,17.496-31.223,33.373c-2.555,6.545-3.296,13.916-4.665,21.771
	c-0.158,3.11-0.318,6.221-0.477,9.33v9.211c0.158,3.589,0.318,7.178,0.477,10.766c1.491,8.938,1.619,17.85,3.469,26.318
	c3.165,14.477,5.85,28.574,8.613,43.302c0.923,4.912-0.895,9.43-2.273,12.561c-4.589,10.417-21.04,23.249-37.56,17.463
	c-18.761-6.569-22.292-28.167-26.556-49.284c-0.478-4.146-0.957-8.294-1.435-12.44c-0.08-2.191-0.16-4.385-0.239-6.579v-10.409
	H257.189z M175.131,217.4c2.98-7.596,8.471-13.011,16.149-15.909c2.22-0.838,4.976-0.488,7.415-1.436
	c18.132-0.278,33.621,16.871,26.079,36.005c-3.7,9.386-11.079,14.975-22.37,16.867c-4.233,0.708-8.454-0.559-11.244-1.557
	C180.031,247.395,168.892,233.308,175.131,217.4z M156.591,284.507c-5.919-13.808-10.505-34.838-5.025-52.752
	c1.74-5.686,4.05-10.961,6.937-15.551c1.715-2.312,3.43-4.625,5.145-6.937c-0.239,1.516-0.478,3.031-0.718,4.546
	c-0.803,4.007-1.84,12.846-1.076,17.584c0.318,3.069,0.637,6.142,0.958,9.211c1.567,7.181,3.629,13.479,6.937,18.9
	c13.074,21.429,37.292,29.467,65.073,36.364c8.127,2.02,16.789,2.418,25.359,3.948c11.721,1.076,23.446,2.153,35.168,3.23
	c6.083,1.053,11.182,1.043,15.431,3.588c13.717,8.215,20.023,31.282,8.134,46.173c-12.864,16.117-53.315,11.018-73.684,4.785
	c-3.789-1.155-7.577-2.313-11.365-3.47C198.875,340.523,171.15,318.475,156.591,284.507L156.591,284.507z M241.4,442.287
	c-4.694,0.776-9.234-0.797-12.203-2.035c-10.712-4.467-20.868-18.229-14.712-33.851c2.702-6.861,7.939-12.292,14.712-15.073
	c1.794-0.518,3.589-1.036,5.383-1.556c1.037-0.12,2.074-0.239,3.111-0.357c18.596-0.284,34.238,17.281,26.077,36.604v-0.001
	C259.912,435.149,252.638,440.419,241.4,442.287z M227.292,537.861h-0.003c-10.53,9.835-16.752,27.691-22.487,42.344
	c-2.828,7.226-4.272,16.006-8.613,21.773c-3.499,4.646-13.121,10.247-22.368,7.296c-6.697-2.138-3.286-11.591-1.077-16.029
	c5.003-10.051,10.879-19.308,16.029-29.426c2.099-4.12,5.494-8.928,5.741-14.474h-0.119c-3.783,1.814-7.751,3.121-12.56,3.948
	c-3.543,0.609-7.478-1.681-6.938-4.666c9.795-2.964,20.208-16.321,25.719-24.162c3.721-5.295,6.295-10.241,11.962-13.637
	c4.597-0.094,8.481,1.429,12.083,2.513c1.913,0.317,3.827,0.637,5.741,0.956c1.118,0.398,2.234,0.797,3.35,1.194
	c3.943,0.938,7.456,0.362,8.493,4.068c0.566,2.021-0.391,4.744-1.196,5.98C238.335,529.71,231.123,534.28,227.292,537.861z
	 M276.813,580.805L276.813,580.805c-2.788,7.139-4.22,15.618-8.494,21.293c-3.44,4.566-12.708,9.902-21.891,7.296
	c-7.189-2.042-3.931-11.2-1.554-15.908c2.935-5.814,6.206-11.349,9.451-16.865c1.833-3.511,3.668-7.02,5.502-10.526
	c2.53-4.34,6.383-10.897,6.938-16.749h-0.12c-3.918,1.791-18.743,8.144-19.618-0.597c10.275-4.896,17.733-12.931,24.043-21.77
	c4.186-5.867,7.255-12.57,13.756-16.149c4.604-0.093,8.462,1.443,12.082,2.513c1.913,0.317,3.829,0.638,5.741,0.955
	c1.118,0.398,2.234,0.799,3.35,1.196c3.905,0.926,7.476,0.407,8.495,4.067c0.545,1.968-0.39,4.765-1.196,5.98
	c-2.832,4.269-9.884,8.598-13.756,12.321C288.606,548.376,282.799,565.475,276.813,580.805z M376.563,598.226
	c-0.886,2.466-1.783,4.927-2.646,7.4c-0.166,0.476-0.414,0.618-0.895,0.616c-16.224-0.011-32.446,0-48.669-0.017
	c-2.487-0.003-4.379-1.102-5.501-3.483c-0.772,0.731-1.445,1.417-2.168,2.044c-1.398,1.215-2.988,1.841-4.882,1.801
	c-3.284-0.071-6.571-0.02-9.856-0.02h-0.817c0.071-0.254,0.114-0.45,0.183-0.641c0.901-2.51,1.818-5.015,2.699-7.533
	c0.151-0.429,0.359-0.554,0.786-0.538c0.889,0.03,1.779,0.009,2.669,0.009c2.291-0.001,3.418-0.779,4.23-2.969
	c0.615-1.661,1.199-3.333,1.799-4.999c2.579-7.158,5.159-14.315,7.738-21.475c0.082-0.228,0.146-0.464,0.25-0.802h-6.309
	c0.07-0.286,0.101-0.479,0.165-0.659c0.977-2.727,1.958-5.454,2.933-8.183c0.116-0.324,0.237-0.528,0.656-0.527
	c5.498,0.016,10.997,0.011,16.495,0.015c0.067,0,0.134,0.021,0.294,0.052c-0.418,1.178-0.825,2.337-1.24,3.492
	c-3.565,9.906-7.13,19.813-10.706,29.717c-0.302,0.836,0.028,1.545,0.363,2.235c0.592,1.223,1.604,2.049,2.74,2.727
	c1.174,0.701,2.389,1.076,3.81,1.073c14.99-0.046,29.98-0.028,44.972-0.028h1.104C376.671,597.845,376.629,598.039,376.563,598.226z
	 M327.977,545.221c0.916-2.553,1.798-5.017,2.683-7.478c0.521-1.449,1.034-2.9,1.587-4.337c0.075-0.196,0.351-0.446,0.535-0.446
	c3.947-0.024,7.896-0.015,11.843-0.01c0.042,0,0.084,0.026,0.183,0.059c-0.104,0.322-0.199,0.646-0.313,0.965
	c-1.268,3.528-2.551,7.049-3.794,10.584c-0.188,0.53-0.434,0.681-0.976,0.677C335.846,545.209,331.967,545.221,327.977,545.221z
	 M336.959,583.901c1.281,0.01,2.146-0.49,2.777-1.698c1.69-3.237,3.492-6.415,5.272-9.603c0.107-0.192,0.413-0.388,0.629-0.39
	c3.237-0.023,6.476-0.015,9.713-0.012c0.087,0,0.173,0.037,0.325,0.071c-0.097,0.214-0.17,0.399-0.263,0.574
	c-2.535,4.739-5.065,9.481-7.613,14.211c-1.225,2.276-2.866,4.11-5.412,4.88c-0.669,0.203-1.382,0.355-2.075,0.361
	c-3.898,0.03-7.798,0.009-11.696,0.004c-0.153-0.001-0.306-0.021-0.56-0.042c0.259-0.718,0.497-1.382,0.735-2.044
	c0.691-1.924,1.395-3.842,2.063-5.775c0.143-0.411,0.328-0.561,0.77-0.554C333.402,583.913,335.181,583.887,336.959,583.901z
	 M394.59,548.073c-0.069,0.188-0.49,0.346-0.748,0.348c-4.701,0.021-9.4,0.016-14.102,0.016c-1.528,0-3.057,0.005-4.586-0.004
	c-0.345-0.002-0.592,0.039-0.734,0.439c-1.26,3.55-2.541,7.093-3.813,10.638c-0.028,0.079-0.03,0.17-0.059,0.353h19.767
	c-0.1,0.348-0.151,0.583-0.231,0.806c-0.941,2.617-1.902,5.229-2.815,7.853c-0.182,0.52-0.406,0.707-0.965,0.701
	c-2.966-0.029-5.932-0.004-8.898-0.023c-0.481-0.003-0.722,0.134-0.891,0.614c-1.375,3.877-2.784,7.742-4.174,11.614
	c-0.443,1.234-0.047,1.784,1.268,1.787c2.51,0.005,5.021,0.001,7.528,0.002h0.824c-0.305,0.842-0.574,1.593-0.844,2.346
	c-0.738,2.056-1.487,4.109-2.205,6.172c-0.14,0.399-0.296,0.583-0.755,0.582c-4.701-0.02-9.401,0.015-14.102-0.035
	c-0.936-0.012-1.901-0.222-2.794-0.523c-1.07-0.364-1.565-1.272-1.65-2.404c-0.094-1.247,0.205-2.424,0.622-3.579
	c1.874-5.211,3.75-10.42,5.624-15.632c0.099-0.272,0.177-0.552,0.291-0.916h-31.031c0.07-0.267,0.108-0.457,0.173-0.637
	c0.963-2.686,1.946-5.362,2.882-8.057c0.188-0.537,0.46-0.676,0.993-0.675c6.64,0.018,13.28,0,19.919,0.026
	c0.659,0.003,0.936-0.211,1.152-0.834c1.147-3.298,2.348-6.576,3.527-9.863c0.077-0.209,0.139-0.423,0.229-0.698
	c-0.269-0.021-0.465-0.049-0.662-0.051c-2.031-0.002-4.062,0.011-6.093-0.011c-0.446-0.006-0.704,0.126-0.905,0.543
	c-0.458,0.952-0.979,1.872-1.457,2.816c-1.282,2.538-3.346,4.108-6.114,4.311c-2.945,0.215-5.919,0.048-8.933,0.048
	c0.031-0.143,0.05-0.313,0.106-0.472c0.831-2.315,1.676-4.624,2.49-6.943c0.145-0.413,0.328-0.588,0.774-0.561
	c0.658,0.04,1.322,0.011,1.983,0.009c1.185-0.002,2.027-0.529,2.563-1.617c2.184-4.435,4.393-8.854,6.567-13.293
	c0.237-0.484,0.508-0.647,1.038-0.642c2.897,0.027,5.796,0.013,8.694,0.013h0.803c-1.094,2.172-2.143,4.247-3.256,6.456h2.983
	c0.753,0,1.506-0.021,2.259,0.008c0.439,0.018,0.637-0.148,0.781-0.569c0.612-1.784,1.253-3.557,1.917-5.321
	c0.086-0.229,0.36-0.545,0.549-0.546c3.354-0.034,6.707-0.024,10.18-0.024c-0.769,2.152-1.509,4.234-2.293,6.438h19.878
	C396.725,542.199,395.68,545.145,394.59,548.073z M398.938,363.695c-2.399,11.4-6.91,20.714-11.125,30.263
	c-3.344,7.585-8.216,14.684-12.799,21.173c-18.866,26.724-44.393,46.585-80.742,55.862c-4.313,1.102-8.886,1.353-13.518,2.153
	c-4.568,0.787-11.489,0.897-16.148,0.12c-4.115-0.687-7.782-0.519-11.484-1.436c-10.554-2.612-19.407-6.162-27.035-11.604
	c-2.247-1.604-4.108-3.683-6.219-5.383c-3.199-2.576-8.736-8.723-10.168-12.799c8.097,3.784,15.642,7.808,25.478,10.286
	c17.71,4.468,34.803-1.872,45.217-9.21c3.033-2.138,5.649-4.774,8.494-7.058c4.736-3.803,8.763-8.768,12.44-13.637
	c11.381-15.074,21.107-32.225,29.186-50.598c3.35-7.537,6.699-15.074,10.05-22.61c2.432-5.512,4.762-11.331,9.21-14.832
	c3.141-2.473,7.046-4.36,11.483-5.503c1.875-0.28,3.749-0.558,5.622-0.837C387.225,327.727,403.659,341.274,398.938,363.695z
	 M463.414,387.621v-0.003c-5.814-9.934-12.115-18.379-19.019-27.034c-3.719-4.662-8.606-8.422-12.321-13.037
	c-2.879-3.576-7.312-7.888-10.885-10.767c-5.939-5.381-11.883-10.767-17.823-16.149c-4.328-3.48-9.46-7.793-12.441-12.559
	c-9.862-15.773,1.621-35.832,12.441-42.227c1.955-1.155,4.421-2.026,6.817-2.631c1.315-0.2,2.632-0.399,3.948-0.598
	c18.827-0.374,33.649,14.749,43.183,24.282c19.13,19.133,33.568,41.546,41.386,72.131c1.367,5.338,1.746,10.974,2.752,16.748
	c2.069,11.858,0.196,27.953-2.272,37.678c-7.297,28.743-22.447,51.098-51.675,57.776c2.432-2.391,4.864-4.782,7.298-7.177
	c5.775-7.164,11.349-13.976,15.072-23.326C477.17,422.411,471.132,400.81,463.414,387.621z M404.086,429.485h-0.002
	c2.413-7.885,7.861-13.893,15.073-16.984c2.555-1.099,5.729-0.989,8.371-2.035c19.418-0.288,34.824,17.39,26.318,37.082
	c-3.891,9.007-11.296,13.945-22.488,15.79c-4.622,0.761-9.161-0.892-12.081-2.152C409.479,456.952,399.409,444.75,404.086,429.485z
	 M524.972,529.372v-0.004c-5.585,4.121-14.284,3.11-22.848,4.546c-2.072,0.038-4.147,0.078-6.219,0.119
	c-2.232,0.04-4.468,0.08-6.7,0.119c-3.548,0.08-7.098,0.16-10.646,0.239c-1.836,0.701-3.716,3.646-4.904,5.145
	c-3.655,4.606-7.566,9.172-10.766,14.236h0.357c15.578-5.164,50.932-12.333,43.779,15.788c-0.916,2.833-1.833,5.663-2.75,8.494
	c-1.35,2.657-3.596,5.019-5.384,7.297c-8.731,11.126-21.117,18.333-36.962,22.369c-5.322,1.354-11.045,1.418-16.984,2.393
	c-3.146,0.514-7.211,0.38-10.286-0.12c-10.007-1.628-26.135-1.6-29.07-9.691c-2.489-6.86,8.816-16.044,15.79-14.711
	c18.849,3.599,46.671,7.459,57.776-6.34c2.333-2.902,5.604-6.425,5.981-11.124c-0.199-0.12-0.399-0.239-0.598-0.359
	c-5.046,0.333-10.187,1.741-14.833,2.871c-7.37,1.793-14.565,2.819-22.488,4.067c-6.379,1.003-14.786,0.124-17.463-3.47
	c-2.747-3.688,0.057-9.397,1.675-12.321c3.829-6.922,9.332-12.322,14.713-17.705c1.834-1.753,3.667-3.508,5.504-5.263
	c-5.939-0.182-9.179-4.469-7.298-10.886c1.089-3.716,2.778-6.673,4.904-9.329c1.474-1.396,2.95-2.79,4.425-4.188
	c0.653,1.018-1.246,3.404,0.957,4.786c3.281,2.056,10.552,0.772,14.475,0.119c11.872-1.976,25.618-0.654,37.438-2.632
	c7.469-1.248,21.495,1.1,23.207,5.383C531.287,523.035,526.913,527.939,524.972,529.372z M534.948,272.665
	c-3.9,9.238-11.123,14.502-22.488,16.389c-4.613,0.764-9.15-0.812-12.081-2.035c-10.77-4.491-20.922-18.232-14.713-33.972
	c2.73-6.926,8.086-12.276,14.951-15.072c2.401-0.978,5.331-0.744,8.016-1.794C527.328,235.9,543.128,253.296,534.948,272.665z
	 M550.259,254.841v-0.238c-0.756-1.556-1.516-3.111-2.273-4.665c-1.516-2.671-3.029-5.343-4.545-8.015
	c-7.634-12.134-18.094-22.072-33.136-26.794c-11.711-3.679-28.936-2.564-40.311,0.597c-25.489,7.083-46.302,17.818-66.509,30.144
	c-4.226,2.471-8.454,4.945-12.681,7.415c-6.961,4.127-15.137,9.568-26.434,6.102c-3.686-1.132-7.184-2.874-10.048-4.903
	c-7.854-5.568-17.023-17.805-12.562-32.06c1.176-3.755,3.114-7.193,5.264-10.048c4.821-6.403,11.766-10.977,18.66-15.311
	c14.118-8.878,29.274-15.755,47.49-20.814c6.809-1.891,14.094-2.42,21.651-3.707l-0.002,0.001c3.628-0.199,7.258-0.398,10.886-0.597
	c43.85-0.741,78.94,18.121,95.337,44.856c4.738,7.723,7.401,15.519,9.211,26.555C550.72,246.16,551.411,252.176,550.259,254.841z"/>
</svg>
