<?xml version="1.0" encoding="utf-8"?>
<!-- Generator: Adobe Illustrator 16.0.0, SVG Export Plug-In . SVG Version: 6.00 Build 0)  -->
<!DOCTYPE svg PUBLIC "-//W3C//DTD SVG 1.1//EN" "http://www.w3.org/Graphics/SVG/1.1/DTD/svg11.dtd">
<svg version="1.1" id="图层_1" xmlns="http://www.w3.org/2000/svg" xmlns:xlink="http://www.w3.org/1999/xlink" x="0px" y="0px"
	 width="700px" height="700px" viewBox="0 0 700 700" enable-background="new 0 0 700 700" xml:space="preserve">
<path fill="#73499A" d="M308.679,349.119l3.974,1.387l3.311-43.619c0,0-16.33,11.086-29.13,22.845
	C300.07,338.047,308.679,349.119,308.679,349.119L308.679,349.119z M350,1.009C157.256,1.009,1.008,157.256,1.008,350
	c0,192.739,156.248,348.991,348.992,348.991c192.738,0,348.991-156.252,348.991-348.991C698.986,157.256,542.738,1.009,350,1.009z
	 M598.681,449.493c-28.833,32.475-83.538,61.298-121.125,73.785c-47.879,15.921-84.788,16.203-84.788,16.203l28.467-153.672
	l-13.91-15.229l-17.211,87.916H288.152c0,0-16.213,23.009-62.179,34.437c-30.824,8.521-75.48,13.369-126.514-8.136
	c-10.186-5.613-17.781-12.61-23.419-20.235c-23.312-31.559-12.999-73.901-12.999-73.901s56.059-0.469,80.772,0
	c-5.19,22.464,1.646,37.25,15.892,43.604c25.123,5.814,57.607-5.604,65.547-25.609c22.295-49.841-36.413-74.078-36.413-74.078
	c83.645-32.761,64.219-72.452,54.287-80.295c-44.802-28.842-64.218,24.918-64.218,24.918H95.486
	c7.722-46.608,54.734-94.142,135.063-94.142c80.339-0.92,103.943,42.918,103.943,42.918l12.581-57.457h145.005
	c76.347-0.686,115.395,58.815,115.852,59.521c-16.447,4.558-28.569,20.215-28.569,38.838c0,22.197,17.226,40.192,38.463,40.192
	c7.575,0,14.625-2.303,20.585-6.251C638.696,305.675,647.31,394.334,598.681,449.493L598.681,449.493z M483.516,244.285
	c-43.507,0-78.781,31.706-78.781,77.233s35.274,77.228,78.781,77.228c43.512,0,78.786-31.7,78.786-77.228
	S527.027,244.285,483.516,244.285z"/>
</svg>
