<?xml version="1.0" encoding="utf-8"?>
<!-- Generator: Adobe Illustrator 16.0.0, SVG Export Plug-In . SVG Version: 6.00 Build 0)  -->
<!DOCTYPE svg PUBLIC "-//W3C//DTD SVG 1.1//EN" "http://www.w3.org/Graphics/SVG/1.1/DTD/svg11.dtd">
<svg version="1.1" id="图层_1" xmlns="http://www.w3.org/2000/svg" xmlns:xlink="http://www.w3.org/1999/xlink" x="0px" y="0px"
	 width="710.254px" height="700px" viewBox="0 0 710.254 700" enable-background="new 0 0 710.254 700" xml:space="preserve">
<path fill="#58B431" d="M366.755,548.79l-108.024,99.796c-5.903,5.455-13.907,6.993-21.415,4.109
	c-7.505-2.88-12.424-9.379-13.163-17.383l-14.607-158.437c-1.621-17.586-11.788-33.241-27.194-41.875L43.555,357.215
	c-7.011-3.93-10.947-11.069-10.526-19.096c0.421-8.027,5.081-14.714,12.465-17.89l146.168-62.852
	c16.224-6.976,27.97-21.482,31.422-38.804l31.089-156.042c1.571-7.881,7.143-13.831,14.907-15.911
	c1.856-0.497,3.712-0.741,5.538-0.741c5.812,0,11.296,2.469,15.331,7.068l104.943,119.589
	c11.649,13.277,29.081,19.963,46.615,17.895l158.011-18.653c7.966-0.938,15.36,2.518,19.739,9.261
	c4.378,6.742,4.54,14.891,0.433,21.8L538.38,339.603c-2.521,4.238-4.39,8.751-5.647,13.397c4.043-0.272,8.107-0.461,12.219-0.461
	c7.871,0,15.605,0.563,23.208,1.547l79.893-134.384c10.514-17.682,10.084-39.384-1.121-56.635
	c-11.205-17.254-30.863-26.482-51.282-24.059L437.637,157.66c-6.746,0.797-13.458-1.777-17.943-6.888L314.75,31.181
	c-13.57-15.462-34.344-21.757-54.211-16.436c-19.87,5.325-34.709,21.165-38.728,41.339l-31.089,156.04
	c-1.329,6.669-5.85,12.254-12.096,14.938L32.458,289.914c-18.898,8.126-31.306,25.936-32.383,46.479
	C-1.001,356.935,9.479,375.943,27.422,386l138.798,77.786c5.931,3.325,9.843,9.351,10.468,16.119l14.607,158.437
	c1.888,20.484,14.991,37.787,34.196,45.16c6.32,2.427,12.869,3.61,19.35,3.61c13.212,0,26.145-4.924,36.282-14.288l93.419-86.302
	C370.651,574.452,367.999,561.83,366.755,548.79z"/>
<path fill="#58B431" d="M419.595,341.276l18.308-1.762l6.688-13.721h-33.375l-0.239-24.648h-24.817l8.091-13.377l58.439-5.271
	l2.46-17.246l-88.355,10.909l-4.922,12.673l8.8,0.705l-9.509,23.583l35.902,1.4l-1.758,15.131l-48.927,3.353l-9.157,11.443h41.886
	l-41.886,56.321h23.591l23.23-31.672v31.672h19.361l1.41-50.621l24.459,50.621l62.484-26.402V356.76l-58.783,7.746L419.595,341.276z
	"/>
<path fill="#58B431" d="M426.987,296.227l-1.758,12.311l76.034-4.212l2.459-16.558L426.987,296.227z"/>
<path fill="#58B431" d="M456.206,345.85l41.186-2.115l2.114-21.819l-43.3,2.82V345.85z"/>
<path fill="#58B431" d="M293.223,359.589h13.381l22.882-29.575H228.107l-23.234,31.682h20.063l-33.796,39.074h28.164l30.276-39.074
	l21.471-0.713l-27.812,39.787h74.98l15.845-21.828l-54.918,1.057L293.223,359.589z M238.66,352.539l11.62-15.132h46.12
	l-8.098,15.132H238.66z"/>
<path fill="#58B431" d="M348.848,305.021l-26.055,1.402l1.41-14.426H343.4l10.373-13.729l-44.354,1.419v-11.624l-25.701,8.795
	l-1.402,3.173h-36.254l-7.046,11.614l7.745,2.295l1.402,12.483l-22.521,2.115l-7.75,11.262l125.508-2.458L348.848,305.021z
	 M302.031,307.128H267.53l-7.742-13.55l48.575-1.934L302.031,307.128z"/>
<path fill="#58B431" d="M620.044,502.238l-44.26,34.37l10.294,66.998l51.719-14.704l15.277-52.294L620.044,502.238L620.044,502.238z
	 M458.579,475.631l-20.621,51.524l41.213,25.768l41.243-36.063l-15.46-41.229H458.579L458.579,475.631z M544.866,376.863
	c-85.385,0-154.587,69.217-154.587,154.594c0,85.367,69.202,154.582,154.587,154.582c85.369,0,154.584-69.215,154.584-154.582
	C699.451,446.08,630.235,376.863,544.866,376.863L544.866,376.863z M544.941,654.423l-1.569-26.541l-60.546-14.342l-14.95,13.803
	c-28.028-22.535-45.966-57.108-45.966-95.872c0-65.46,51.148-118.967,115.66-122.742l11.072,24.359l46.508,13.684l16.122-18.801
	c34.018,21.87,56.55,60.053,56.55,103.5C667.822,599.353,612.814,654.383,544.941,654.423L544.941,654.423z"/>
</svg>
