<?xml version="1.0" encoding="utf-8"?>
<!-- Generator: Adobe Illustrator 16.0.0, SVG Export Plug-In . SVG Version: 6.00 Build 0)  -->
<!DOCTYPE svg PUBLIC "-//W3C//DTD SVG 1.1//EN" "http://www.w3.org/Graphics/SVG/1.1/DTD/svg11.dtd">
<svg version="1.1" id="图层_1" xmlns="http://www.w3.org/2000/svg" xmlns:xlink="http://www.w3.org/1999/xlink" x="0px" y="0px"
	 width="700px" height="700px" viewBox="0 0 700 700" enable-background="new 0 0 700 700" xml:space="preserve">
<path fill="#EA5841" d="M655.588,349.344c0-168.479-136.578-305.058-305.057-305.058S45.473,180.865,45.473,349.344
	c0,168.478,136.579,305.057,305.058,305.057C519.01,654.401,655.588,517.823,655.588,349.344L655.588,349.344z M255.741,472.045
	c31.628-9.058,49.362,73.438,30.842,87.539C266.171,563.931,241.074,492.04,255.741,472.045z M516.997,452.472
	c-11.189,22.452-58.813,72.948-138.792,110.672c38.59-40.034,75.873-74.938,93.856-107.696
	c11.188-38.554-20.531-57.101-43.511-52.868v-16.327l36.739-63.955c-27.82,10.281-79.679,34.623-83.459,30.842
	c-0.604-22.188,6.651-37.986,25.401-44.449l117.476-47.625l-63.5,113.392c23.628-7.836,44.874-10.64,57.604,4.536
	C532.986,400.272,530.641,425.142,516.997,452.472L516.997,452.472z M372.811,225.577l-19.442,28.146h-48.02l61.797-88.262h46.672
	C488.902,182.507,460.753,234.855,372.811,225.577L372.811,225.577z M355.791,151.545h46.786l-10.759,11.269l-28.665,0.001
	l-53.666,77.146h-14.911L355.791,151.545L355.791,151.545z M282.591,226.308l61.859-89.453h46.786l-10.758,11.268l-28.666,0.002
	l-54.31,78.182L282.591,226.308L282.591,226.308z M318.739,165.554l-14.848,21.725c-28.908-4.016-44.13,14.184-15.303,22.392
	l-11.328,16.161C199.911,218.39,235.402,157.904,318.739,165.554L318.739,165.554z M332.275,309.011l239.49-117.428L341.395,324.486
	l-6.804,272.003l-7.722-271.254L128.324,204.716L332.275,309.011L332.275,309.011z M187.776,465.657
	c-13.9,0.233-25.484-0.221-32.742-10.846c-6.622-12.888,0.61-49.506,7.49-72.35c-1.52-5.208-13.449-7.249-18.364-7.027
	c-2.116,5.745-0.386,14.433-6.35,17.235c-3.626,0.061-5.443-13.908-8.165-20.863c-18.448-12.021-10.056-30.32,4.31-27.672
	c-1.946-21.947-1.879-55.576,1.098-56.231c27.024,0.755,36.642,19.713,18.915,64.012l11.963,5.377
	c14.324-43.678,29.52-72.139,46.264-73.478c-7.739,26.658-20.261,57.751-20.185,83.226c22.423,8.201,33.079,15.913,26.536,22.911
	c-3.114,7.09-23.427-7.997-29.029-3.85c-8.291,23.804,5.029,80.769-1.743,79.557L187.776,465.657z M241.679,447.553
	c-2.117,27.667-16.027,69.396-30.843,85.271c-6.198-16.481,2.117-66.524,8.618-94.344c-2.881-6.644-13.909-6.047-20.863-9.07
	c-2.572-10.392-6.053-30.002,0.453-33.565c6.576-3.197,25.406,11.931,28.69,9.986c4.414,2.074,4.673-30.865,1.47-30.617
	c-12.086-3.944-23.67-10.844-20.593-28.592c6.206-4.373,19.152,10.732,24.452,7.494c2.355-4.722,5.74-22.021,1.524-24.24
	c-4.73-1.223-16.175-4.85-15.246-11.924c5.283-4.523,31.343-0.14,42.42,11.475c3.238,13.149-0.658,24.914-5.113,34.668
	c14.205,5.143,24.788,10.888,31.75,17.236c2.737,7.337-4.03,29.609-6.044,44.415c-2.113,8.297,13.878,7.316,25.571,16.066
	c4.367,3.699,4.218,12.142,1.344,26.105C285.987,466.467,253.194,441.307,241.679,447.553L241.679,447.553z"/>
<path fill="#EA5841" d="M384.939,208.222c29.994,4.522,50.346-20.391,15.099-21.438L384.939,208.222z"/>
<path fill="#EA5841" d="M253.1,387.621c-2.901,11.225-4.915,22.951-3.543,26.819c1.883,5.171,6.512,6.793,12.388,6.804
	c5.807-2.469,4.985-19.85,4.913-29.035C259.025,383.439,255.268,385.277,253.1,387.621z"/>
</svg>
