<?xml version="1.0" encoding="utf-8"?>
<!-- Generator: Adobe Illustrator 16.0.0, SVG Export Plug-In . SVG Version: 6.00 Build 0)  -->
<!DOCTYPE svg PUBLIC "-//W3C//DTD SVG 1.1//EN" "http://www.w3.org/Graphics/SVG/1.1/DTD/svg11.dtd">
<svg version="1.1" id="图层_1" xmlns="http://www.w3.org/2000/svg" xmlns:xlink="http://www.w3.org/1999/xlink" x="0px" y="0px"
	 width="700px" height="700px" viewBox="0 0 700 700" enable-background="new 0 0 700 700" xml:space="preserve">
<path fill="#5EB7E8" d="M150.502,285.188l-3.88,22.065h-15.829l-1.456,8.271h15.828l-5.336,30.337h-14.509l-1.451,8.277h14.509
	l-4.849,27.576h-17.148l-1.456,8.277h17.143l-4.362,24.82h21.106l22.791-129.625L150.502,285.188L150.502,285.188z M116.899,363.789
	l-8.16,1.377l6.543-37.231h9.236l1.456-8.272h-9.231l6.056-34.476h-19.782l-6.062,34.476h-9.231l-1.46,8.272h9.236l-7.273,41.37
	l-9.475,1.379l-1.456,8.276l9.475-1.384c0,0-2.8,15.927-3.394,19.311c-1.212,6.89-0.458,9.649-10.93,9.649l-1.456,8.277h15.828
	c10.01,0,13.833-3.651,15.375-12.41c0.823-4.699,5.088-28.96,5.088-28.96l8.155-1.377L116.899,363.789L116.899,363.789z
	 M195.286,315.524h15.833l1.451-8.271h-15.823c0.02-0.01,3.875-22.065,3.875-22.065h-21.101l-22.795,129.626h21.106l4.367-24.821
	h17.143l1.456-8.276h-17.148l4.849-27.577h14.509l1.456-8.276h-14.509L195.286,315.524z M312.048,394.125
	c-2.123,12.09-2.226,12.416-11.412,12.411c-2.142,0.02-7.917,0-7.917,0l-1.456,8.276c0,0,16.067,0.005,23.745,0
	c11.529-0.01,15.093-3.35,17.177-15.171c12.99-73.718,20.123-114.455,20.123-114.455h-21.106
	C331.201,285.188,324.161,325.257,312.048,394.125L312.048,394.125z M280.293,319.663c-7.591-0.087-15.448,0-23.74,0
	c2.989-7.824,8.082-23.443,8.082-23.443h29.018l1.451-8.277h-67.267l-1.456,8.277h17.148c0,0-1.661,7.883-5.545,16.544
	c-7.712,17.162-20.712,42.752-20.712,42.752h21.106l14.084-27.582h14.509c0.107-0.146,1.354,1.811-4.816,13.647
	c-6.699,12.854-19.499,34.616-19.499,34.616h-1.324l-3.091-12.41h-19.782l4.275,20.688h13.189
	c-6.539,9.252-17.323,19.598-27.757,30.337h23.741c0,0,32.518-25.614,55.553-83.66C289.973,324.099,288.375,319.663,280.293,319.663
	L280.293,319.663z M350,1.009C157.256,1.009,1.008,157.256,1.008,350c0,192.744,156.248,348.992,348.992,348.992
	c192.738,0,348.991-156.248,348.991-348.992S542.738,1.009,350,1.009L350,1.009z M599.431,170.587
	c16.412,0,29.763,13.389,29.763,29.845c0,16.457-13.351,29.841-29.763,29.841c-16.408,0-29.758-13.384-29.758-29.841
	C569.673,183.976,583.022,170.587,599.431,170.587z M544.433,554.449c-27.528,0-49.929-22.382-49.929-49.896
	c0-27.513,22.4-49.895,49.929-49.895c27.533,0,49.93,22.382,49.93,49.895C594.362,532.067,571.966,554.449,544.433,554.449z
	 M594.698,469.07l-1.179,1.062c-10.446-14.84-27.444-24.715-46.733-25.368c5.144-4.242,9.68-9.155,13.587-14.751
	c8.276-11.977,13.18-24.729,14.587-38.312c1.14-10.893-0.048-20.348-3.49-28.453c-3.413-8.146-8.734-14.914-15.857-20.279
	c-4.431-3.292-10.984-6.413-19.655-9.324c11.641-5.312,20.604-11.875,26.938-19.674c6.271-7.755,9.971-16.695,11.008-26.807
	c1.796-17.201-3.891-31.559-15.688-44.393c-26.296-28.599-95.237-33-125.958-10.906c-14.66,10.536-26.652,23.599-33.736,42.748
	l59.443,15.55c2.93-11.451,6.942-19.319,12.151-23.599c5.19-4.202,11.563-6.086,19.135-5.516c7.352,0.56,12.893,3.111,16.642,7.664
	c3.744,4.562,5.248,10.438,4.508,17.557c-0.778,7.41-4.24,13.667-10.38,18.632c-6.213,5.02-13.477,7.21-21.909,6.578
	c-1.986-0.151-4.698-0.628-8.237-1.442l-8.092,46.098c9.065-1.842,16.135-2.619,21.125-2.25c9.46,0.706,16.617,4.275,21.525,10.614
	c4.854,6.397,6.782,14.991,5.668,25.81c-1.101,10.619-4.908,18.939-11.252,24.87c-6.364,5.954-13.881,8.603-22.479,7.97
	c-8.165-0.624-14.67-3.686-19.407-9.09c-4.795-5.463-7.77-14.835-8.938-28.088l-64.92,3.769
	c2.678,14.913,7.439,27.432,14.221,37.646c6.841,10.181,16.023,18.258,27.641,24.173c19.518,9.848,51.017,14.17,77.335,11.01
	c-10.633,10.809-17.211,25.64-17.211,41.986c0,1.729,0.073,3.442,0.22,5.137c0,0-8.277-0.243-2.551-0.165
	c-59.545-0.808-111.655-32.494-141.136-79.813L58.42,429.77c-8.238,0-13.739-6.699-12.284-14.957l22.791-129.625
	c1.451-8.263,9.304-14.957,17.542-14.957l244.499,0.068c26.515-58.839,85.549-99.781,154.12-99.781
	c27.152,0,52.812,6.423,75.548,17.83l0.721,0.551c-1.126,3.741-1.696,7.627-1.694,11.534c0,21.992,17.839,39.885,39.769,39.885
	c6.507,0.008,12.914-1.595,18.651-4.665l0.861,0.852c22.056,28.638,35.178,64.545,35.178,103.524
	C654.121,391.705,631.063,437.979,594.698,469.07L594.698,469.07z M318.47,297.598h-19.787l-17.698,100.666h19.787L318.47,297.598z"
	/>
</svg>
