<?xml version="1.0" encoding="utf-8"?>
<!-- Generator: Adobe Illustrator 16.0.0, SVG Export Plug-In . SVG Version: 6.00 Build 0)  -->
<!DOCTYPE svg PUBLIC "-//W3C//DTD SVG 1.1//EN" "http://www.w3.org/Graphics/SVG/1.1/DTD/svg11.dtd">
<svg version="1.1" id="图层_1" xmlns="http://www.w3.org/2000/svg" xmlns:xlink="http://www.w3.org/1999/xlink" x="0px" y="0px"
	 width="700px" height="700px" viewBox="0 0 700 700" enable-background="new 0 0 700 700" xml:space="preserve">
<path fill="#D4569B" d="M411.957,313.957c-1.369-0.171-2.737-0.342-4.106-0.514c-3.883,2.701-9.7,9.037-6.159,16.937
	c6.096-2.613,12.92-5.592,11.804-13.858C412.983,315.668,412.47,314.813,411.957,313.957z"/>
<path fill="#D4569B" d="M465.847,448.426c-0.342-2.224-0.685-4.447-1.026-6.673c7.332-5.872,22.597-22.795,26.688-31.307
	c-0.17-0.342-0.342-0.686-0.512-1.026c-8.727,1.518-16.45,2.99-23.097-1.54c-0.513-1.197-1.027-2.396-1.54-3.593
	c-0.043,7.673-3.577,10.976-5.646,16.425c-10.775,2.394-21.557,4.789-32.334,7.184c0.855-3.421,1.711-6.843,2.566-10.264
	c-2.224-0.685-4.448-1.37-6.673-2.054c-2.907,6.672-5.816,13.345-8.724,20.017c16.42-3.251,32.848-6.501,49.271-9.752
	c-7.521,25.979-27.976,29.736-55.431,35.413c-1.538,5.304-3.078,10.607-4.618,15.912c0.17,0,0.341,0,0.512,0
	c0-0.343,0-0.686,0-1.026c21.757-21.369,38.033-18.93,51.838,8.211c2.737-2.737,5.475-5.476,8.211-8.211
	c8.896-8.212,17.794-16.425,26.688-24.638c0-0.512,0-1.026,0-1.539c-0.342-0.341-0.685-0.685-1.026-1.026
	C480.271,449.155,473.733,453.17,465.847,448.426z"/>
<path fill="#D4569B" d="M350.002,20.569C168.062,20.569,20.57,168.061,20.57,350c0,181.939,147.492,329.431,329.432,329.431
	c181.938,0,329.429-147.491,329.429-329.431C679.43,168.061,531.939,20.569,350.002,20.569z M565.928,190.779
	c-3.078,7.527-6.158,15.056-9.238,22.583c-9.037,10.162-50.266,8.457-67.747,11.805c-34.715,6.648-57.063,14.08-62.615,49.784
	c0.855,0,1.71,0,2.565,0c9.237-1.197,18.479-2.395,27.716-3.593c3.25-11.29,6.5-22.583,9.75-33.874
	c13.857-2.737,27.718-5.475,41.572-8.211c-2.907,11.803-5.816,23.61-8.725,35.414c17.62-2.737,35.244-5.475,52.863-8.212
	c0,0.171,0,0.342,0,0.513c-3.078,8.382-6.159,16.767-9.238,25.149c-17.106,2.565-34.218,5.132-51.323,7.698
	c-3.079,11.119-6.159,22.241-9.238,33.36c-8.593,28.249-15.14,54.559-55.943,42.085c-6.159-2.395-12.318-4.79-18.478-7.186
	c-13.967,10.128-31.995,19.782-56.456,16.425c5.475-15.736,10.949-31.48,16.424-47.218c11.615,2.575,13.601,4.883,26.689,2.053
	c-5.998-23.345,19.422-36.247,32.847-21.043c10.004,11.331-2.188,24.417-3.079,32.848c1.71,0.171,3.422,0.342,5.133,0.513
	c11.56-7.294,16.893-30.559,19.502-46.191c-24.632,3.763-49.273,7.527-73.905,11.291c3.592-8.04,7.186-16.083,10.778-24.123
	c12.262-27.975,22.27-56.122,50.297-68.261c40.449-17.518,104.166-14.909,136.521-40.033
	C573.439,178.833,567.778,186.542,565.928,190.779z M146.611,554.154c6.329-21.896,12.661-43.799,18.989-65.695
	c9.022-25.306,22.17-48.894,33.874-71.854c9.751-18.987,19.504-37.981,29.255-56.97c18.507-28.817,42.004-55.437,63.129-82.119
	c14.42-18.215,33.698-33.337,46.705-52.864c-15.089,9.247-23.42,9.944-45.678,13.345c-7.869,0.342-15.74,0.685-23.609,1.026
	c-37.576,8.308-56.294,28.489-65.694,64.668c-17.107,2.737-34.218,5.475-51.324,8.212c0-0.171,0-0.342,0-0.514
	c10.777-34.555,21.557-69.12,32.334-103.674c13.001-1.369,26.006-2.737,39.006-4.106c-0.171,3.25-0.342,6.501-0.513,9.751
	c37.099-15.91,68.644-34.299,112.913-43.626c41.503-8.743,65.285,8.98,86.226-24.635c7.012-0.684,14.028-1.369,21.042-2.053
	c1.027,0,2.054,0,3.079,0c-7.527,15.225-15.056,30.454-22.582,45.679c-21.144,33.705-48.365,63.033-69.288,97.515
	c-6.672,14.028-13.345,28.059-20.017,42.086c-11.351,25.768-23.769,54.103-32.848,82.118c-12.632,38.98-18.1,81.119-24.122,126.257
	C233.867,542.52,190.232,548.337,146.611,554.154z M554.638,326.275c-0.172,3.421-0.343,6.843-0.513,10.265
	c-1.32,5.866-4.424,11.766-7.699,15.91c-3.682,4.658-10.632,8.9-16.937,10.779c-2.962,0.883-6.277,0.274-8.212,2.053
	c-6.842,9.579-13.688,19.162-20.53,28.741c1.829,7.108,16.641,1.83,23.609,3.081c1.026,1.026,2.054,2.052,3.079,3.078
	c-0.047,8.968-20.647,30.803-26.688,35.414c0.685,1.025,1.368,2.052,2.054,3.078c8.85,0.608,17.981-1.621,23.609,2.566
	c0.342,1.711,0.685,3.423,1.026,5.133c-5.127,10.834-12.911,19.387-19.504,28.74c-6.158,10.606-12.317,21.217-18.477,31.822
	c-21.978,3.085-61.36,17.156-77.499,4.618c-9.646-7.493-5.711-13.604-10.265-25.662c-3.422,11.804-6.843,23.61-10.265,35.414
	c-13.514,2.395-27.033,4.79-40.547,7.185c0-0.171,0-0.342,0-0.514c1.882-6.842,3.765-13.686,5.646-20.528
	c-16.555,10.602-29.995,23.46-54.917,26.175c0-0.17,0-0.341,0-0.513c4.96-14.027,9.923-28.059,14.884-42.085
	c9.216,5.452,33.095-12.42,38.492-18.479c-11.975,2.566-23.952,5.135-35.927,7.7c0-0.171,0-0.342,0-0.514
	c2.908-8.381,5.817-16.766,8.726-25.147c16.25-3.764,32.507-7.528,48.757-11.293c0.514-2.223,1.026-4.446,1.54-6.671
	c-8.438,1.871-35.247,18.58-41.573,5.131c-2.631-5.713,2.501-17.826,4.106-24.121c10.092-1.881,20.188-3.764,30.281-5.645
	c-0.216,2.887-2.038,7.234-0.514,8.211c2.144,1.771,6.193,3.919,8.726,3.594c2.737-6.331,5.475-12.662,8.212-18.99
	c0-0.171,0-0.342,0-0.514c-15.909,2.908-31.822,5.817-47.731,8.726c0-0.17,0-0.341,0-0.513c2.908-8.04,5.817-16.082,8.726-24.122
	c43.449-8.039,86.913-16.083,130.362-24.121c-3.528,22.273-27.011,27.676-49.784,30.794c-0.685,1.71-1.369,3.422-2.053,5.133
	c15.991-3.947,30.593-13.661,40.032,3.593c0.707-15.892,28.324-31.896,36.953-43.113c0-0.17,0-0.342,0-0.512
	c-25.343-9.6-22.231-47.626-1.54-60.049c18.607-11.17,46.106,0.16,49.785,17.964c9.409-5.987,18.82-11.977,28.229-17.964
	C571.746,308.824,563.19,317.551,554.638,326.275z"/>
</svg>
