<?xml version="1.0" encoding="utf-8"?>
<!-- Generator: Adobe Illustrator 16.0.0, SVG Export Plug-In . SVG Version: 6.00 Build 0)  -->
<!DOCTYPE svg PUBLIC "-//W3C//DTD SVG 1.1//EN" "http://www.w3.org/Graphics/SVG/1.1/DTD/svg11.dtd">
<svg version="1.1" id="图层_1" xmlns="http://www.w3.org/2000/svg" xmlns:xlink="http://www.w3.org/1999/xlink" x="0px" y="0px"
	 width="700px" height="700px" viewBox="0 0 700 700" enable-background="new 0 0 700 700" xml:space="preserve">
<path fill="#3B59A7" d="M396.949,490.6l-7.959,16.227l27.752,16.639l9.707-16.473L396.949,490.6z"/>
<path fill="#3B59A7" d="M655.588,349.344c0-168.479-136.578-305.058-305.057-305.058S45.473,180.865,45.473,349.344
	c0,168.478,136.579,305.057,305.058,305.057C519.01,654.401,655.588,517.823,655.588,349.344L655.588,349.344z M541.991,503.496
	c-20.381-10.325-42.019-17.511-65.037-21.255l-26.547,31.175c9.945-3.19,36.447-4.604,48.511-1.848
	c12.134,2.775,34.619,17.064,39.334,33.4c3.146,10.896-12.196,27.297-28.859,35.396c-15.991,7.771-33.418,11.689-67.005,7.853
	c-17.14-2.661-24.901-13.949-29.223-23.025c7.889-4.183,14.866-6.546,21.434-8.081c-1.331,8.951,16.924,21.59,27.125,22.496
	c39.521,3.518,56.433-30.063,49.007-43.451c-9.218-16.623-41.642-15.129-46.732-14.029c-5.091,1.103-14.965,7.493-18.643,10.628
	l-22.606-1.898l-3.023,3.171l-5.966-3.926l-0.882-0.075l0.216-0.364l-12.002-7.898l-16.535,31.865l18.419,1.21l-5.332,5.815
	l3.017,5.769c-14.242,8.741-25.845,6.565-34.267-8.783l16.156-42.088l-13.275-7.115c-6.848,29.549-23.233,39.116-43.065,41.457
	c8.942-8.081,17.449-18.503,22.946-45.319l-24.26-1.109l1.252-8.649c13.693,0.302,27.388,2.267,41.085,5.369l4.847-18.598
	l-18.288-2.834c-8.037,4.723-16.847,8.1-27.354,8.506l12.626-27.654l26.037,4.791l-6.112,7.162l14.531,4.254l4.022-14.539
	l27.845,9.543l-5.381,13.644l30.44,15.756l17.291-29.342c33.91-2.57,67.32,8.926,100.547,25.506L541.991,503.496L541.991,503.496z
	 M235.715,423.342c1.672-1.044,3.28-2.097,4.833-3.156l-5.982,2.268l16.671-28.482l-21.107-29.857l30.247,8.613l16.475-26.018
	L259.229,360l-27.411-19.952L316.61,277.6l24.449,20.683l-61.048,46.043l0.996,16.649c0.599-5.664,0.093-9.102,0.093-9.102
	s5.091,15.029,19.239,29.903l14.709,4.804l-6.575,2.784c16.19,13.379,40.828,24.36,77.142,20.682
	C372.708,422.511,298.173,455.337,235.715,423.342L235.715,423.342z M321.061,466.981c-1.953,8.286-7.541,10.974-16.755,8.063
	l-25.547-22.413C294.878,453.379,309.558,457.009,321.061,466.981L321.061,466.981z M338.169,81.212l-4.734,12.413l9.532,10.805
	l-11.826-1.735l-5.672,13.501l-1.446-7.579c0.081,2.302,0.451,3.654,0.451,3.654s-2.72-5.756-8.834-10.929l-5.784-1.092l2.32-1.496
	c-6.801-4.456-16.647-7.464-30.093-3.906c4.181-5.754,30.423-23.227,55.606-13.929c-0.57,0.515-1.116,1.03-1.643,1.543
	L338.169,81.212L338.169,81.212z M404.456,104.009l-9.647,9.329l4.988,13.99l-10.895-6.673l-11.004,9.921l1.636-7.556
	c-0.847,2.139-1.03,3.535-1.03,3.535s-0.344-6.438-4.25-13.804l-5.232-3.487l2.879-0.373c-4.869-7.005-13.309-13.991-27.926-16.516
	c6.418-3.47,39.191-8.181,60.13,11.161c-0.768,0.226-1.511,0.462-2.231,0.707L404.456,104.009L404.456,104.009z M430.96,196.557
	l9.812,32.41l-105.378-1.2l-7.008-31.21H430.96z M469.345,329.208c1.183,12.551-13.528,67.813-58.588,87.963
	c0.161-1.376,0.288-2.72,0.389-4.035l-1.382,4.272l-8.34-21.654l-25.704-1.565l18.036-12.781l-8.267-23.928l-4.795,3.473
	l-33.453-99.724l27.243-16.849l33.666,96.687l-22.512,16.304l10.721,7.566c-2.852-2.816-4.964-4.05-4.964-4.05
	s10.505,3.818,24.907,2.606l9.11-5.943l-1.358,4.825C438.533,359.388,455.404,350.719,469.345,329.208L469.345,329.208z
	 M305.095,124.783l33.884,1.731l-36.726,98.571l-31.804-3.961L305.095,124.783L305.095,124.783z M291.447,261.745l-12.753,29.343
	l-82.903-60.276l11.194-31.96L291.447,261.745L291.447,261.745z M484.354,329.874c-0.585-1.071-1.176-2.104-1.772-3.102l1.178,3.776
	l-17.015-11.363l-19.297,11.89l6.483-18.333l-18.331-13.191l11.837,0.019c-3.488-0.585-5.638-0.402-5.638-0.402
	s9.503-2.57,19.252-10.736l3.534-8.891l1.476,4.161c8.901-9.481,16.637-24.264,15.734-46.804
	C489.028,245.331,506.54,292.554,484.354,329.874L484.354,329.874z M487.695,229.666c-0.764-0.561-1.521-1.092-2.27-1.597
	l2.073,2.266l-15.709-2.395l-9.639,14.699l-1.495-15.017l-17.238-3.247l8.321-3.875c-2.641,0.735-4.089,1.569-4.089,1.569
	s5.83-4.93,9.988-13.873l-0.451-7.412l2.412,2.44c3.128-9.59,3.687-22.522-4.389-38.071c7.869,3.551,35.763,30.989,32.484,64.512
	V229.666z M462.956,155.188c-0.867-0.018-1.712-0.016-2.539,0l2.748,0.603l-13.029,6.485l0.562,16.085l-9.064-10.455l-14.627,6.653
	l4.172-7.275c-1.579,1.934-2.227,3.317-2.227,3.317s1.758-6.763,0.138-15.652l-4.26-5.311l3.097,0.557
	c-2.732-8.829-9.159-18.806-23.433-26.192c7.77-1.486,43.177,4.355,58.463,31.182V155.188z M275.289,91.444
	c-0.284,0.557-0.547,1.105-0.797,1.649l1.246-1.565l0.021,10.797l10.384,5.438l-9.483,2.113l-0.374,11.895l-3.305-5.334
	c0.731,1.723,1.406,2.643,1.406,2.643s-3.74-3.581-9.889-5.736l-4.708,0.848l1.325-1.809c-6.461-1.41-14.812-0.839-23.984,5.762
	C238.629,112.564,253.462,91.689,275.289,91.444L275.289,91.444z M228.15,116.165c-0.094,0.509-0.175,1.008-0.245,1.499l0.621-1.538
	l2.564,8.583l9.543,1.886l-7.045,3.909l2.509,9.55l-3.886-3.465c0.988,1.198,1.741,1.771,1.741,1.771s-3.82-1.97-9.22-2.24
	l-3.546,1.782l0.628-1.751c-5.472,0.396-11.981,2.814-17.719,10.218C203.969,141.578,210.844,121.487,228.15,116.165L228.15,116.165
	z M196.735,149.055c0.139,0.415,0.282,0.815,0.43,1.205l-0.169-1.386l5.39,5.288l7.805-2.483l-3.601,5.743l5.744,6.022l-4.281-0.978
	c1.217,0.483,2.008,0.6,2.008,0.6s-3.622,0.102-7.714,2.096l-1.885,2.749l-0.251-1.542c-3.874,2.513-7.686,6.936-8.898,14.726
	c-2.046-3.482-5.169-21.086,5.42-32.037L196.735,149.055z M182.957,184.834c0.315,0.226,0.628,0.438,0.938,0.642l-0.845-0.907
	l6.635,0.993l4.309-5.845l0.415,5.998l7.271,1.338l-3.584,1.524c1.126-0.287,1.754-0.614,1.754-0.614s-2.549,1.958-4.446,5.52
	l0.082,2.955l-0.986-0.979c-1.469,3.821-1.897,8.98,1.302,15.207C192.512,209.228,181.072,198.208,182.957,184.834L182.957,184.834z
	 M202.479,576.375l-15.701-1.571c-9.561-27.235-19.123-55.491-28.682-73.416l-18.324,9.105l-5.306-7.994
	c17.137-9.736,36.634-16.162,61.326-15.308C209.719,513.151,210.571,543.324,202.479,576.375L202.479,576.375z M229.886,490.862
	l-16.853-1.241c19.604-2.134,31.478-14.028,53.793-3.446c-2.777,31.575-3.963,54.767-20.465,87.084
	c-8.877-5.533-15.704-4.25-21.6,0.132C223.54,565.17,205.025,524.372,229.886,490.862L229.886,490.862z M298.078,549.485
	l-2.805-52.798l-19.508,0.202l-1.285-5.592l21.434-2.52l5.4-6.581l17.505,5.178l-4.124,4.729l-1.204,57.649
	c21.825,13.596,47.741,21.478,71.608,32.217l-8.867,10.273c-30.423-11.831-53.695-24.425-64.221-38.381l-42.853,26.346
	l-10.013-4.322c-11.423,5.55-22.848,9.888-34.274,13.018C247.293,570.631,273.163,561.532,298.078,549.485L298.078,549.485z"/>
</svg>
