<?xml version="1.0" encoding="utf-8"?>
<!-- Generator: Adobe Illustrator 16.0.0, SVG Export Plug-In . SVG Version: 6.00 Build 0)  -->
<!DOCTYPE svg PUBLIC "-//W3C//DTD SVG 1.1//EN" "http://www.w3.org/Graphics/SVG/1.1/DTD/svg11.dtd">
<svg version="1.1" id="图层_1" xmlns="http://www.w3.org/2000/svg" xmlns:xlink="http://www.w3.org/1999/xlink" x="0px" y="0px"
	 width="700px" height="700px" viewBox="0 0 700 700" enable-background="new 0 0 700 700" xml:space="preserve">
<path fill="#EE7B3A" d="M306.026,412.399l3.507,1.206l2.919-37.861c0,0-14.408,9.619-25.697,19.828
	C298.434,402.79,306.026,412.399,306.026,412.399z M391.493,188.075c4.574-8.836,0.102-14.51-7.884-15.781
	c-1.939,6.776-3.877,13.546-5.81,20.318c3.019,0.086,6.012,0.192,8.965,0.33C388.605,191.896,390.221,190.274,391.493,188.075z
	 M350,0.237C156.831,0.237,0.237,156.83,0.237,350c0,193.167,156.595,349.762,349.763,349.762
	c193.167,0,349.764-156.595,349.764-349.762C699.761,156.83,543.167,0.237,350,0.237z M281.862,175.494
	c6.978-19.286,25.52-24.232,48.118-24.326c-2.497,8.336-5.006,16.677-7.512,25.014c-14.786-2.696-19.669,12.869-9.176,18.777
	c2.518-0.227,5.072-0.437,7.648-0.639l22.958-70.513l28.226-1.454l-3.848,10.093l-16.683,1.642l-20.505,59.515
	c1.069-0.068,2.135-0.136,3.213-0.2l19.455-56.955l27.985-1.334l-3.916,10.919l-17.221,0.825l-15.463,45.994
	c1.032-0.045,2.058-0.094,3.101-0.134l14.398-43.315l31.242-1.282c20.787,4.004,31.876,28.987,23.15,47.21
	c103.626,11.583,158.257,53.626,158.257,53.626S501.667,220.6,367.918,216.27l-10.995,28.236l-26.037,0.428l9.695-29.165
	c-1.051-0.001-2.099,0-3.144,0.005l-4.517,13.436l-11.018,0.493l4.715-13.802c-1.079,0.021-2.159,0.043-3.232,0.068l-0.085,0.246
	l-9.679,0.585l0.173-0.53c-1.29,0.049-2.572,0.104-3.853,0.161l-0.006,0.018c-0.021-0.004-0.042-0.011-0.063-0.015
	c-106.015,4.68-177.311,32.524-177.311,32.524s44.505-35.781,150.656-50.562C279.428,191.776,278.417,183.894,281.862,175.494z
	 M561.852,499.529c-25.429,28.191-73.689,53.209-106.846,64.051c-42.24,13.818-74.8,14.063-74.8,14.063l25.111-133.393
	l-12.269-13.219l-15.185,76.313H287.92c0,0-14.306,19.975-54.852,29.89c-27.194,7.397-66.586,11.605-111.608-7.061
	c-8.982-4.874-15.686-10.945-20.658-17.563c-20.56-27.396-11.467-64.151-11.467-64.151s49.453-0.404,71.255,0
	c-4.579,19.503,1.454,32.336,14.019,37.85c22.159,5.047,50.818-4.864,57.822-22.23c19.667-43.266-32.124-64.3-32.124-64.3
	c73.791-28.439,56.655-62.893,47.895-69.703c-39.523-25.035-56.655,21.632-56.655,21.632h-73.592
	c6.815-40.46,48.284-81.722,119.151-81.722c70.871-0.799,91.695,37.256,91.695,37.256l11.099-49.875h127.915
	c67.351-0.595,101.796,51.053,102.201,51.665c-14.507,3.958-25.204,17.549-25.204,33.715c0,19.265,15.194,34.886,33.929,34.886
	c6.683,0,12.908-1.996,18.159-5.426C597.154,374.691,604.752,451.648,561.852,499.529z M460.263,316.892
	c-38.383,0-69.498,32.03-69.498,71.55c0,39.521,31.114,71.551,69.498,71.551c38.383,0,69.499-32.03,69.499-71.551
	C529.762,348.921,498.646,316.892,460.263,316.892z"/>
</svg>
