<svg xmlns="http://www.w3.org/2000/svg" xmlns:xlink="http://www.w3.org/1999/xlink" preserveAspectRatio="xMidYMid" width="201" height="201" viewBox="0 0 201 201">
  <defs>
    <style>
      .cls-1 {
        fill: #ffcc00;
        fill-rule: evenodd;
      }
    </style>
  </defs>
  <path d="M100.500,201.000 C45.085,201.000 0.000,155.915 0.000,100.500 C0.000,45.085 45.085,0.000 100.500,0.000 C155.916,0.000 201.000,45.085 201.000,100.500 C201.000,155.915 155.915,201.000 100.500,201.000 ZM100.500,13.227 C52.377,13.227 13.227,52.377 13.227,100.500 C13.227,148.623 52.377,187.774 100.500,187.774 C148.623,187.774 187.773,148.623 187.773,100.500 C187.773,52.377 148.623,13.227 100.500,13.227 ZM132.780,126.147 C132.780,141.676 121.750,154.675 107.113,157.727 L107.113,168.211 C107.113,171.864 104.152,174.825 100.500,174.825 C96.848,174.825 93.887,171.864 93.887,168.211 L93.887,157.707 C85.635,155.981 78.314,151.083 73.563,143.869 C71.554,140.818 72.398,136.717 75.449,134.709 C78.499,132.699 82.600,133.545 84.609,136.595 C86.879,140.044 90.145,142.593 93.887,143.983 L93.887,106.435 C79.251,103.383 68.220,90.383 68.220,74.854 C68.220,59.325 79.250,46.326 93.887,43.274 L93.887,32.789 C93.887,29.136 96.848,26.175 100.500,26.175 C104.152,26.175 107.113,29.136 107.113,32.789 L107.113,43.294 C115.365,45.020 122.686,49.918 127.437,57.132 C129.446,60.183 128.602,64.284 125.551,66.292 C122.501,68.301 118.400,67.456 116.391,64.406 C114.120,60.957 110.855,58.407 107.113,57.018 L107.113,94.566 C121.750,97.618 132.780,110.618 132.780,126.147 ZM107.113,143.978 C114.364,141.288 119.554,134.321 119.554,126.146 C119.554,117.971 114.363,111.005 107.113,108.315 L107.113,143.978 ZM93.887,57.022 C86.637,59.712 81.446,66.679 81.446,74.854 C81.446,83.029 86.637,89.995 93.887,92.685 L93.887,57.022 Z" class="cls-1"/>
</svg>
