<svg xmlns="http://www.w3.org/2000/svg" xmlns:xlink="http://www.w3.org/1999/xlink" preserveAspectRatio="xMidYMid" width="24" height="16.969" viewBox="0 0 24 16.969">
  <defs>
    <style>
      .cls-1 {
        fill: #ffb956;
        fill-rule: evenodd;
      }
    </style>
  </defs>
  <path d="M23.508,8.958 L17.013,8.958 C16.742,8.958 16.522,8.744 16.522,8.481 C16.522,8.219 16.742,8.005 17.013,8.005 L23.508,8.005 C23.780,8.005 24.000,8.219 24.000,8.481 C24.000,8.744 23.780,8.958 23.508,8.958 ZM16.396,6.553 C16.299,6.646 16.173,6.692 16.047,6.692 C15.921,6.692 15.795,6.646 15.700,6.553 C15.508,6.366 15.508,6.065 15.700,5.878 L20.292,1.425 C20.483,1.239 20.796,1.239 20.988,1.425 C21.179,1.611 21.179,1.914 20.988,2.100 L16.396,6.553 ZM13.709,16.969 C13.647,16.969 13.585,16.958 13.527,16.935 L5.353,13.763 L0.492,13.763 C0.220,13.763 -0.000,13.550 -0.000,13.286 L-0.000,3.677 C-0.000,3.414 0.220,3.199 0.492,3.199 L5.353,3.199 L13.527,0.028 C13.678,-0.031 13.850,-0.013 13.985,0.077 C14.120,0.167 14.201,0.313 14.201,0.471 L14.201,16.491 C14.201,16.650 14.120,16.796 13.985,16.887 C13.902,16.939 13.806,16.969 13.709,16.969 ZM4.958,4.154 L0.985,4.154 L0.985,12.809 L4.958,12.809 L4.958,4.154 ZM13.217,1.176 L5.940,3.998 L5.940,12.966 L13.217,15.787 L13.217,1.176 ZM16.396,10.410 L20.988,14.865 C21.179,15.051 21.179,15.353 20.988,15.539 C20.891,15.632 20.765,15.679 20.639,15.679 C20.514,15.679 20.388,15.632 20.292,15.539 L15.700,11.086 C15.508,10.900 15.508,10.598 15.700,10.410 C15.892,10.225 16.203,10.225 16.396,10.410 Z" class="cls-1"/>
</svg>
