<svg xmlns="http://www.w3.org/2000/svg" xmlns:xlink="http://www.w3.org/1999/xlink" preserveAspectRatio="xMidYMid" width="220" height="220" viewBox="0 0 220 220">
  <defs>
    <style>
      .cls-1 {
        fill: #87d67b;
        fill-rule: evenodd;
      }
    </style>
  </defs>
  <path d="M179.197,170.704 C183.660,186.559 186.154,203.358 186.154,219.621 C153.915,219.621 110.313,220.000 110.313,220.000 C110.313,220.000 72.525,219.621 34.473,219.621 C34.473,203.359 36.967,186.562 41.429,170.708 C29.916,170.633 14.990,170.562 -0.000,170.562 C-0.000,121.269 4.741,73.516 48.829,73.516 C68.266,73.516 86.078,83.113 99.922,97.612 C103.202,97.152 106.531,96.912 109.900,96.912 C113.026,96.912 116.115,97.126 119.165,97.523 C132.997,83.074 150.775,73.516 170.171,73.516 C214.259,73.516 220.000,121.269 220.000,170.562 C205.283,170.562 190.621,170.631 179.197,170.704 ZM48.829,82.652 C16.143,82.652 8.980,124.812 8.980,161.430 C20.537,161.430 33.817,161.487 44.263,161.544 C54.508,131.219 67.943,111.463 87.493,100.470 C75.832,89.801 62.088,82.652 48.829,82.652 ZM47.370,208.494 C75.581,208.494 110.313,208.776 110.313,208.776 C110.313,208.776 149.356,208.494 173.257,208.494 C173.257,163.879 149.564,108.043 109.900,108.043 C70.237,108.043 47.370,163.879 47.370,208.494 ZM170.171,82.652 C156.993,82.652 143.336,89.717 131.720,100.278 C156.028,114.620 166.041,130.993 176.363,161.541 C186.709,161.485 199.695,161.430 211.020,161.430 C211.020,124.812 202.857,82.652 170.171,82.652 ZM170.171,71.065 C162.747,71.065 155.854,68.808 150.142,64.950 C143.755,80.903 128.151,92.179 109.900,92.179 C91.483,92.179 75.760,80.696 69.485,64.511 C63.653,68.634 56.528,71.065 48.829,71.065 C29.105,71.065 13.116,55.157 13.116,35.533 C13.116,15.909 29.105,-0.000 48.829,-0.000 C62.055,-0.000 73.596,7.157 79.768,17.788 C87.567,10.245 98.187,5.595 109.900,5.595 C121.357,5.595 131.767,10.044 139.516,17.296 C145.755,6.936 157.148,-0.000 170.171,-0.000 C189.895,-0.000 205.884,15.909 205.884,35.533 C205.884,55.157 189.895,71.065 170.171,71.065 ZM48.829,9.285 C34.259,9.285 22.448,21.036 22.448,35.533 C22.448,50.029 34.259,61.780 48.829,61.780 C55.851,61.780 62.224,59.041 66.950,54.589 C66.704,52.722 66.564,50.821 66.564,48.887 C66.564,40.362 69.041,32.419 73.300,25.719 C69.394,16.085 59.911,9.285 48.829,9.285 ZM109.900,16.907 C92.220,16.907 77.888,31.225 77.888,48.887 C77.888,66.549 92.220,80.867 109.900,80.867 C127.580,80.867 141.912,66.549 141.912,48.887 C141.912,31.225 127.580,16.907 109.900,16.907 ZM170.171,9.285 C159.378,9.285 150.107,15.737 146.021,24.972 C150.577,31.825 153.236,40.044 153.236,48.887 C153.236,51.049 153.073,53.171 152.767,55.248 C157.411,59.312 163.500,61.780 170.171,61.780 C184.741,61.780 196.552,50.029 196.552,35.533 C196.552,21.036 184.741,9.285 170.171,9.285 Z" class="cls-1"/>
</svg>
