<svg xmlns="http://www.w3.org/2000/svg" xmlns:xlink="http://www.w3.org/1999/xlink" preserveAspectRatio="xMidYMid" width="26.875" height="28" viewBox="0 0 26.875 28">
  <defs>
    <style>
      .cls-1 {
        fill: #000;
        filter: url(#color-overlay-1);
        fill-rule: evenodd;
      }
    </style>

    <filter id="color-overlay-1" filterUnits="userSpaceOnUse">
      <feFlood flood-color="#fff"/>
      <feComposite operator="in" in2="SourceGraphic"/>
      <feBlend in2="SourceGraphic" result="solidFill"/>
    </filter>
  </defs>
  <path d="M26.693,13.819 C26.449,14.062 26.054,14.062 25.810,13.819 L20.089,8.131 C20.048,8.099 20.013,8.064 19.980,8.023 L17.530,5.586 C17.488,5.554 17.453,5.518 17.421,5.477 L13.437,1.517 L1.065,13.819 C0.821,14.062 0.426,14.062 0.182,13.819 C-0.063,13.576 -0.063,13.183 0.182,12.940 L12.919,0.274 C12.940,0.244 12.953,0.210 12.980,0.183 C13.106,0.058 13.272,-0.000 13.437,0.004 C13.603,-0.000 13.769,0.058 13.895,0.183 C13.922,0.210 13.935,0.244 13.956,0.274 L17.277,3.577 L17.277,1.911 C17.277,1.911 17.277,1.910 17.277,1.910 C17.277,1.559 17.564,1.274 17.917,1.274 L20.477,1.274 C20.653,1.274 20.813,1.345 20.929,1.461 C21.045,1.576 21.117,1.735 21.117,1.910 L21.117,7.395 L26.693,12.940 C26.937,13.183 26.937,13.576 26.693,13.819 ZM19.837,2.547 L18.557,2.547 L18.557,4.850 L19.837,6.122 L19.837,2.547 ZM4.478,12.728 C4.832,12.728 5.118,13.013 5.118,13.364 L5.118,25.455 C5.118,26.158 5.691,26.727 6.398,26.727 L10.238,26.727 C10.238,26.727 10.238,26.727 10.238,26.727 L10.238,18.455 C10.238,18.104 10.524,17.819 10.878,17.819 L15.997,17.819 C16.351,17.819 16.637,18.104 16.637,18.455 L16.637,26.727 C16.637,26.727 16.637,26.727 16.637,26.727 L20.477,26.727 C21.184,26.727 21.757,26.158 21.757,25.455 L21.757,13.364 C21.757,13.013 22.043,12.728 22.397,12.728 C22.750,12.728 23.036,13.013 23.036,13.364 L23.037,25.455 C23.037,26.860 21.891,28.000 20.477,28.000 L6.398,28.000 C4.985,28.000 3.838,26.860 3.838,25.455 L3.838,13.364 C3.838,13.013 4.125,12.728 4.478,12.728 ZM15.357,26.727 L15.357,19.091 L11.518,19.091 L11.518,26.727 C11.518,26.727 11.518,26.727 11.518,26.727 L15.357,26.727 C15.357,26.727 15.357,26.727 15.357,26.727 Z" class="cls-1"/>
</svg>
