<svg xmlns="http://www.w3.org/2000/svg" xmlns:xlink="http://www.w3.org/1999/xlink" preserveAspectRatio="xMidYMid" width="122.031" height="122.094" viewBox="0 0 122.031 122.094">
  <defs>
    <style>
      .cls-1 {
        fill: #aeaeae;
        fill-rule: evenodd;
      }
    </style>
  </defs>
  <path d="M119.946,76.863 C111.246,109.369 77.727,128.722 45.226,120.003 C29.748,115.851 16.722,105.972 8.548,92.185 C0.390,78.426 -2.044,62.295 1.694,46.762 L1.803,46.296 C1.885,45.943 1.967,45.591 2.062,45.238 C6.412,28.985 16.967,16.020 30.497,8.209 C44.027,0.397 60.532,-2.261 76.782,2.098 C77.135,2.193 78.562,3.250 78.000,5.031 C77.437,6.812 75.656,6.942 75.497,6.899 C45.642,-1.110 14.851,16.667 6.859,46.527 C6.780,46.826 6.711,47.125 6.641,47.423 C6.602,47.592 6.563,47.761 6.522,47.930 C3.089,62.197 5.325,77.015 12.819,89.654 C20.327,102.316 32.292,111.390 46.511,115.205 C76.366,123.214 107.157,105.437 115.148,75.577 C117.952,65.100 117.676,54.133 114.350,43.863 C111.108,33.855 105.157,24.986 97.139,18.212 C96.090,17.327 95.958,15.759 96.842,14.711 C97.727,13.664 99.294,13.532 100.342,14.417 C109.069,21.789 115.547,31.443 119.074,42.334 C122.697,53.518 122.998,65.458 119.946,76.863 ZM83.546,69.751 C74.715,77.388 52.000,97.031 52.000,97.031 C52.000,97.031 49.800,99.031 48.000,97.031 C46.200,95.031 49.000,92.031 49.000,92.031 L78.557,66.939 L51.551,40.504 C51.551,40.504 47.771,37.333 49.937,34.999 C52.104,32.666 56.000,37.031 56.000,37.031 C56.000,37.031 74.927,55.887 83.451,63.567 C85.631,65.531 86.000,64.765 86.000,66.765 C86.000,68.765 85.677,67.908 83.546,69.751 Z" class="cls-1"/>
</svg>
