<svg xmlns="http://www.w3.org/2000/svg" xmlns:xlink="http://www.w3.org/1999/xlink" preserveAspectRatio="xMidYMid" width="27" height="37" viewBox="0 0 27 37">
  <defs>
    <style>
      .cls-1 {
        fill: #fff;
        fill-rule: evenodd;
      }
    </style>
  </defs>
  <path d="M23.824,37.000 L3.176,37.000 C1.422,37.000 -0.000,35.559 -0.000,33.782 L-0.000,5.630 C-0.000,3.853 1.422,2.413 3.176,2.413 L5.558,2.413 C5.558,2.413 5.559,2.413 5.559,2.413 C5.997,2.413 6.353,2.773 6.353,3.217 C6.353,3.662 5.997,4.022 5.559,4.022 L5.559,4.022 L3.176,4.022 C2.299,4.022 1.588,4.742 1.588,5.630 L1.588,33.782 C1.588,34.671 2.299,35.391 3.176,35.391 L23.824,35.391 C24.701,35.391 25.412,34.671 25.412,33.782 L25.412,5.630 C25.412,4.742 24.701,4.022 23.824,4.022 L21.441,4.022 L21.441,4.022 C21.003,4.022 20.647,3.662 20.647,3.217 C20.647,2.773 21.003,2.413 21.441,2.413 C21.441,2.413 21.441,2.413 21.442,2.413 L23.824,2.413 C25.578,2.413 27.000,3.853 27.000,5.630 L27.000,33.782 C27.000,35.559 25.578,37.000 23.824,37.000 ZM8.943,22.042 C9.914,22.958 11.713,25.035 11.713,25.035 C11.713,25.035 19.357,18.298 20.814,17.000 C23.000,18.069 21.572,19.292 21.572,19.292 L11.985,28.000 L7.000,22.958 C7.000,22.958 7.324,20.896 8.943,22.042 ZM22.235,6.435 C22.235,6.879 21.880,7.239 21.441,7.239 L5.559,7.239 C5.120,7.239 4.765,6.879 4.765,6.435 C4.765,5.991 5.120,5.630 5.559,5.630 C5.559,5.630 6.452,5.530 7.147,4.826 L8.735,3.217 C8.735,3.217 9.356,2.413 10.323,2.413 L11.118,2.413 C11.118,1.080 12.184,-0.000 13.500,-0.000 C14.816,-0.000 15.882,1.080 15.882,2.413 L16.676,2.413 C17.719,2.413 18.265,3.217 18.265,3.217 L19.853,4.826 C20.548,5.530 21.441,5.630 21.441,5.630 C21.880,5.630 22.235,5.991 22.235,6.435 ZM13.500,1.609 C13.061,1.609 12.706,1.969 12.706,2.413 L14.294,2.413 C14.294,1.969 13.939,1.609 13.500,1.609 ZM17.759,4.826 C17.759,4.826 17.220,4.022 16.315,4.022 L10.684,4.022 C9.780,4.022 9.241,4.826 9.241,4.826 L8.519,5.630 L18.481,5.630 L17.759,4.826 Z" class="cls-1"/>
</svg>
