<svg xmlns="http://www.w3.org/2000/svg" xmlns:xlink="http://www.w3.org/1999/xlink" preserveAspectRatio="xMidYMid" width="99.979" height="107.996" viewBox="0 0 212 229">
  <defs>
    <style>
      .cls-1 {
        fill: #56c9ff;
        fill-rule: evenodd;
      }
    </style>
  </defs>
  <path d="M101.685,0.000 C154.854,-0.639 189.285,41.304 177.533,95.674 C182.246,98.512 186.310,102.957 189.580,107.298 C191.460,109.794 194.427,111.883 196.273,114.451 C202.950,123.746 207.582,133.943 210.996,146.640 C213.045,154.262 211.887,172.854 208.319,177.489 C207.793,177.848 207.569,177.834 206.534,177.936 C204.642,176.458 201.890,176.104 199.842,174.806 C194.539,171.444 187.595,164.252 185.564,157.817 C185.416,157.817 185.267,157.817 185.118,157.817 C184.070,166.975 178.652,176.166 174.410,182.854 C172.684,185.575 169.648,187.513 168.610,190.901 C176.547,192.011 191.634,201.475 187.349,212.808 C185.798,216.911 180.844,221.146 177.087,223.090 C166.423,228.610 145.989,231.216 132.024,226.667 C128.753,225.326 125.480,223.984 122.208,222.643 C119.839,221.175 118.366,217.683 113.731,218.619 C110.177,219.338 102.810,219.969 98.562,219.067 C98.045,218.957 96.195,218.211 94.992,218.619 C93.306,219.192 91.622,221.694 90.084,222.643 C86.813,223.984 83.540,225.326 80.269,226.667 C65.591,231.393 45.104,228.374 34.759,222.196 C30.284,219.523 21.969,214.739 24.497,205.654 C26.030,200.148 31.429,196.026 36.098,193.583 C38.316,192.423 42.413,192.114 43.683,190.007 C38.376,184.795 33.861,176.643 30.744,169.441 C29.226,165.936 29.023,160.712 26.728,157.817 C26.728,158.115 26.728,158.413 26.728,158.711 C24.830,160.259 24.145,162.930 22.713,164.971 C19.071,170.159 11.865,177.300 3.974,177.936 C3.974,177.787 3.974,177.638 3.974,177.489 C3.825,177.489 3.676,177.489 3.528,177.489 C2.850,172.793 1.474,167.715 0.404,162.735 C-0.726,157.471 0.736,150.451 1.743,146.640 C5.587,132.092 10.247,122.534 17.805,112.216 C20.564,108.449 26.172,102.027 29.851,99.251 C31.640,97.901 33.886,97.025 34.759,94.780 C30.939,89.410 31.242,70.317 32.975,63.038 C33.918,59.075 33.592,56.346 34.759,52.755 C41.763,31.205 56.809,14.431 76.699,5.812 C81.123,3.895 86.252,2.587 90.977,1.341 C94.136,0.508 99.074,1.619 101.685,0.000 Z" class="cls-1"/>
</svg>
