<?xml version="1.0" standalone="no"?><!DOCTYPE svg PUBLIC "-//W3C//DTD SVG 1.1//EN" "http://www.w3.org/Graphics/SVG/1.1/DTD/svg11.dtd"><svg t="1488337836295" class="icon" style="" viewBox="0 0 1024 1024" version="1.1" xmlns="http://www.w3.org/2000/svg" p-id="2287" xmlns:xlink="http://www.w3.org/1999/xlink" width="200" height="200"><defs><style type="text/css"></style></defs><path d="M486.934528 0l40.958976 0 0 491.52-40.958976 0 0-491.52Z" p-id="2288" fill="#ffffff"></path><path d="M712.213504 82.880512l0 45.299712c149.102592 73.540608 251.961344 227.119104 251.961344 404.299776 0 248.441856-202.120192 450.561024-450.56 450.561024-248.440832 0-450.56-202.119168-450.56-450.561024 0-172.238848 97.179648-322.14016 239.55968-397.938688l0-46.05952C136.754176 167.43936 22.094848 336.540672 22.094848 532.478976c0 271.461376 220.060672 491.521024 491.52 491.521024 271.460352 0 491.52-220.059648 491.52-491.521024C1005.134848 331.718656 884.71552 159.1808 712.213504 82.880512z" p-id="2289" fill="#ffffff"></path></svg>