<svg xmlns="http://www.w3.org/2000/svg" xmlns:xlink="http://www.w3.org/1999/xlink" preserveAspectRatio="xMidYMid" width="34" height="28" viewBox="0 0 34 28">
  <defs>
    <style>
      .cls-1 {
        fill: #000;
        filter: url(#color-overlay-1);
        fill-rule: evenodd;
      }
    </style>

    <filter id="color-overlay-1" filterUnits="userSpaceOnUse">
      <feFlood flood-color="#fff"/>
      <feComposite operator="in" in2="SourceGraphic"/>
      <feBlend in2="SourceGraphic" result="solidFill"/>
    </filter>
  </defs>
  <path d="M31.043,28.000 L5.174,28.000 C3.541,28.000 2.217,26.680 2.217,25.053 L2.217,10.948 C0.944,10.620 -0.000,9.477 -0.000,8.105 L-0.000,5.915 C-0.000,5.913 -0.000,5.912 -0.000,5.910 L-0.000,5.895 C-0.000,5.779 0.032,5.673 0.080,5.576 C0.083,5.570 0.088,5.565 0.091,5.558 C0.141,5.465 0.209,5.387 0.292,5.323 L5.340,0.291 C5.475,0.118 5.676,-0.000 5.913,-0.000 L5.929,-0.000 C5.930,-0.000 5.932,-0.000 5.933,-0.000 L10.363,-0.000 C10.365,-0.000 10.366,-0.000 10.368,-0.000 L14.798,-0.000 C14.800,-0.000 14.801,-0.000 14.803,-0.000 L19.233,-0.000 C19.234,-0.000 19.236,-0.000 19.237,-0.000 L23.668,-0.000 C23.669,-0.000 23.671,-0.000 23.672,-0.000 L31.043,-0.000 C32.676,-0.000 34.000,1.320 34.000,2.947 C34.000,2.947 34.000,2.947 34.000,2.947 L34.000,25.053 C34.000,26.680 32.676,28.000 31.043,28.000 ZM10.348,26.526 C10.348,26.526 10.348,26.526 10.348,26.526 L10.348,19.895 L7.391,19.895 L7.391,26.526 C7.391,26.526 7.391,26.526 7.391,26.526 L10.348,26.526 ZM1.478,8.105 C1.478,8.919 2.140,9.579 2.956,9.579 C3.773,9.579 4.435,8.919 4.435,8.105 L4.435,6.632 L1.478,6.632 L1.478,8.105 ZM6.195,1.474 L2.499,5.158 L4.892,5.158 L8.588,1.474 L6.195,1.474 ZM5.913,8.105 C5.913,8.919 6.575,9.579 7.391,9.579 C8.208,9.579 8.870,8.919 8.870,8.105 L8.870,6.632 L5.913,6.632 L5.913,8.105 ZM10.629,1.474 L6.934,5.158 L9.327,5.158 L13.023,1.474 L10.629,1.474 ZM10.348,8.105 C10.348,8.919 11.010,9.579 11.826,9.579 C12.642,9.579 13.304,8.919 13.304,8.105 L13.304,6.632 L10.348,6.632 L10.348,8.105 ZM15.064,1.474 L11.369,5.158 L13.762,5.158 L17.457,1.474 L15.064,1.474 ZM14.783,8.105 C14.783,8.919 15.444,9.579 16.261,9.579 C17.077,9.579 17.739,8.919 17.739,8.105 L17.739,6.632 L14.783,6.632 L14.783,8.105 ZM19.499,1.474 L15.803,5.158 L18.197,5.158 L21.892,1.474 L19.499,1.474 ZM22.913,2.491 L19.217,6.175 L19.217,8.105 C19.217,9.733 17.894,11.053 16.261,11.053 C15.373,11.053 14.585,10.654 14.043,10.036 C13.502,10.654 12.714,11.053 11.826,11.053 C10.938,11.053 10.151,10.654 9.609,10.036 C9.067,10.654 8.279,11.053 7.391,11.053 C6.502,11.053 5.715,10.653 5.173,10.035 C4.787,10.471 4.279,10.798 3.696,10.948 L3.696,25.053 C3.696,25.866 4.357,26.526 5.174,26.526 L5.913,26.526 C5.913,26.526 5.913,26.526 5.913,26.526 L5.913,19.158 C5.913,18.751 6.244,18.421 6.652,18.421 L11.087,18.421 C11.495,18.421 11.826,18.751 11.826,19.158 L11.826,26.526 C11.826,26.526 11.826,26.526 11.826,26.526 L21.435,26.526 C22.251,26.526 22.913,25.866 22.913,25.053 L22.913,2.491 ZM32.522,2.947 C32.522,2.133 31.860,1.474 31.043,1.474 L24.391,1.474 L24.391,25.053 C24.391,25.592 24.235,26.091 23.981,26.526 L31.043,26.526 C31.860,26.526 32.522,25.866 32.522,25.053 L32.522,2.947 ZM19.956,19.895 C19.956,19.895 19.956,19.895 19.956,19.895 L14.044,19.895 C14.044,19.895 14.044,19.895 14.043,19.895 C13.635,19.895 13.304,19.565 13.304,19.158 L13.304,14.000 C13.304,13.593 13.635,13.263 14.043,13.263 L19.956,13.263 C20.365,13.263 20.696,13.593 20.696,14.000 L20.696,19.158 C20.696,19.565 20.365,19.895 19.956,19.895 ZM19.217,14.737 L14.783,14.737 L14.783,18.421 L19.217,18.421 L19.217,14.737 Z" class="cls-1"/>
</svg>
