<svg xmlns="http://www.w3.org/2000/svg" xmlns:xlink="http://www.w3.org/1999/xlink" preserveAspectRatio="xMidYMid" width="99.974" height="113.376" viewBox="0 0 141.969 161">
  <defs>
    <style>
      .cls-1 {
        fill: #6f73e6;
        fill-rule: evenodd;
      }
    </style>
  </defs>
  <path d="M16.106,0.274 C43.865,0.274 71.633,0.274 99.392,0.274 C111.520,0.274 127.439,-1.435 134.593,3.724 C143.432,10.099 141.821,23.277 141.821,38.217 C141.821,66.017 141.821,93.826 141.821,121.627 C141.822,136.846 143.611,150.880 134.593,157.374 C127.902,162.192 114.000,160.824 102.535,160.824 C80.118,160.824 57.694,160.824 35.277,160.824 C19.999,160.824 9.371,162.069 3.220,152.671 C-1.458,145.524 0.391,122.434 0.391,110.338 C0.391,87.659 0.391,64.973 0.391,42.293 C0.391,33.334 -1.139,18.184 1.648,11.563 C3.389,7.428 7.271,3.272 11.391,1.529 C12.864,0.905 14.835,1.110 16.106,0.274 ZM5.420,52.014 C49.206,52.014 93.006,52.014 136.793,52.014 C136.793,43.444 136.793,34.871 136.793,26.301 C136.793,22.174 137.364,16.944 136.164,13.758 C135.354,11.606 133.244,8.716 131.450,7.487 C126.049,3.784 113.206,5.291 104.421,5.292 C82.632,5.292 60.837,5.292 39.049,5.292 C30.010,5.291 16.349,3.646 10.763,7.487 C8.972,8.717 6.853,11.605 6.048,13.758 C4.855,16.951 5.420,22.168 5.420,26.301 C5.420,34.871 5.420,43.444 5.420,52.014 ZM27.420,24.733 C28.451,24.696 29.678,24.659 30.249,25.047 C31.722,25.396 32.644,26.156 33.077,27.555 C34.138,28.844 33.457,30.493 33.077,31.945 C31.290,33.281 30.853,34.176 27.420,34.140 C26.416,33.169 25.287,32.264 24.277,31.318 C24.134,29.792 23.761,28.671 24.591,27.555 C25.136,25.968 26.353,25.742 27.420,24.733 ZM50.992,24.733 C52.022,24.696 53.250,24.659 53.820,25.047 C55.505,25.493 55.913,26.540 56.963,27.555 C57.106,29.081 57.480,30.202 56.649,31.318 C56.104,32.905 54.887,33.132 53.820,34.140 C49.515,34.291 47.497,32.604 47.534,28.496 C47.882,28.062 48.004,27.595 48.163,26.928 C49.015,26.334 50.231,25.480 50.992,24.733 ZM5.420,57.031 C5.420,72.708 5.420,88.390 5.420,104.067 C49.206,104.067 93.006,104.067 136.793,104.067 C136.793,88.390 136.793,72.708 136.793,57.031 C93.006,57.031 49.206,57.031 5.420,57.031 ZM5.420,109.084 C5.420,117.654 5.420,126.227 5.420,134.797 C5.420,138.924 4.848,144.154 6.048,147.340 C6.859,149.492 8.969,152.382 10.763,153.611 C16.163,157.314 29.006,155.807 37.791,155.806 C59.580,155.806 81.375,155.806 103.164,155.806 C112.203,155.806 125.863,157.452 131.450,153.611 C133.240,152.381 135.360,149.493 136.164,147.340 C137.358,144.147 136.793,138.930 136.793,134.797 C136.793,126.227 136.793,117.654 136.793,109.084 C93.006,109.084 49.206,109.084 5.420,109.084 Z" class="cls-1"/>
</svg>
