<svg xmlns="http://www.w3.org/2000/svg" xmlns:xlink="http://www.w3.org/1999/xlink" preserveAspectRatio="xMidYMid" width="120" height="120" viewBox="0 0 120 120">
  <defs>
    <style>
      .cls-1 {
        fill: #ed5a61;
        fill-rule: evenodd;
      }
    </style>
  </defs>
  <path d="M100.000,120.000 L20.000,120.000 C8.954,120.000 -0.000,111.046 -0.000,100.000 L-0.000,20.000 C-0.000,8.954 8.954,-0.000 20.000,-0.000 L100.000,-0.000 C111.046,-0.000 120.000,8.954 120.000,20.000 L120.000,100.000 C120.000,111.046 111.046,120.000 100.000,120.000 ZM110.000,25.000 C110.000,17.268 103.732,11.000 96.000,11.000 L25.000,11.000 C17.268,11.000 11.000,17.268 11.000,25.000 L11.000,96.000 C11.000,103.732 17.268,110.000 25.000,110.000 L96.000,110.000 C103.732,110.000 110.000,103.732 110.000,96.000 L110.000,25.000 ZM62.500,76.000 C53.387,76.000 46.000,68.613 46.000,59.500 C46.000,50.387 53.387,43.000 62.500,43.000 C71.613,43.000 79.000,50.387 79.000,59.500 C79.000,68.613 71.613,76.000 62.500,76.000 Z" class="cls-1"/>
</svg>
