<svg xmlns="http://www.w3.org/2000/svg" xmlns:xlink="http://www.w3.org/1999/xlink" preserveAspectRatio="xMidYMid" width="120" height="120" viewBox="0 0 120 120">
	<defs>
		<style>
		      .cls-1 {
		        fill: #a574e2;
		        fill-rule: evenodd;
		      }
		    </style>
	</defs>
	<path d="M100.000,120.000 L20.000,120.000 C8.954,120.000 -0.000,111.046 -0.000,100.000 L-0.000,20.000 C-0.000,8.954 8.954,-0.000 20.000,-0.000 L100.000,-0.000 C111.046,-0.000 120.000,8.954 120.000,20.000 L120.000,100.000 C120.000,111.046 111.046,120.000 100.000,120.000 ZM110.000,25.000 C110.000,17.268 103.732,11.000 96.000,11.000 L25.000,11.000 C17.268,11.000 11.000,17.268 11.000,25.000 L11.000,96.000 C11.000,103.732 17.268,110.000 25.000,110.000 L96.000,110.000 C103.732,110.000 110.000,103.732 110.000,96.000 L110.000,25.000 ZM81.500,103.000 C75.701,103.000 71.000,98.299 71.000,92.500 C71.000,86.701 75.701,82.000 81.500,82.000 C87.299,82.000 92.000,86.701 92.000,92.500 C92.000,98.299 87.299,103.000 81.500,103.000 ZM81.500,71.000 C75.701,71.000 71.000,66.299 71.000,60.500 C71.000,54.701 75.701,50.000 81.500,50.000 C87.299,50.000 92.000,54.701 92.000,60.500 C92.000,66.299 87.299,71.000 81.500,71.000 ZM81.500,39.000 C75.701,39.000 71.000,34.299 71.000,28.500 C71.000,22.701 75.701,18.000 81.500,18.000 C87.299,18.000 92.000,22.701 92.000,28.500 C92.000,34.299 87.299,39.000 81.500,39.000 ZM39.500,103.000 C33.701,103.000 29.000,98.299 29.000,92.500 C29.000,86.701 33.701,82.000 39.500,82.000 C45.299,82.000 50.000,86.701 50.000,92.500 C50.000,98.299 45.299,103.000 39.500,103.000 ZM39.500,71.000 C33.701,71.000 29.000,66.299 29.000,60.500 C29.000,54.701 33.701,50.000 39.500,50.000 C45.299,50.000 50.000,54.701 50.000,60.500 C50.000,66.299 45.299,71.000 39.500,71.000 ZM39.500,39.000 C33.701,39.000 29.000,34.299 29.000,28.500 C29.000,22.701 33.701,18.000 39.500,18.000 C45.299,18.000 50.000,22.701 50.000,28.500 C50.000,34.299 45.299,39.000 39.500,39.000 Z" class="cls-1" />
</svg>
