<?xml version="1.0" standalone="no"?>
<!DOCTYPE svg PUBLIC "-//W3C//DTD SVG 1.1//EN" "http://www.w3.org/Graphics/SVG/1.1/DTD/svg11.dtd">
<svg width="200" height="200" viewBox="0 0 200 200" version="1.1" xmlns="http://www.w3.org/2000/svg" xmlns:xlink="http://www.w3.org/1999/xlink">
  <defs>
    <style type="text/css">
<![CDATA[
@font-face { font-family: ifont; src: url("//at.alicdn.com/t/font_1442373896_4754455.eot?#iefix") format("embedded-opentype"), url("//at.alicdn.com/t/font_1442373896_4754455.woff") format("woff"), url("//at.alicdn.com/t/font_1442373896_4754455.ttf") format("truetype"), url("//at.alicdn.com/t/font_1442373896_4754455.svg#ifont") format("svg"); }

]]>
</style>
    <style>
      .cls-1 {
        fill: #ed5a61;
        fill-rule: evenodd;
	
      }
    </style>

  </defs>
  <g class="transform-group">
    <g transform="scale(0.1953125, 0.1953125)">
      <path class="cls-1" d="M615.268 566.177c35.521-29.678 58.124-74.301 58.124-124.209 0-89.355-72.435-161.791-161.79-161.791-89.355 0-161.791 72.436-161.791 161.791 0 49.815 22.521 94.365 57.927 124.043-68.331 25.525-124.701 75.572-158.401 139.44 15.116 23.642 33.354 45.09 54.123 63.782 30.316-85.636 111.995-146.987 208.017-146.987 95.761 0 177.259 61.017 207.771 146.287 20.606-18.672 38.686-40.077 53.681-63.638-33.66-63.463-89.729-113.216-157.661-138.718zM510.82 530.239c-49.063 0-88.836-39.773-88.836-88.835 0-49.063 39.773-88.835 88.836-88.835 49.061 0 88.835 39.772 88.835 88.835-0.001 49.062-39.774 88.835-88.835 88.835zM510.703 87.799c-248.983 0-450.825 201.84-450.825 450.822 0 248.983 201.842 450.823 450.825 450.823 248.982 0 450.823-201.84 450.823-450.823 0-248.981-201.841-450.822-450.823-450.822zM510.703 916.893c-208.914 0-378.271-169.358-378.271-378.271s169.357-378.269 378.271-378.269c208.913 0 378.27 169.357 378.27 378.27s-169.357 378.27-378.27 378.27z" fill="#272636"></path>
    </g>
  </g>
</svg>
