<svg xmlns="http://www.w3.org/2000/svg" xmlns:xlink="http://www.w3.org/1999/xlink" preserveAspectRatio="xMidYMid" width="611.469" height="611.375" viewBox="0 0 611.469 611.375">
  <defs>
    <style>
      .cls-1 {
        fill: #fff;
        fill-rule: evenodd;
      }
    </style>
  </defs>
  <path d="M522.380,89.475 C403.060,-29.848 208.907,-29.848 89.586,89.475 C47.722,131.340 19.085,183.934 6.768,241.576 C-5.222,297.702 -1.294,355.852 18.126,409.736 C20.459,416.207 27.598,419.561 34.067,417.230 C40.539,414.897 43.894,407.760 41.560,401.290 C23.718,351.781 20.110,298.354 31.129,246.778 C42.436,193.851 68.742,145.545 107.200,107.087 C216.810,-2.523 395.157,-2.523 504.766,107.087 C556.965,159.287 586.185,228.675 587.042,302.470 C587.900,376.132 560.449,446.073 509.748,499.407 C509.149,500.038 508.555,500.674 507.961,501.308 C506.910,502.431 505.863,503.556 504.766,504.653 C395.157,614.262 216.810,614.262 107.200,504.653 C106.617,504.069 106.048,503.475 105.486,502.882 C105.457,501.732 105.432,500.598 105.432,499.481 C105.432,496.974 105.480,494.476 105.571,491.988 C105.602,491.155 105.664,490.331 105.706,489.501 C105.787,487.846 105.864,486.192 105.984,484.546 C106.056,483.563 106.162,482.593 106.250,481.614 C106.381,480.131 106.503,478.646 106.665,477.170 C106.779,476.128 106.928,475.094 107.059,474.056 C107.236,472.655 107.404,471.250 107.612,469.854 C107.769,468.792 107.956,467.739 108.131,466.682 C108.353,465.323 108.569,463.963 108.820,462.612 C109.017,461.543 109.243,460.484 109.459,459.421 C109.727,458.094 109.991,456.765 110.285,455.448 C110.524,454.379 110.790,453.316 111.045,452.253 C111.356,450.956 111.666,449.658 112.002,448.371 C112.282,447.303 112.585,446.245 112.880,445.184 C113.235,443.914 113.588,442.641 113.968,441.380 C114.285,440.321 114.626,439.270 114.962,438.219 C115.361,436.972 115.760,435.722 116.181,434.485 C116.538,433.441 116.911,432.403 117.285,431.365 C117.727,430.136 118.172,428.907 118.637,427.686 C119.031,426.655 119.440,425.634 119.851,424.610 C120.335,423.404 120.823,422.198 121.329,421.003 C121.761,419.985 122.205,418.976 122.654,417.968 C123.178,416.782 123.710,415.600 124.258,414.427 C124.725,413.429 125.202,412.437 125.686,411.447 C126.255,410.282 126.830,409.120 127.420,407.968 C127.920,406.992 128.428,406.020 128.946,405.053 C129.556,403.907 130.177,402.765 130.810,401.630 C131.343,400.675 131.883,399.724 132.431,398.780 C133.083,397.657 133.745,396.540 134.420,395.427 C134.987,394.493 135.559,393.563 136.140,392.637 C136.834,391.537 137.537,390.443 138.252,389.357 C138.849,388.446 139.451,387.539 140.064,386.637 C140.797,385.558 141.546,384.491 142.302,383.427 C142.931,382.540 143.560,381.656 144.203,380.782 C144.978,379.727 145.769,378.683 146.564,377.645 C147.222,376.786 147.878,375.927 148.550,375.077 C149.366,374.046 150.200,373.026 151.037,372.011 C151.720,371.180 152.403,370.350 153.101,369.530 C153.960,368.521 154.838,367.527 155.719,366.535 C156.428,365.733 157.134,364.930 157.857,364.141 C158.758,363.157 159.677,362.192 160.599,361.226 C161.334,360.455 162.064,359.680 162.812,358.919 C163.756,357.959 164.721,357.021 165.685,356.079 C166.440,355.342 167.190,354.596 167.958,353.870 C168.950,352.931 169.965,352.016 170.976,351.098 C171.748,350.399 172.511,349.691 173.293,349.002 C174.337,348.082 175.408,347.189 176.473,346.291 C177.254,345.633 178.026,344.964 178.817,344.316 C179.919,343.416 181.049,342.542 182.174,341.661 C182.958,341.049 183.731,340.422 184.524,339.820 C185.709,338.922 186.919,338.053 188.127,337.181 C188.889,336.630 189.637,336.065 190.408,335.523 C191.741,334.587 193.105,333.683 194.465,332.776 C195.136,332.330 195.791,331.867 196.466,331.427 C198.239,330.275 200.043,329.160 201.859,328.060 C202.142,327.889 202.416,327.707 202.700,327.537 C204.801,326.279 206.931,325.058 209.086,323.871 C209.823,323.467 210.580,323.087 211.325,322.690 C212.756,321.926 214.182,321.156 215.637,320.425 C216.569,319.956 217.524,319.515 218.465,319.061 C219.652,318.486 220.835,317.905 222.037,317.350 C244.613,338.915 274.728,351.123 305.987,351.123 C337.245,351.123 367.363,338.913 389.938,317.346 C434.007,337.742 470.075,374.338 489.657,418.842 C492.427,425.135 499.774,427.998 506.074,425.226 C512.370,422.456 515.229,415.104 512.457,408.810 C491.038,360.131 453.749,321.230 406.549,297.748 C420.244,277.659 427.653,253.938 427.653,229.459 C427.653,162.372 373.074,107.793 305.987,107.793 C299.109,107.793 293.531,113.371 293.531,120.248 C293.531,127.126 299.109,132.703 305.987,132.703 C359.339,132.703 402.742,176.109 402.742,229.459 C402.742,253.315 393.876,276.287 377.780,294.138 C377.778,294.140 377.776,294.142 377.773,294.144 C359.393,314.525 333.229,326.215 305.985,326.215 C278.741,326.215 252.574,314.525 234.196,294.144 C234.194,294.140 234.189,294.138 234.185,294.136 C218.091,276.279 209.227,253.313 209.227,229.461 C209.227,203.421 219.422,178.992 237.934,160.678 C242.825,155.840 242.866,147.953 238.028,143.064 C233.191,138.172 225.304,138.134 220.414,142.969 C197.137,165.990 184.316,196.708 184.316,229.453 C184.316,253.907 191.706,277.612 205.378,297.690 C205.256,297.750 205.137,297.816 205.017,297.879 C204.045,298.365 203.096,298.879 202.134,299.375 C200.657,300.139 199.178,300.899 197.722,301.694 C196.693,302.255 195.686,302.844 194.666,303.419 C193.306,304.189 191.945,304.955 190.604,305.750 C189.564,306.369 188.540,307.009 187.511,307.641 C186.224,308.434 184.937,309.225 183.668,310.042 C182.633,310.708 181.615,311.392 180.592,312.074 C179.361,312.893 178.132,313.718 176.920,314.560 C175.900,315.270 174.893,315.995 173.887,316.719 C172.703,317.573 171.524,318.430 170.360,319.304 C169.361,320.053 168.375,320.813 167.391,321.577 C166.249,322.464 165.116,323.356 163.995,324.263 C163.023,325.048 162.060,325.844 161.101,326.642 C159.999,327.564 158.905,328.496 157.821,329.438 C156.881,330.255 155.947,331.076 155.021,331.909 C153.952,332.870 152.897,333.842 151.849,334.821 C150.944,335.666 150.041,336.513 149.148,337.375 C148.112,338.375 147.093,339.390 146.076,340.410 C145.208,341.279 144.340,342.147 143.489,343.029 C142.482,344.074 141.494,345.136 140.508,346.199 C139.684,347.088 138.854,347.972 138.044,348.875 C137.058,349.971 136.099,351.091 135.136,352.205 C134.362,353.101 133.581,353.990 132.821,354.897 C131.844,356.066 130.897,357.258 129.944,358.445 C129.236,359.330 128.514,360.201 127.818,361.095 C126.818,362.383 125.850,363.695 124.879,365.003 C124.268,365.825 123.641,366.633 123.044,367.463 C121.815,369.165 120.625,370.892 119.446,372.628 C119.137,373.085 118.809,373.528 118.502,373.987 C117.034,376.179 115.608,378.396 114.219,380.638 C113.740,381.413 113.289,382.204 112.820,382.982 C111.921,384.474 111.018,385.966 110.152,387.478 C109.613,388.423 109.102,389.385 108.577,390.337 C107.819,391.707 107.057,393.073 106.331,394.460 C105.791,395.487 105.280,396.527 104.755,397.563 C104.078,398.900 103.400,400.235 102.750,401.587 C102.233,402.662 101.741,403.750 101.241,404.831 C100.626,406.166 100.010,407.499 99.420,408.845 C98.934,409.957 98.469,411.077 98.002,412.196 C97.440,413.540 96.881,414.883 96.345,416.236 C95.895,417.374 95.463,418.517 95.032,419.661 C94.521,421.019 94.016,422.379 93.531,423.747 C93.119,424.907 92.721,426.074 92.326,427.242 C91.864,428.615 91.413,429.991 90.977,431.376 C90.606,432.552 90.246,433.734 89.894,434.917 C89.478,436.314 89.078,437.716 88.690,439.123 C88.362,440.310 88.040,441.500 87.731,442.695 C87.363,444.117 87.014,445.546 86.674,446.978 C86.389,448.174 86.107,449.367 85.844,450.567 C85.524,452.018 85.227,453.477 84.936,454.939 C84.698,456.135 84.455,457.331 84.235,458.532 C83.963,460.023 83.718,461.521 83.475,463.022 C83.284,464.206 83.083,465.387 82.910,466.574 C82.684,468.123 82.493,469.680 82.298,471.237 C82.155,472.391 81.997,473.543 81.870,474.702 C81.692,476.333 81.555,477.975 81.411,479.617 C81.316,480.712 81.202,481.802 81.123,482.901 C80.990,484.734 80.903,486.576 80.814,488.419 C80.770,489.335 80.701,490.244 80.668,491.162 C80.569,493.927 80.512,496.702 80.512,499.488 C80.512,502.496 80.615,505.340 80.737,508.480 C80.766,509.207 80.867,509.913 81.013,510.602 C81.026,510.656 81.032,510.710 81.044,510.764 C81.198,511.443 81.414,512.094 81.673,512.726 C81.698,512.788 81.721,512.850 81.748,512.913 C82.015,513.536 82.335,514.129 82.697,514.694 C82.742,514.764 82.786,514.835 82.831,514.903 C83.203,515.458 83.616,515.979 84.067,516.465 C84.100,516.500 84.123,516.544 84.156,516.579 L85.800,518.329 C87.041,519.657 88.283,520.982 89.578,522.275 C149.240,581.936 227.607,611.767 305.976,611.767 C384.345,611.767 462.712,581.936 522.374,522.275 C523.669,520.981 524.910,519.655 526.153,518.329 L527.796,516.579 C582.992,458.513 612.877,382.378 611.945,302.190 C611.017,221.843 579.206,146.301 522.380,89.475 Z" class="cls-1"/>
</svg>
