<?xml version="1.0" standalone="no"?><!DOCTYPE svg PUBLIC "-//W3C//DTD SVG 1.1//EN" "http://www.w3.org/Graphics/SVG/1.1/DTD/svg11.dtd"><svg t="1488339851083" class="icon" style="" viewBox="0 0 1024 1024" version="1.1" xmlns="http://www.w3.org/2000/svg" p-id="2017" xmlns:xlink="http://www.w3.org/1999/xlink" width="200" height="200"><defs><style type="text/css"></style></defs><path d="M511.352247 1018.318604c-63.200414 0-124.576273-12.357446-182.310186-36.85028-55.802934-23.547299-105.845677-57.293891-148.852166-100.30652-43.00649-43.00649-76.759221-93.120864-100.379175-148.884912-24.420179-57.733912-36.810371-119.077026-36.810371-182.310186 0-75.670423 18.552541-150.782122 53.612035-217.33591 33.898041-64.297398 83.138512-120.751155 142.44013-163.252131 16.47216-11.805884 39.364543-7.979742 51.137681 8.459672 11.769045 16.434298 8.014534 39.286772-8.458649 51.02614-50.115398 36.010145-91.702562 83.610256-120.278387 137.878231-29.992081 56.893778-45.192272 118.525464-45.192272 183.222975 0 105.550964 41.110303 204.795293 115.756397 279.407618 74.606185 74.640977 173.817768 115.756397 279.334963 115.756397 105.47831 0 204.722638-41.116443 279.368732-115.756397 74.645071-74.612325 115.722628-173.856653 115.722628-279.407618 0-64.624856-15.167444-126.368082-45.197388-183.222975-28.575826-54.234205-70.196759-101.868085-120.311133-137.805576-16.439414-11.741415-20.266579-34.592866-8.459672-51.02614 11.813047-16.439414 34.664497-20.305465 51.104935-8.459672 59.335387 42.500976 108.647489 98.954733 142.506644 163.251108 35.097356 66.553789 53.650921 141.67265 53.650921 217.336934 0 63.23316-12.391215 124.576273-36.85028 182.349071-23.580045 55.765071-57.364499 105.878422-100.373035 148.884912-43.00649 43.00649-93.053326 76.720336-148.851143 100.379175C635.890658 1005.994927 574.552661 1018.318604 511.352247 1018.318604L511.352247 1018.318604 511.352247 1018.318604zM522.357905 510.090511c-20.22667 0-36.627199-16.328897-36.627199-36.594453L485.730707 39.698141c0-20.188808 16.400528-36.628222 36.627199-36.628222 20.22667 0 36.667108 16.439414 36.667108 36.628222l0 433.797917C559.02399 493.761614 542.584576 510.090511 522.357905 510.090511L522.357905 510.090511 522.357905 510.090511zM522.357905 510.090511" p-id="2018" fill="#ffffff"></path></svg>