<svg xmlns="http://www.w3.org/2000/svg" xmlns:xlink="http://www.w3.org/1999/xlink" preserveAspectRatio="xMidYMid" width="99.622" height="80.737" viewBox="0 0 269.031 218.031">
  <defs>
    <style>
      .cls-1 {
        fill: #ec524c;
        fill-rule: evenodd;
      }
    </style>
  </defs>
  <path d="M190.154,0.000 C231.675,-0.475 253.903,17.964 264.856,47.810 C269.146,59.500 271.797,85.235 264.329,96.145 C263.156,97.859 260.574,98.416 259.069,99.822 C255.333,99.896 252.725,99.395 250.126,98.772 C248.506,96.331 246.183,94.812 245.391,91.416 C243.950,85.237 250.446,75.880 248.548,67.249 C245.306,52.517 240.949,39.542 230.661,32.048 C222.653,26.215 214.409,23.031 202.780,20.490 C192.124,18.162 179.444,26.258 175.951,15.761 C173.913,13.267 175.261,8.468 175.951,5.779 C177.786,4.602 179.081,2.392 181.211,1.576 C183.886,0.552 187.871,1.467 190.154,0.000 ZM109.140,30.472 C124.838,30.177 130.385,35.633 133.339,48.335 C133.707,49.915 134.419,53.820 133.865,56.216 C132.774,60.942 131.028,66.753 131.235,70.926 C132.523,71.373 134.488,71.472 136.496,71.452 C138.622,69.520 141.981,69.487 144.913,68.299 C158.956,62.613 188.505,56.767 198.045,70.926 C205.846,82.503 195.854,93.119 197.519,102.975 C211.161,106.915 223.931,114.095 230.661,125.041 C242.744,144.690 225.199,173.859 213.301,182.832 C194.117,197.301 178.229,206.675 151.226,213.830 C112.963,223.968 60.224,214.377 35.491,199.119 C23.555,191.756 12.751,182.278 5.506,170.223 C-2.379,157.106 -1.008,133.902 4.979,119.787 C17.848,89.448 45.027,61.273 71.790,44.657 C79.257,40.021 87.802,36.241 96.515,33.099 C100.723,32.223 104.932,31.348 109.140,30.472 ZM194.363,36.251 C223.009,35.797 237.018,57.162 229.609,84.586 C226.539,86.577 225.201,87.787 219.614,87.739 C217.187,85.364 214.247,84.309 213.301,80.383 C212.815,78.363 214.050,76.841 214.353,75.655 C215.460,71.326 214.633,65.641 212.775,62.520 C206.903,52.654 198.962,56.104 187.524,53.589 C185.590,50.713 183.523,49.539 183.316,44.657 C184.804,42.577 184.884,39.771 186.998,38.353 C188.943,37.047 192.341,37.538 194.363,36.251 ZM102.828,95.619 C96.691,96.670 90.552,97.721 84.415,98.772 C72.580,102.564 61.216,106.683 51.799,112.957 C38.528,121.798 19.361,143.850 29.178,167.071 C34.804,180.376 47.919,189.828 61.268,195.441 C104.429,213.591 163.714,195.038 181.737,166.546 C185.156,161.141 186.967,154.870 188.576,147.632 C191.296,135.401 182.372,124.998 178.055,119.261 C163.638,100.106 136.783,95.584 102.828,95.619 ZM99.145,117.160 C121.155,116.808 135.992,123.198 142.282,138.175 C150.346,157.375 136.919,176.115 125.974,183.358 C121.672,186.205 117.234,187.367 111.771,189.137 C107.342,190.572 98.642,192.855 91.780,191.238 C71.748,186.519 50.708,170.175 61.795,143.954 C63.529,139.852 66.553,135.848 69.159,132.396 C72.874,127.475 81.050,122.805 87.046,120.312 C90.611,118.830 95.863,119.233 99.145,117.160 ZM109.140,141.853 C108.482,142.505 107.101,142.736 106.510,143.429 C105.771,144.296 105.729,145.286 104.932,146.056 C104.747,152.638 109.239,152.169 113.875,150.784 C115.082,148.756 115.909,147.917 115.979,144.480 C115.015,143.804 115.079,143.446 113.875,142.903 C112.741,141.859 111.467,141.817 109.140,141.853 ZM87.572,148.157 C85.502,149.476 82.737,149.430 80.733,150.784 C74.359,155.090 73.134,161.208 75.472,169.698 C77.571,171.166 79.142,173.542 81.785,174.426 C92.701,178.078 101.568,169.404 103.354,161.817 C104.033,158.930 102.645,156.792 102.302,154.462 C97.670,150.817 96.602,148.077 87.572,148.157 Z" class="cls-1"/>
</svg>
