<svg xmlns="http://www.w3.org/2000/svg" xmlns:xlink="http://www.w3.org/1999/xlink" preserveAspectRatio="xMidYMid" width="99.972" height="92.587" viewBox="0 0 134.969 125">
  <defs>
    <style>
      .cls-1 {
        fill: #93f183;
        fill-rule: evenodd;
      }
    </style>
  </defs>
  <path d="M51.567,-0.000 C84.000,-0.396 111.305,17.372 110.932,49.370 C110.582,49.370 110.232,49.370 109.881,49.370 C104.177,44.830 87.958,45.608 80.462,47.794 C65.309,52.212 55.518,58.551 49.466,71.954 C47.042,77.320 44.290,86.091 46.839,93.487 C46.138,93.487 45.438,93.487 44.737,93.487 C42.824,92.209 39.801,92.681 37.382,91.912 C35.313,91.254 32.410,89.269 30.553,88.761 C26.478,87.644 12.081,96.812 6.912,97.689 C6.912,97.514 6.912,97.339 6.912,97.164 C8.198,95.090 9.509,76.894 9.538,73.004 C1.709,66.949 -2.571,48.228 1.658,35.189 C6.014,21.761 17.082,10.614 29.502,5.252 C34.055,3.852 38.609,2.451 43.161,1.050 C45.796,0.392 49.507,1.264 51.567,-0.000 ZM34.230,18.908 C32.574,20.447 30.884,20.654 30.027,23.109 C28.193,25.340 29.381,28.506 30.027,30.987 C33.710,33.616 41.490,36.553 43.687,29.937 C45.521,27.706 44.333,24.540 43.687,22.059 C40.723,20.075 39.730,18.850 34.230,18.908 ZM71.530,18.908 C68.525,21.699 66.259,22.286 66.277,28.361 C67.786,30.259 67.883,32.178 70.480,33.088 C71.802,34.297 74.116,34.221 76.784,34.139 C78.841,32.371 80.182,30.799 82.038,28.887 C82.038,27.311 82.038,25.735 82.038,24.160 C80.657,22.704 80.098,21.110 78.360,19.958 C76.884,18.780 74.307,18.836 71.530,18.908 ZM87.291,50.945 C108.747,50.587 121.021,57.171 129.320,69.853 C131.968,73.900 136.385,81.348 134.573,89.286 C133.505,93.966 132.607,98.794 130.370,102.416 C129.737,103.442 127.590,104.986 127.218,106.092 C127.919,112.394 128.619,118.698 129.320,125.000 C129.144,125.000 128.969,125.000 128.794,125.000 C127.575,123.930 114.632,117.943 113.034,117.647 C112.131,117.480 101.739,121.304 99.374,121.849 C90.509,123.893 79.009,121.002 72.581,118.172 C53.249,109.661 41.535,82.026 59.973,63.550 C64.373,59.141 70.981,55.372 77.309,53.046 C80.636,52.346 83.964,51.646 87.291,50.945 ZM76.259,65.126 C75.348,66.089 74.404,66.601 73.632,67.752 C70.576,71.444 74.331,74.769 76.259,76.681 C77.659,76.681 79.061,76.681 80.462,76.681 C83.055,74.135 84.274,73.910 84.139,68.277 C83.086,67.508 81.763,66.174 80.987,65.126 C79.411,65.126 77.835,65.126 76.259,65.126 ZM104.628,65.126 C103.500,66.340 102.164,67.673 100.950,68.803 C100.841,73.930 102.293,74.296 104.628,76.681 C109.757,76.790 110.123,75.339 112.508,73.004 C112.618,67.877 111.166,67.511 108.831,65.126 C107.430,65.126 106.029,65.126 104.628,65.126 Z" class="cls-1"/>
</svg>
