<svg xmlns="http://www.w3.org/2000/svg" xmlns:xlink="http://www.w3.org/1999/xlink" preserveAspectRatio="xMidYMid" width="36" height="37" viewBox="0 0 36 37">
  <defs>
    <style>
      .cls-1 {
        fill: #54a0eb;
        stroke: #ec524c;
        stroke-linejoin: round;
        stroke-width: 1px;
        filter: url(#color-overlay-1);
        fill-rule: evenodd;
      }
    </style>

    <filter id="color-overlay-1" filterUnits="userSpaceOnUse">
      <feFlood flood-color="#e9454f"/>
      <feComposite operator="in" in2="SourceGraphic"/>
      <feBlend in2="SourceGraphic" result="solidFill"/>
    </filter>
  </defs>
  <g style="fill: #54a0eb; filter: url(#color-overlay-1)">
    <path d="M32.098,9.336 C31.826,9.408 31.546,9.250 31.473,8.983 L30.375,4.964 C29.362,7.863 22.135,13.822 22.135,13.822 L13.587,11.666 L6.540,20.725 C6.540,20.725 4.286,20.947 3.531,20.902 L3.531,19.913 C4.286,19.955 5.993,19.929 5.993,19.929 L13.077,10.500 L21.976,12.780 C21.976,12.780 28.190,7.445 29.221,4.964 L30.375,4.964 L30.286,4.635 L25.854,5.800 C25.582,5.872 25.302,5.714 25.229,5.447 C25.157,5.180 25.318,4.906 25.590,4.834 L30.514,3.540 C30.786,3.468 31.066,3.627 31.139,3.894 L32.458,8.724 C32.531,8.991 32.370,9.265 32.098,9.336 ZM5.060,26.967 C5.342,26.967 5.570,27.191 5.570,27.467 L5.570,32.468 C5.570,32.745 5.342,32.968 5.060,32.968 C4.779,32.968 4.551,32.745 4.551,32.468 L4.551,27.467 C4.551,27.191 4.779,26.967 5.060,26.967 ZM13.217,22.467 C13.499,22.467 13.727,22.691 13.727,22.967 L13.727,32.968 C13.727,33.245 13.499,33.468 13.217,33.468 C12.936,33.468 12.708,33.245 12.708,32.968 L12.708,22.967 C12.708,22.691 12.936,22.467 13.217,22.467 ZM21.374,23.967 C21.656,23.967 21.884,24.191 21.884,24.467 L21.884,31.968 C21.884,32.244 21.656,32.468 21.374,32.468 C21.093,32.468 20.864,32.244 20.864,31.968 L20.864,24.467 C20.864,24.191 21.093,23.967 21.374,23.967 ZM29.021,14.465 C29.303,14.465 29.531,14.689 29.531,14.965 L29.531,32.468 C29.531,32.745 29.303,32.968 29.021,32.968 C28.740,32.968 28.512,32.745 28.512,32.468 L28.512,14.965 C28.512,14.689 28.740,14.465 29.021,14.465 Z" id="path-1" style="stroke: inherit; filter: none; fill: inherit" class="cls-1"/>
  </g>
  <use xlink:href="#path-1" style="stroke: #ec524c; filter: none; fill: none"/>
</svg>
