<?xml version="1.0" encoding="utf-8"?>
<!-- Generator: Adobe Illustrator 16.0.0, SVG Export Plug-In . SVG Version: 6.00 Build 0)  -->
<!DOCTYPE svg PUBLIC "-//W3C//DTD SVG 1.1//EN" "http://www.w3.org/Graphics/SVG/1.1/DTD/svg11.dtd">
<svg version="1.1" id="图层_1" xmlns="http://www.w3.org/2000/svg" xmlns:xlink="http://www.w3.org/1999/xlink" x="0px" y="0px"
	 width="700px" height="700px" viewBox="0 0 700 700" enable-background="new 0 0 700 700" xml:space="preserve">
<path fill="#F5DE50" d="M189.141,521.015c-0.248-0.301-0.593-0.711-1.167-1.284c0,0-2.699-2.737-2.689-2.729
	c-0.793-0.797-1.422-1.492-2.084-2.211c-0.059,0.08-0.374,0.518-0.458,0.627c-0.278,0.346-0.405,0.565-0.537,0.775
	c0.5,0.595,1.456,1.627,3.493,3.483c1.418,1.285,2.238,1.875,2.711,2.176c0.18-0.166,0.363-0.358,0.652-0.718
	C189.062,521.135,189.114,521.049,189.141,521.015z"/>
<path fill="#F5DE50" d="M195.008,507.371c-1.837-1.673-2.836-2.35-3.331-2.649c-0.042,0.051-0.115,0.119-0.115,0.119
	c-0.12,0.159-0.157,0.229-0.247,0.349c0.604,0.727,1.728,1.977,4.055,4.3c0.388,0.388,0.671,0.719,1.03,1.09l0.63-0.931
	l-0.206,0.281c0.137-0.216,0.195-0.329,0.268-0.475C196.741,509.035,196.111,508.373,195.008,507.371z"/>
<path fill="#F5DE50" d="M432.694,565.932c-1.345-4.106-2.185-5.837-2.601-6.567c-0.683,0.083-2.084,0.365-4.751,1.38l-0.006,0.006
	c-2.815,1.062-4.057,1.802-4.613,2.198c0.142,1.01,0.62,3.337,2.249,8.288c1.081,3.309,1.822,4.712,2.186,5.283
	c0.635-0.062,2.074-0.31,5.057-1.438c2.668-1.019,3.808-1.739,4.291-2.102C434.444,572.194,434.135,570.295,432.694,565.932z"/>
<path fill="#F5DE50" d="M261.009,179.275c0.61-0.866,0.977-2.221,1.104-4.071l0.51-7.464l-17.18,3.979l-0.973,12.562l13.441-3.198
	C259.366,180.733,260.396,180.138,261.009,179.275z"/>
<path fill="#F5DE50" d="M517.162,503.229c-0.592,0.303-1.79,1.032-4.052,2.993v0.008c-2.329,2.018-3.257,3.157-3.661,3.73
	c0.436,0.886,1.587,2.892,4.686,7.006c2.058,2.731,3.184,3.784,3.706,4.191c0.584-0.272,1.858-1.032,4.318-3.17
	c2.204-1.92,3.057-3.009,3.393-3.521c-0.319-0.742-1.238-2.465-3.896-5.992C519.114,505.095,517.788,503.771,517.162,503.229z"/>
<path fill="#F5DE50" d="M328.597,574.823c0.105-0.767,0.126-1.306,0.126-1.665c0-0.017,0-0.008,0-0.021
	c-0.325-0.102-0.797-0.227-1.563-0.336c0,0-3.552-0.533-6.518-0.973c-0.216,1.654-0.264,2.062-0.479,3.719
	c2.729,0.406,6.056,0.896,6.056,0.896c1.086,0.169,1.68,0.152,2.011,0.116C328.333,576.277,328.471,575.81,328.597,574.823z"/>
<path fill="#F5DE50" d="M675.961,349.3c0-179.711-145.685-325.395-325.395-325.395c-179.711,0-325.395,145.684-325.395,325.395
	c0,179.71,145.684,325.394,325.395,325.394S675.961,529.011,675.961,349.3z M340.227,589.738c0,0.595-0.043,1.215-0.12,1.852
	l-1.414,10.967l-13.688-2.041l1.256-9.721c0.026-0.212,0.037-0.384,0.037-0.517c0-0.315-0.053-0.441-0.053-0.441
	c0-0.005-0.315-0.375-1.653-0.569c0,0-3.257-0.49-6.078-0.907c-0.42,3.25-1.418,10.979-1.418,10.979l-13.688-2.034l4.716-36.549
	l0.489-3.779l20.815,3.102c5.241,0.78,8.644,2.229,10.704,4.567c1.734,1.965,2.609,4.675,2.609,8.085
	c0,0.949-0.063,1.956-0.205,3.016c-0.539,4.222-1.506,6.991-3.04,8.729c-0.152,0.177-0.352,0.303-0.524,0.462
	C339.711,586.334,340.227,587.892,340.227,589.738z M273.988,479.52c-21.97,0-39.776-19.128-39.776-42.738
	c0-23.605,17.806-42.734,39.776-42.734c21.972,0,39.777,19.129,39.777,42.734C313.765,460.393,295.96,479.52,273.988,479.52z
	 M278.595,546.983l29.991,9.797l-3.503,12.376c0,0-12.453-4.069-16.771-5.48c-0.12,0.423-0.126,0.432-0.242,0.858
	c4.202,1.37,15.925,5.198,15.925,5.198l-3.329,11.75c0,0-11.713-3.825-15.92-5.205c-0.215,0.773-0.231,0.828-0.451,1.599
	c4.338,1.415,16.928,5.53,16.928,5.53l-3.498,12.376l-30.149-9.85l9.99-35.298L278.595,546.983z M376.479,560.614l10.077-2.052
	l3.494-0.713c0,0,3.78,21.438,4.759,27c4.307-0.879,16.298-3.32,16.298-3.32l2.291,13l-29.871,6.081L376.479,560.614z
	 M539.26,514.637c-0.414,3.961-3.518,8.264-10.057,13.944c-5.879,5.101-10.301,7.325-13.935,6.991
	c-3.691-0.339-7.559-3.353-12.165-9.48c-1.891-2.502-3.367-4.724-4.507-6.748c-1.808,1.281-5.956,4.218-7.979,5.639
	c2.895,4.73,14.05,22.96,14.05,22.96l-11.54,8.155c0,0-11.154-18.229-14.054-22.958c-1.519,1.073-4.298,3.037-6.268,4.431
	l0.086,0.181c0,0-0.626,0.35-1.577,0.87c-0.473,0.337-0.767,0.548-0.767,0.548l-0.053-0.092c-2.185,1.213-5.319,2.942-7.022,3.889
	c2.411,5.028,11.706,24.425,11.706,24.425l-12.272,6.803c0,0-9.303-19.399-11.712-24.428c-2.008,1.104-6.078,3.357-8.01,4.434
	c0.869,1.821,1.715,3.934,2.541,6.43c2.729,8.325,3.256,13.865,1.648,17.427c-1.627,3.587-5.894,6.527-13.824,9.53
	c-7.117,2.704-11.987,3.21-15.306,1.588c-3.372-1.645-6.081-5.869-8.52-13.296c-2.869-8.726-3.435-14.235-1.85-17.874
	c1.596-3.661,5.893-6.652,13.925-9.7h0.006c7.153-2.711,12.027-3.174,15.352-1.459c0.604,0.315,1.178,0.743,1.738,1.232
	l-2.416-5.052l27.617-15.288l0.986-0.55l24.656-17.422l2.967-2.093l3.304,5.416c-0.231-1.128-0.306-2.184-0.216-3.171
	c0.363-4.023,3.482-8.385,10.111-14.144c5.894-5.124,10.347-7.312,14.014-6.888c3.655,0.421,7.584,3.575,12.363,9.915
	C537.453,505.664,539.67,510.696,539.26,514.637z M400.01,405.74h40.201l28.257,72.689l-37.408,2.569L400.01,405.74z
	 M523.157,311.644l36.918,0.684v-6.839c-15.173-2.096-35.007-0.928-35.007-0.928v-17.539c0,0,59.183,1.371,77.646,6.157
	l-1.274,14.36c0,0-19.261-3.174-22.275-1.769v7.926c0,0,21.644,2.05,25.457,3.42l-0.636,14.346l-22.274-2.035l-0.636,25.979
	l-19.734,8.208l-0.635-35.555h-37.549V311.644z M606.533,358.827h-13.362l-7.007-25.304l13.366,0.688L606.533,358.827z
	 M555.617,331.472l-8.274,29.405h-23.551l10.826-29.405H555.617z M517.431,423.791l5.727,4.105l15.914-44.45h-14.645v-16.415
	l82.106-2.055v12.314l-6.368,10.944h6.368l-1.912,20.513l-13.996,17.096l-18.464,3.415v-14.359l19.098-3.417v-8.205l-8.912,0.682
	V391.65l7.001-10.94l-28.007,2.051L544.156,432h-8.909l4.46,5.466c0,0,60.46-5.466,68.098-13.675l-4.453,17.779
	c0,0-29.277,12.995-77.646,14.359l-10.185-6.152l-24.181,15.042c0,0,4.447-95.054,3.177-103.942h-7.638v-23.253h31.189
	C518.067,337.625,521.25,375.922,517.431,423.791z M499.61,284.976c10.016,0,18.137,8.722,18.137,19.486
	c0,10.765-8.12,19.493-18.137,19.493c-10.022,0-18.142-8.728-18.142-19.493C481.469,293.697,489.588,284.976,499.61,284.976z
	 M292.126,357.455h52.187v-56.751h38.185v56.751h87.195l-13.356,31.46l-72.557,0.001v67.014l-28.005,30.776h-39.462V457.98h29.277
	v-69.744h-91.655c0,0-6.344-20.514-6.344-62.917c0-42.397,6.344-64.965,6.344-64.965s87.835-15.04,193.608,4.11l-7.644,25.948
	c0,0-89.851-11.592-147.134-0.652c0,0-4.464,12.994-4.464,34.193C288.301,345.151,292.126,357.455,292.126,357.455z
	 M287.188,148.742l0.913-14.202l16.431-31.371l15.578-3.099l-18.566,34.647l5.913-1.227l6.718-11.889l15.643-3.203l-24.587,44.586
	l18.64-4.033l-0.594,12.503l-36.366,7.987l0.656-10.327l13.331-23.264L287.188,148.742z M383.364,120.265l-0.142,11.905
	l-15.112,31.414l2.628,4.015c0.98,1.494,1.723,2.368,2.222,2.628c0.498,0.249,1.705,0.164,3.607-0.26l9.134-2.667l-0.267,13.762
	l-11.439,2.567c-2.948,0.667-5.385,0.24-6.919,0.443c-1.523,0.2-3.058-0.731-4.593-2.782l-2.906-3.844l-3.499,4.909
	c-0.93,1.313-2.059,2.574-3.378,3.795c-1.324,1.219-3.262,2.12-5.814,2.707l-5.462,1.23l0.479-12.398l1.513-0.333
	c2.111-0.474,3.602-1.458,4.469-2.952l5.263-9.246l-9.858-18.975l-3.861,31.845c-0.625,5.063-1.513,8.558-2.646,10.485
	c-1.135,1.931-3.702,3.358-7.695,4.255l-5.688,1.29l0.568-12.004l1.029-0.229c0.576-0.127,1.06-0.581,1.438-1.354
	c0.371-0.776,0.703-2.306,0.987-4.598l7.349-63.301l12.969-2.636l-4.128,31.812l11.092-2.407l6.623,12.187l7.664-16.547
	l-14.034,2.98l0.394-11.602l11.969-24.013l-40.107,8.07l0.548-11.671l55.926-11.081l-0.194,9.402l-14.018,26.146L383.364,120.265z
	 M321.328,183.017l-0.61,12.616l-36.582,8.29l0.825-12.796L321.328,183.017z M236.26,148.942c1.687-0.378,2.741-1.614,3.178-3.719
	l3.289-16.721l-6.136,1.287l0.92-10.919l39.865-8.231l-1.775,28.734c-0.099,1.559-0.368,3.378-0.813,5.442
	c-0.448,2.076-1.277,3.778-2.485,5.119c-1.208,1.352-4.065,2.522-8.572,3.539l-6.297,1.417l0.783-10.935l2.721-0.597
	c1.135-0.251,1.807-0.896,2.027-1.938c0.209-1.036,0.348-2.074,0.419-3.093l0.989-14.401l-9.051,1.913l-4.659,22.018
	c-0.342,1.539-0.793,2.946-1.355,4.221c-0.567,1.27-1.376,2.512-2.425,3.727c-1.052,1.208-2.995,2.136-5.846,2.773l-7.391,1.67
	l0.925-10.931L236.26,148.942z M275.564,153.809l-1.355,22.043c-0.259,4.114-1.424,7.5-3.514,10.167
	c-2.09,2.67-5.394,4.562-9.895,5.654l-29.856,7.249l2.995-35.676L275.564,153.809z M180.027,216.779l0.59-0.144
	c0.934-0.235,1.554-0.692,1.874-1.374c0.32-0.692,0.567-1.519,0.742-2.508c0.177-0.985,0.282-1.662,0.325-2.042l3.33-30.725
	l12.742-2.92l-2.563,25.28c-0.069,0.632-0.089,1.19-0.073,1.682c0.015,0.484,0.325,1.106,0.919,1.853
	c0.593,0.751,1.171,1.111,1.717,1.092l3.751,0.071l3.418-34.961l-21.85,4.983l1.267-11.58l15.704-3.5l1.865-18.449l-15.73,3.373
	l1.228-11.258l15.632-3.282l0.872-8.612l13.1-2.697l-0.803,8.553l15.715-3.293l-0.94,10.977l-15.82,3.396L215.314,159l16.24-3.617
	l-0.966,11.283l-10.737,2.447l-0.808,8.942l11.092-2.579l-0.988,11.639l-11.176,2.656l-1.576,17.316l60.507-14.074l-0.535,13.352
	l-68.639,15.261c-2.222,0.558-4.401,0.761-6.545,0.609c-2.143-0.149-3.455-0.366-3.949-0.655l-2.012-1.111l-2.82,3.157
	c-1.734,1.916-4.387,3.333-7.963,4.23l-5.787,1.453L180.027,216.779z M102.614,360.816c-4.906,0.438-9.517-7.448-10.305-17.612
	c-0.784-10.159,2.551-18.75,7.458-19.193c4.9-0.435,9.517,7.45,10.304,17.61C110.854,351.785,107.514,360.377,102.614,360.816z
	 M140.01,450.46l-24.817-8.487c0,0,8.066-43.419,23.227-91.709l-25.135,1.724c3.178-7.518-1.276-21.883-1.276-21.883l33.73-3.419
	l0.575-0.033c5.663-15.875,12.059-31.608,19.153-45.875l29.277-1.957c0,0-8.21,17.712-18.755,46.075
	c20.418-1.084,56.309-1.625,56.309-1.625l-10.819,25.297c-9.55-2.049-49.646,0.682-49.646,0.682
	c21.639,50.604,64.279,112.831,64.279,112.831l-34.361-3.41c-2.524-2.263-27.23-48.916-43.733-80.372
	C151.345,400.452,144.946,424.979,140.01,450.46z M189.429,536.358c-2.962-0.39-6.712-2.773-12.185-7.737
	c-4.896-4.443-7.575-7.917-8.425-10.929c-1.009-3.542,0.068-7.352,3.151-11.271l2.995-3.991c0,0,1.512,1.381,2.221,2.027
	c-0.005-0.173-0.062-0.326-0.062-0.491c0-2.649,1.203-5.48,3.629-8.56c3.142-3.995,6.493-5.767,9.968-5.256
	c2.953,0.432,6.625,2.716,11.551,7.188c4.664,4.235,7.275,7.563,8.208,10.464c0.789,2.432,0.974,6.293-2.604,10.83l-3.015,4.009
	c0,0-0.988-0.896-1.807-1.643c0.053,0.377,0.147,0.746,0.147,1.127c0,2.613-1.15,5.396-3.441,8.304
	C196.274,534.867,192.897,536.807,189.429,536.358z M223.844,560.666c-3.174,0.206-7.307-1.513-13-5.439
	c-5.935-4.091-9.271-7.43-10.49-10.513c-1.396-3.512-0.614-7.775,2.322-12.691l11.245-18.851l1.913-3.212l11.628,8.003
	l-13.158,22.064c-0.361,0.604-0.557,1.035-0.662,1.315c0.41,0.438,1.329,1.293,3.467,2.768c2.138,1.472,3.257,2.024,3.814,2.255
	c0.22-0.248,0.541-0.664,0.977-1.396l13.036-21.861l11.63,8.019l-12.975,21.751C230.598,557.879,227.416,560.431,223.844,560.666z
	 M246.335,535.24l1.491-3.467l17.765,8.832c5.257,2.616,8.314,5.276,9.606,8.386c1.35,3.254,0.934,7.34-1.281,12.485
	c-2.207,5.135-4.786,8.083-7.874,9.014c-2.92,0.878-6.743,0.066-11.996-2.547c0,0-1.418-0.683-1.465-0.706
	c0,0-1.997-0.993-3.955-1.965c-1.229,2.862-4.17,9.684-4.17,9.684l-12.539-6.224L246.335,535.24z"/>
<path fill="#F5DE50" d="M273.988,407.308c-15.152,0-27.439,13.199-27.439,29.475c0,16.278,12.286,29.477,27.439,29.477
	c15.154,0,27.435-13.197,27.435-29.477C301.422,420.507,289.142,407.308,273.988,407.308z M273.988,459.633
	c-11.743,0-21.266-10.229-21.266-22.851c0-12.615,9.523-22.839,21.266-22.839c11.74,0,21.258,10.224,21.258,22.839
	C295.245,449.404,285.727,459.633,273.988,459.633z"/>
<path fill="#F5DE50" d="M260.532,556.671c0.173-0.271,0.405-0.686,0.698-1.363c0.42-0.974,0.635-1.63,0.756-2.059
	c-0.424-0.306-1.139-0.752-2.347-1.352c0,0-2.211-1.1-4.333-2.153c-0.709,1.661-0.913,2.136-1.628,3.79
	c1.817,0.903,3.719,1.849,3.719,1.849C259.088,556.218,260.012,556.538,260.532,556.671z"/>
</svg>
