<?xml version="1.0" encoding="utf-8"?>
<!-- Generator: Adobe Illustrator 16.0.0, SVG Export Plug-In . SVG Version: 6.00 Build 0)  -->
<!DOCTYPE svg PUBLIC "-//W3C//DTD SVG 1.1//EN" "http://www.w3.org/Graphics/SVG/1.1/DTD/svg11.dtd">
<svg version="1.1" id="图层_1" xmlns="http://www.w3.org/2000/svg" xmlns:xlink="http://www.w3.org/1999/xlink" x="0px" y="0px"
	 width="654px" height="654px" viewBox="0 0 654 654" enable-background="new 0 0 654 654" xml:space="preserve">
<path fill="#6185C4" d="M310.385,0.088c77.246-1.681,136.263,16.475,182.528,45.892c1.248,0.313,2.496,0.625,3.744,0.937
	c0.312,0.624,0.624,1.249,0.936,1.873c0.624,0,1.249,0,1.873,0c0,0.312,0,0.625,0,0.937c0.623,0,1.248,0,1.872,0
	c0,0.312,0,0.624,0,0.936c0.937,0.313,1.872,0.625,2.809,0.937c0.312,0.624,0.623,1.249,0.936,1.873c0.624,0,1.248,0,1.872,0
	c0,0.312,0,0.625,0,0.937c0.936,0.312,1.872,0.624,2.808,0.936c0.313,0.625,0.624,1.249,0.937,1.874c0.624,0,1.248,0,1.872,0
	c0.624,0.937,1.248,1.873,1.872,2.809c0.624,0,1.248,0,1.872,0c0,0.312,0,0.625,0,0.937c0.936,0.312,1.871,0.624,2.808,0.936
	c0.312,0.625,0.624,1.249,0.936,1.874c0.624,0,1.249,0,1.872,0c0.313,0.624,0.625,1.248,0.938,1.873c0.312,0,0.624,0,0.936,0
	c0.313,0.624,0.624,1.249,0.937,1.873c0.624,0,1.248,0,1.872,0c0.936,1.249,1.872,2.498,2.808,3.746c0.624,0,1.248,0,1.872,0
	c0.313,0.625,0.624,1.249,0.936,1.873c0.313,0,0.624,0,0.937,0c0.312,0.625,0.624,1.249,0.936,1.874c0.624,0,1.248,0,1.872,0
	c0.937,1.248,1.872,2.497,2.809,3.746c0.624,0,1.248,0,1.872,0c2.808,3.122,5.616,6.244,8.425,9.366c0.624,0,1.248,0,1.872,0
	c1.56,1.873,3.12,3.746,4.68,5.619c3.432,3.122,6.865,6.245,10.296,9.366c0,0.625,0,1.249,0,1.873
	c2.809,2.498,5.617,4.996,8.425,7.493c0,0.624,0,1.249,0,1.873c1.561,1.249,3.12,2.498,4.681,3.747c0,0.624,0,1.248,0,1.873
	c1.248,0.936,2.496,1.873,3.744,2.809c0,0.625,0,1.249,0,1.874c1.248,0.936,2.495,1.873,3.743,2.809c0,0.625,0,1.249,0,1.874
	c0.937,0.624,1.872,1.248,2.809,1.873c0,0.624,0,1.249,0,1.873c0.624,0.312,1.249,0.624,1.873,0.937c0,0.624,0,1.248,0,1.873
	c0.935,0.624,1.872,1.249,2.808,1.873c0,0.624,0,1.249,0,1.873c0.624,0.312,1.248,0.624,1.872,0.937c0,0.624,0,1.248,0,1.873
	c0.937,0.624,1.872,1.249,2.808,1.873c0.313,1.249,0.624,2.498,0.937,3.746c0.624,0.312,1.248,0.625,1.872,0.937
	c0,0.624,0,1.249,0,1.873c0.624,0.312,1.248,0.624,1.872,0.937c0,0.624,0,1.248,0,1.873c0.624,0.312,1.248,0.624,1.872,0.936
	c0,0.625,0,1.249,0,1.874c0.312,0,0.624,0,0.936,0c0,0.624,0,1.248,0,1.873c0.624,0.312,1.248,0.624,1.872,0.936
	c0.313,1.249,0.624,2.498,0.937,3.747c0.624,0.312,1.248,0.624,1.871,0.936c0,0.625,0,1.249,0,1.873c0.313,0,0.625,0,0.937,0
	c0,0.625,0,1.249,0,1.874c0.312,0,0.624,0,0.936,0c0,0.624,0,1.248,0,1.873c0.313,0,0.625,0,0.937,0c0,0.624,0,1.249,0,1.873
	c0.312,0,0.625,0,0.937,0c0,0.624,0,1.249,0,1.873c0.623,0.312,1.248,0.625,1.872,0.937c0.624,1.873,1.248,3.746,1.872,5.619
	c0.313,0,0.624,0,0.937,0c0,0.625,0,1.249,0,1.873c0.312,0,0.624,0,0.936,0c0.624,1.873,1.248,3.747,1.872,5.62
	c0.313,0,0.624,0,0.937,0c0,0.936,0,1.873,0,2.81c0.312,0,0.623,0,0.936,0c0,0.624,0,1.248,0,1.873c0.313,0,0.624,0,0.936,0
	c0.313,1.248,0.624,2.497,0.937,3.746c0.312,0,0.624,0,0.936,0c0,0.937,0,1.873,0,2.81c0.313,0,0.624,0,0.937,0
	c0.312,1.249,0.624,2.498,0.936,3.746c0.313,0,0.624,0,0.937,0c0,0.937,0,1.874,0,2.81c13.138,29.814,22.879,68.488,23.4,110.517
	c0.103,8.211,2.286,20.008,0,28.098c0,4.371,0,8.742,0,13.112c-0.312,0-0.624,0-0.936,0c0,2.81,0,5.62,0,8.429
	c-0.312,0-0.624,0-0.937,0c0,2.498,0,4.996,0,7.494c-0.312,0-0.623,0-0.936,0c0,2.185,0,4.371,0,6.555c-0.312,0-0.624,0-0.936,0
	c0,1.873,0,3.746,0,5.619c-0.313,0-0.624,0-0.937,0c0,1.562,0,3.123,0,4.684c-0.312,0-0.624,0-0.936,0c0,1.561,0,3.122,0,4.684
	c-0.313,0-0.624,0-0.937,0c0,1.248,0,2.497,0,3.746c-0.312,0-0.624,0-0.936,0c0,1.561,0,3.122,0,4.684c-0.313,0-0.624,0-0.937,0
	c0,1.248,0,2.497,0,3.746c-0.312,0-0.624,0-0.936,0c0,1.249,0,2.498,0,3.746c-0.313,0-0.624,0-0.937,0
	c-0.312,2.185-0.624,4.37-0.936,6.556c-0.313,0-0.624,0-0.937,0c-0.312,2.185-0.624,4.371-0.936,6.556c-0.313,0-0.624,0-0.937,0
	c0,0.938,0,1.874,0,2.811c-0.312,0-0.623,0-0.936,0c0,0.937,0,1.873,0,2.81c-0.313,0-0.625,0-0.936,0c0,0.937,0,1.873,0,2.81
	c-0.313,0-0.625,0-0.938,0c0,0.937,0,1.873,0,2.81c-0.312,0-0.624,0-0.936,0c-0.313,1.873-0.624,3.747-0.937,5.62
	c-0.312,0-0.624,0-0.936,0c0,0.624,0,1.249,0,1.873c-0.313,0-0.624,0-0.937,0c0,0.937,0,1.873,0,2.81c-0.312,0-0.624,0-0.936,0
	c-0.313,1.562-0.624,3.122-0.937,4.684c-0.312,0-0.624,0-0.936,0c0,0.624,0,1.249,0,1.873c-0.313,0-0.624,0-0.937,0
	c0,0.936,0,1.872,0,2.81c-0.312,0-0.624,0-0.936,0c-0.313,1.248-0.624,2.497-0.937,3.746c-0.312,0-0.624,0-0.936,0
	c-0.313,1.561-0.624,3.122-0.937,4.683c-0.312,0-0.623,0-0.936,0c-0.624,1.873-1.248,3.747-1.872,5.619c-0.312,0-0.624,0-0.936,0
	c0,0.625,0,1.249,0,1.874c-0.313,0-0.624,0-0.937,0c0,0.624,0,1.249,0,1.873c-0.312,0-0.624,0-0.936,0c0,0.624,0,1.249,0,1.873
	c-0.313,0-0.624,0-0.937,0c0,0.624,0,1.249,0,1.873c-0.312,0-0.624,0-0.936,0c0,0.624,0,1.249,0,1.873c-0.313,0-0.624,0-0.937,0
	c0,0.625,0,1.249,0,1.874c-0.312,0-0.624,0-0.936,0c0,0.624,0,1.248,0,1.873c-0.313,0-0.624,0-0.937,0c0,0.624,0,1.249,0,1.873
	c-0.624,0.312-1.249,0.624-1.873,0.936c0,0.625,0,1.249,0,1.874c-0.312,0-0.624,0-0.936,0c0,0.624,0,1.248,0,1.873
	c-0.312,0-0.624,0-0.937,0c0,0.624,0,1.249,0,1.873c-0.312,0-0.623,0-0.936,0c0,0.624,0,1.249,0,1.873
	c-0.624,0.313-1.248,0.625-1.872,0.938c0,0.624,0,1.249,0,1.873c-0.312,0-0.624,0-0.936,0c0,0.623,0,1.248,0,1.872
	c-0.313,0-0.624,0-0.937,0c-0.312,0.938-0.624,1.873-0.936,2.811c-0.624,0.312-1.248,0.624-1.872,0.936
	c-0.313,1.249-0.624,2.498-0.937,3.747c-0.312,0-0.624,0-0.936,0c-0.313,0.937-0.624,1.873-0.937,2.81
	c-0.624,0.313-1.248,0.625-1.872,0.937c0,0.624,0,1.249,0,1.873c-0.936,0.625-1.871,1.249-2.808,1.873c0,0.625,0,1.249,0,1.874
	c-0.312,0-0.624,0-0.936,0c-0.313,0.937-0.624,1.873-0.937,2.81c-0.624,0.313-1.248,0.625-1.872,0.937c0,0.624,0,1.249,0,1.873
	c-0.936,0.624-1.873,1.249-2.809,1.873c0,0.625,0,1.249,0,1.873c-0.937,0.625-1.872,1.249-2.809,1.874c0,0.624,0,1.248,0,1.873
	c-0.936,0.624-1.872,1.249-2.808,1.873c0,0.624,0,1.249,0,1.873c-1.56,1.249-3.12,2.498-4.68,3.746c0,0.625,0,1.249,0,1.874
	c-1.561,1.247-3.12,2.497-4.681,3.745c0,0.624,0,1.249,0,1.873c-2.808,2.497-5.616,4.996-8.425,7.493c0,0.624,0,1.249,0,1.873
	c-1.559,1.249-3.12,2.498-4.68,3.746c-2.809,3.122-5.616,6.245-8.424,9.366c-0.624,0-1.248,0-1.872,0
	c-3.433,3.746-6.865,7.493-10.297,11.239c-0.624,0-1.248,0-1.872,0c-0.937,1.249-1.872,2.498-2.809,3.747c-0.624,0-1.248,0-1.872,0
	c-0.936,1.248-1.872,2.496-2.808,3.745c-0.624,0-1.248,0-1.872,0c-0.936,1.249-1.872,2.498-2.808,3.746c-0.624,0-1.248,0-1.872,0
	c-0.624,0.938-1.248,1.874-1.872,2.811c-0.624,0-1.249,0-1.873,0c-0.624,0.936-1.248,1.873-1.872,2.81c-0.624,0-1.248,0-1.872,0
	c-0.313,0.624-0.624,1.249-0.936,1.873c-0.624,0-1.248,0-1.872,0c-0.624,0.937-1.248,1.873-1.872,2.811c-0.624,0-1.248,0-1.872,0
	c-0.313,0.624-0.624,1.249-0.937,1.873c-0.624,0-1.248,0-1.872,0c-0.312,0.624-0.624,1.249-0.936,1.873
	c-0.937,0.312-1.872,0.623-2.808,0.937c0,0.312,0,0.624,0,0.937c-1.248,0.312-2.497,0.625-3.744,0.937c0,0.312,0,0.624,0,0.936
	c-0.937,0.313-1.873,0.625-2.81,0.938c-0.312,0.624-0.624,1.249-0.936,1.873c-1.248,0.312-2.496,0.625-3.744,0.937
	c-0.313,0.624-0.624,1.249-0.937,1.873c-0.624,0-1.248,0-1.871,0c0,0.313,0,0.624,0,0.937c-0.624,0-1.248,0-1.872,0
	c0,0.313,0,0.625,0,0.937c-0.624,0-1.248,0-1.872,0c0,0.313,0,0.624,0,0.938c-0.624,0-1.248,0-1.872,0c0,0.312,0,0.624,0,0.936
	c-0.624,0-1.248,0-1.872,0c-0.313,0.625-0.624,1.249-0.937,1.873c-0.624,0-1.248,0-1.872,0c0,0.313,0,0.625,0,0.938
	c-0.624,0-1.248,0-1.871,0c0,0.312,0,0.624,0,0.937c-0.625,0-1.25,0-1.873,0c0,0.313,0,0.624,0,0.937c-0.623,0-1.248,0-1.872,0
	c0,0.312,0,0.625,0,0.937c-0.624,0-1.248,0-1.872,0c0,0.313,0,0.624,0,0.937c-0.624,0-1.248,0-1.872,0c0,0.312,0,0.625,0,0.937
	c-0.624,0-1.248,0-1.872,0c0,0.313,0,0.624,0,0.937c-0.624,0-1.248,0-1.872,0c0,0.313,0,0.625,0,0.937
	c-1.872,0.624-3.744,1.249-5.616,1.873c0,0.312,0,0.625,0,0.937c-0.936,0-1.872,0-2.808,0c0,0.313,0,0.624,0,0.937
	c-0.624,0-1.248,0-1.872,0c0,0.313,0,0.625,0,0.937c-0.937,0-1.873,0-2.809,0c0,0.313,0,0.624,0,0.938
	c-1.248,0.312-2.497,0.624-3.744,0.936c0,0.313,0,0.625,0,0.938c-0.937,0-1.872,0-2.809,0c0,0.312,0,0.624,0,0.936
	c-0.624,0-1.248,0-1.872,0c0,0.313,0,0.625,0,0.938c-1.872,0.312-3.744,0.624-5.616,0.937c0,0.313,0,0.624,0,0.937
	c-0.624,0-1.248,0-1.871,0c0,0.312,0,0.625,0,0.937c-2.809,0.624-5.617,1.249-8.426,1.873c0,0.313,0,0.624,0,0.937
	c-0.935,0-1.872,0-2.808,0c0,0.313,0,0.625,0,0.937c-0.937,0-1.872,0-2.808,0c0,0.313,0,0.624,0,0.938
	c-2.185,0.312-4.368,0.624-6.553,0.936c0,0.313,0,0.625,0,0.938c-2.184,0.312-4.368,0.624-6.552,0.936c0,0.313,0,0.625,0,0.937
	c-1.248,0-2.497,0-3.745,0c0,0.313,0,0.625,0,0.938c-4.055,0.624-8.112,1.248-12.168,1.873c0,0.312,0,0.624,0,0.936
	c-1.56,0-3.12,0-4.68,0c-4.909,1.488-11.808,2.3-16.85,3.747c-2.184,0-4.367,0-6.552,0c0,0.313,0,0.624,0,0.937
	c-4.368,0.312-8.737,0.625-13.104,0.937c-3.433,0-6.864,0-10.296,0c0,0.313,0,0.624,0,0.937c-3.12,0-6.241,0-9.361,0
	c-7.507,0.006-17.447,0.748-23.401-0.937c-4.679,0-9.361,0-14.04,0c0-0.312,0-0.625,0-0.937c-3.12,0-6.241,0-9.361,0
	c-7.099-2.051-16.451-2.546-23.401-4.684c-1.56,0-3.12,0-4.68,0c0-0.312,0-0.624,0-0.936c-1.248,0-2.496,0-3.744,0
	c0-0.313,0-0.625,0-0.938c-2.808-0.312-5.617-0.623-8.424-0.936c0-0.313,0-0.625,0-0.938c-0.936,0-1.873,0-2.809,0
	c0-0.312,0-0.623,0-0.937c-2.495-0.312-4.992-0.624-7.488-0.936c0-0.313,0-0.625,0-0.938c-0.936,0-1.872,0-2.808,0
	c0-0.312,0-0.624,0-0.936c-0.936,0-1.872,0-2.808,0c0-0.313,0-0.625,0-0.938c-1.248,0-2.496,0-3.744,0c0-0.312,0-0.624,0-0.937
	c-0.936,0-1.873,0-2.808,0c0-0.313,0-0.624,0-0.937c-0.936,0-1.873,0-2.809,0c0-0.312,0-0.625,0-0.937c-0.936,0-1.872,0-2.808,0
	c0-0.313,0-0.624,0-0.937c-0.624,0-1.248,0-1.872,0c0-0.312,0-0.625,0-0.937c-1.872-0.313-3.744-0.624-5.616-0.937
	c0-0.313,0-0.625,0-0.937c-0.624,0-1.248,0-1.872,0c0-0.313,0-0.624,0-0.938c-0.936,0-1.872,0-2.808,0c0-0.312,0-0.624,0-0.936
	c-0.624,0-1.248,0-1.872,0c0-0.313,0-0.625,0-0.938c-0.936,0-1.873,0-2.808,0c0-0.312,0-0.624,0-0.936c-0.624,0-1.249,0-1.873,0
	c0-0.313,0-0.625,0-0.938c-0.935,0-1.872,0-2.808,0c0-0.312,0-0.624,0-0.937c-1.248-0.313-2.496-0.624-3.744-0.937
	c0-0.312,0-0.625,0-0.937c-0.936,0-1.872,0-2.808,0c0-0.312,0-0.624,0-0.937c-1.872-0.625-3.744-1.248-5.616-1.873
	c0-0.313,0-0.624,0-0.937c-0.624,0-1.248,0-1.872,0c0-0.312,0-0.625,0-0.937c-0.624,0-1.248,0-1.872,0c0-0.313,0-0.624,0-0.937
	c-1.872-0.625-3.745-1.249-5.617-1.873c-0.312-0.625-0.624-1.249-0.936-1.874c-0.624,0-1.248,0-1.872,0c0-0.312,0-0.624,0-0.936
	c-0.624,0-1.248,0-1.872,0c0-0.313,0-0.625,0-0.938c-0.624,0-1.248,0-1.872,0c0-0.312,0-0.624,0-0.936c-0.624,0-1.248,0-1.872,0
	c0-0.313,0-0.625,0-0.938c-1.248-0.312-2.496-0.624-3.744-0.937c-0.312-0.624-0.624-1.248-0.936-1.873
	c-1.248-0.313-2.496-0.624-3.744-0.937c0-0.312,0-0.625,0-0.937c-0.936-0.313-1.873-0.624-2.808-0.937
	c-0.312-0.625-0.625-1.249-0.936-1.874c-1.248-0.312-2.497-0.624-3.745-0.936c0-0.312,0-0.625,0-0.937
	c-0.936-0.313-1.872-0.625-2.808-0.937c-0.312-0.625-0.624-1.249-0.936-1.874c-0.624,0-1.248,0-1.872,0c0-0.312,0-0.624,0-0.936
	c-0.936-0.313-1.872-0.625-2.808-0.938c-0.312-0.624-0.624-1.249-0.936-1.873c-0.624,0-1.248,0-1.872,0
	c-0.624-0.936-1.248-1.873-1.872-2.81c-0.624,0-1.248,0-1.872,0c-0.312-0.624-0.624-1.249-0.936-1.873c-0.624,0-1.248,0-1.872,0
	c-0.312-0.624-0.624-1.249-0.936-1.873c-0.936-0.313-1.873-0.624-2.809-0.938c-0.936-1.248-1.872-2.497-2.808-3.746
	c-0.624,0-1.248,0-1.872,0c-0.936-1.249-1.872-2.498-2.808-3.745c-0.624,0-1.248,0-1.872,0c-0.936-1.25-1.872-2.498-2.808-3.747
	c-0.624,0-1.248,0-1.872,0c-1.872-2.186-3.745-4.371-5.616-6.557c-0.624,0-1.249,0-1.873,0c-3.119-3.434-6.24-6.868-9.36-10.302
	c-5.304-4.995-10.609-9.991-15.913-14.986c0-0.624,0-1.248,0-1.873c-1.872-1.561-3.744-3.122-5.616-4.683c0-0.624,0-1.248,0-1.873
	c-1.56-1.248-3.12-2.497-4.68-3.746c0-0.624,0-1.249,0-1.873c-1.248-0.937-2.496-1.874-3.744-2.81c0-0.624,0-1.249,0-1.873
	c-0.936-0.625-1.872-1.249-2.808-1.873c0-0.625,0-1.249,0-1.874c-0.936-0.624-1.873-1.248-2.808-1.873c0-0.624,0-1.249,0-1.873
	c-0.624-0.313-1.249-0.624-1.873-0.937c0-0.625,0-1.248,0-1.873c-0.936-0.625-1.872-1.25-2.808-1.873c0-0.624,0-1.249,0-1.873
	c-0.624-0.313-1.248-0.624-1.872-0.938c0-0.624,0-1.248,0-1.873c-0.624-0.312-1.248-0.624-1.872-0.936c0-0.625,0-1.249,0-1.874
	c-0.624-0.313-1.248-0.624-1.872-0.937c0-0.624,0-1.249,0-1.873c-0.624-0.312-1.248-0.625-1.872-0.937
	c-0.312-1.249-0.624-2.498-0.936-3.746c-0.624-0.313-1.248-0.625-1.872-0.938c-0.312-0.936-0.624-1.873-0.936-2.81
	c-0.312,0-0.624,0-0.936,0c-0.624-1.873-1.248-3.746-1.872-5.619c-0.624-0.312-1.248-0.624-1.872-0.937c0-0.624,0-1.248,0-1.873
	c-0.312,0-0.624,0-0.936,0c0-0.624,0-1.249,0-1.873c-0.312,0-0.624,0-0.936,0c0-0.624,0-1.249,0-1.873c-0.312,0-0.625,0-0.937,0
	c0-0.624,0-1.249,0-1.873c-0.623-0.313-1.248-0.625-1.872-0.938c-0.624-1.873-1.248-3.746-1.872-5.618c-0.312,0-0.624,0-0.936,0
	c0-0.625,0-1.25,0-1.875c-0.312,0-0.624,0-0.936,0c-0.624-1.872-1.248-3.745-1.872-5.618c-0.312,0-0.624,0-0.936,0
	c0-0.938,0-1.873,0-2.811c-0.312,0-0.624,0-0.936,0c0-0.624,0-1.249,0-1.873c-0.312,0-0.624,0-0.936,0
	c-0.312-1.249-0.624-2.498-0.936-3.746c-0.312,0-0.624,0-0.936,0c0-0.937,0-1.874,0-2.81c-0.312,0-0.624,0-0.936,0
	c-0.312-1.249-0.624-2.498-0.936-3.746c-0.312,0-0.624,0-0.936,0c0-0.937,0-1.874,0-2.81c-0.312,0-0.624,0-0.936,0
	c0-0.625,0-1.249,0-1.873c-0.312,0-0.624,0-0.936,0c0-0.938,0-1.874,0-2.811c-0.312,0-0.624,0-0.936,0c0-0.624,0-1.249,0-1.873
	c-0.312,0-0.624,0-0.936,0c-0.312-1.873-0.624-3.747-0.936-5.62c-0.312,0-0.624,0-0.936,0c0-0.624,0-1.249,0-1.873
	c-0.312,0-0.624,0-0.936,0c-0.624-3.122-1.249-6.243-1.873-9.365c-0.312,0-0.624,0-0.936,0c0-0.937,0-1.873,0-2.811
	c-0.312,0-0.624,0-0.936,0c0-0.936,0-1.873,0-2.809c-0.312,0-0.624,0-0.936,0c0-0.938,0-1.874,0-2.811c-0.312,0-0.624,0-0.936,0
	c-0.624-3.746-1.248-7.492-1.872-11.238c-0.312,0-0.624,0-0.936,0c0-1.249,0-2.498,0-3.746c-0.312,0-0.624,0-0.936,0
	c0-1.249,0-2.498,0-3.747c-0.312,0-0.624,0-0.936,0c0-1.562,0-3.122,0-4.683c-0.312,0-0.624,0-0.936,0c0-1.562,0-3.123,0-4.684
	c-0.312,0-0.624,0-0.936,0c0-1.561,0-3.122,0-4.684c-0.312,0-0.624,0-0.936,0c0-1.873,0-3.746,0-5.619c-0.312,0-0.624,0-0.936,0
	c0-1.872,0-3.746,0-5.619c-0.312,0-0.624,0-0.936,0c0-2.497,0-4.995,0-7.492c-0.312,0-0.624,0-0.936,0
	c-0.312-7.18-0.624-14.361-0.936-21.542c-1.957-7.11-2.005-35.062,0-42.146c0-3.434,0-6.869,0-10.303c0.312,0,0.624,0,0.936,0
	c0-2.497,0-4.995,0-7.492c0.312,0,0.624,0,0.936,0c0-2.498,0-4.996,0-7.493c0.312,0,0.624,0,0.936,0c0-1.873,0-3.746,0-5.619
	c0.312,0,0.624,0,0.936,0c0-1.562,0-3.123,0-4.683c0.312,0,0.624,0,0.936,0c0-1.561,0-3.122,0-4.683c0.312,0,0.624,0,0.936,0
	c0-1.561,0-3.122,0-4.683c0.312,0,0.624,0,0.936,0c0-1.561,0-3.122,0-4.683c4.056-13.423,8.113-26.85,12.169-40.273
	c0.312,0,0.624,0,0.936,0c0-0.625,0-1.249,0-1.873c0.312,0,0.624,0,0.936,0c0.312-1.873,0.624-3.747,0.936-5.62
	c0.312,0,0.624,0,0.936,0c0.312-1.249,0.624-2.498,0.936-3.746c0.312,0,0.624,0,0.936,0c0-0.937,0-1.874,0-2.81
	c0.312,0,0.624,0,0.936,0c0.312-1.249,0.624-2.498,0.936-3.746c0.312,0,0.624,0,0.936,0c0-0.937,0-1.874,0-2.81
	c0.312,0,0.624,0,0.936,0c0-0.625,0-1.249,0-1.873c0.312,0,0.624,0,0.936,0c0.312-1.249,0.624-2.498,0.936-3.747
	c0.312,0,0.624,0,0.936,0c0.312-1.248,0.624-2.497,0.936-3.746c0.312,0,0.624,0,0.936,0c0-0.624,0-1.249,0-1.873
	c0.312,0,0.624,0,0.936,0c0-0.625,0-1.249,0-1.873c0.312,0,0.624,0,0.936,0c0-0.625,0-1.249,0-1.874c0.312,0,0.624,0,0.936,0
	c0-0.624,0-1.248,0-1.873c0.312,0,0.624,0,0.936,0c0.624-1.873,1.249-3.746,1.872-5.619c0.624-0.312,1.249-0.625,1.873-0.937
	c0.624-1.873,1.248-3.746,1.872-5.619c0.624-0.313,1.248-0.625,1.872-0.937c0.312-1.249,0.624-2.498,0.936-3.746
	c0.624-0.312,1.248-0.625,1.872-0.937c0-0.624,0-1.249,0-1.873c0.312,0,0.624,0,0.936,0c0-0.624,0-1.249,0-1.873
	c0.624-0.312,1.248-0.625,1.872-0.937c0-0.624,0-1.249,0-1.873c0.624-0.312,1.248-0.624,1.872-0.937c0-0.624,0-1.248,0-1.873
	c0.624-0.312,1.248-0.624,1.872-0.936c0.312-1.249,0.624-2.498,0.936-3.747c0.936-0.624,1.872-1.248,2.808-1.873
	c0-0.624,0-1.249,0-1.873c0.624-0.312,1.248-0.624,1.872-0.937c0-0.624,0-1.248,0-1.873c0.936-0.624,1.873-1.249,2.809-1.873
	c0-0.624,0-1.249,0-1.873c0.935-0.624,1.872-1.249,2.808-1.873c0-0.625,0-1.249,0-1.873c0.936-0.625,1.872-1.249,2.808-1.874
	c0-0.624,0-1.248,0-1.873c1.248-0.936,2.496-1.873,3.744-2.81c0-0.624,0-1.248,0-1.873c1.56-1.248,3.12-2.497,4.68-3.746
	c0-0.624,0-1.249,0-1.873c1.872-1.561,3.744-3.122,5.616-4.683c0-0.624,0-1.249,0-1.873c2.808-2.498,5.617-4.996,8.425-7.493
	c5.615-5.931,11.233-11.864,16.848-17.795c0.624,0,1.249,0,1.873,0c1.871-2.185,3.744-4.371,5.616-6.556c0.624,0,1.248,0,1.872,0
	c0.936-1.249,1.872-2.498,2.808-3.747c0.624,0,1.248,0,1.872,0c0.936-1.248,1.872-2.497,2.808-3.746c0.624,0,1.248,0,1.872,0
	c0.936-1.249,1.872-2.498,2.808-3.746c0.936-0.312,1.873-0.625,2.809-0.937c0.312-0.624,0.624-1.249,0.936-1.873
	c0.624,0,1.248,0,1.872,0c0-0.312,0-0.624,0-0.937c0.936-0.312,1.872-0.624,2.808-0.936c0.312-0.624,0.624-1.249,0.936-1.873
	c0.624,0,1.248,0,1.872,0c0.624-0.937,1.248-1.874,1.872-2.81c0.624,0,1.248,0,1.872,0c0.312-0.624,0.624-1.249,0.936-1.873
	c0.936-0.312,1.872-0.625,2.808-0.937c0-0.312,0-0.624,0-0.936c0.624,0,1.248,0,1.872,0c0.312-0.625,0.624-1.249,0.936-1.874
	c1.248-0.312,2.497-0.624,3.745-0.936c0.311-0.624,0.624-1.249,0.936-1.873c1.247-0.313,2.496-0.625,3.744-0.937
	c0.312-0.624,0.624-1.249,0.936-1.873c0.624,0,1.248,0,1.872,0c0-0.312,0-0.625,0-0.937c0.624,0,1.248,0,1.872,0
	c0.312-0.624,0.624-1.249,0.936-1.873c1.872-0.624,3.744-1.249,5.616-1.873c0.312-0.624,0.624-1.249,0.936-1.873
	c1.248-0.312,2.496-0.625,3.744-0.937c0-0.312,0-0.624,0-0.936c1.248-0.313,2.497-0.625,3.745-0.938c0-0.312,0-0.624,0-0.937
	c0.936,0,1.872,0,2.808,0c0-0.312,0-0.624,0-0.936c1.248-0.312,2.496-0.625,3.744-0.937c0-0.312,0-0.624,0-0.936
	c0.624,0,1.248,0,1.872,0c0-0.312,0-0.625,0-0.937c0.624,0,1.248,0,1.872,0c0-0.312,0-0.624,0-0.936
	c1.872-0.625,3.744-1.249,5.616-1.874c0-0.312,0-0.624,0-0.936c1.56-0.312,3.121-0.625,4.68-0.937c0-0.312,0-0.624,0-0.936
	c0.624,0,1.249,0,1.873,0c0-0.313,0-0.625,0-0.937c0.935,0,1.872,0,2.808,0c0-0.312,0-0.624,0-0.937c0.624,0,1.248,0,1.872,0
	c0-0.312,0-0.624,0-0.936c1.872-0.312,3.744-0.625,5.616-0.937c0-0.312,0-0.624,0-0.936c0.624,0,1.248,0,1.872,0
	c0-0.312,0-0.625,0-0.937c1.872-0.312,3.744-0.624,5.616-0.936c11.824-5.149,26.377-8.036,39.314-12.176c1.56,0,3.12,0,4.68,0
	c0-0.312,0-0.625,0-0.937c1.872,0,3.745,0,5.616,0c0-0.312,0-0.624,0-0.936c1.872,0,3.745,0,5.617,0c0-0.312,0-0.625,0-0.937
	c1.872,0,3.744,0,5.616,0c0-0.312,0-0.624,0-0.936c2.496,0,4.992,0,7.488,0c0-0.313,0-0.625,0-0.937c2.808,0,5.617,0,8.425,0
	c0-0.312,0-0.624,0-0.937C300.648-0.199,307.536,2.623,310.385,0.088z M453.6,476.81c-0.143-7.099,0.224-12.804,1.872-17.795
	c0-1.249,0-2.498,0-3.747c0.313,0,0.624,0,0.937,0c0-0.624,0-1.249,0-1.873c0.312,0,0.624,0,0.936,0c0-0.936,0-1.872,0-2.81
	c0.313,0,0.624,0,0.937,0c1.124-2.295,2.228-4.998,2.808-7.492c-18.784,0.337-34.703-1.38-47.738-6.556
	c-1.872-0.313-3.744-0.625-5.615-0.938c0-0.312,0-0.624,0-0.937c-0.624,0-1.249,0-1.873,0c0-0.313,0-0.624,0-0.937
	c-0.937,0-1.872,0-2.809,0c0-0.312,0-0.625,0-0.937c-1.248-0.313-2.496-0.624-3.744-0.937c0-0.313,0-0.625,0-0.937
	c-1.248-0.312-2.496-0.624-3.743-0.937c0-0.313,0-0.624,0-0.937c-0.937-0.312-1.872-0.625-2.809-0.937
	c-0.312-0.624-0.624-1.249-0.936-1.873c-0.624,0-1.248,0-1.872,0c-0.313-0.624-0.624-1.249-0.937-1.873c-0.624,0-1.248,0-1.872,0
	c-1.248-1.562-2.497-3.122-3.744-4.684c-0.624,0-1.248,0-1.872,0c-1.248-1.561-2.496-3.122-3.744-4.683
	c-0.624-0.313-1.248-0.624-1.872-0.937c0-0.625,0-1.249,0-1.874c-1.561-1.247-3.12-2.497-4.681-3.745c0-10.614,0-21.23,0-31.844
	c0.313,0,0.624,0,0.937,0c0,0.312,0,0.625,0,0.937c1.935,1.608,2.228,3.499,3.744,5.618c1.248,0.938,2.496,1.873,3.744,2.811
	c0,0.624,0,1.249,0,1.873c1.56,1.249,3.121,2.498,4.68,3.746c2.496,2.811,4.993,5.62,7.489,8.43c0.624,0,1.248,0,1.872,0
	c0.624,0.937,1.248,1.873,1.872,2.811c0.936,0.312,1.872,0.624,2.808,0.936c0.312,0.624,0.624,1.249,0.936,1.873
	c1.248,0.313,2.496,0.625,3.744,0.938c0.313,0.624,0.624,1.249,0.937,1.873c1.248,0.312,2.497,0.623,3.745,0.937
	c0,0.312,0,0.624,0,0.937c0.623,0,1.248,0,1.872,0c0,0.312,0,0.625,0,0.937c1.87,0.624,3.743,1.249,5.615,1.873
	c0,0.312,0,0.624,0,0.937c1.872,0.313,3.744,0.624,5.616,0.937c19.276,7.535,47.325,4.61,61.779-5.619
	c0.936-1.249,1.872-2.498,2.808-3.747c1.872-1.561,3.744-3.122,5.616-4.683c0-0.624,0-1.249,0-1.873
	c0.624-0.313,1.248-0.624,1.872-0.937c0-0.625,0-1.249,0-1.874c0.312,0,0.624,0,0.936,0c0.624-1.872,1.248-3.745,1.872-5.618
	c0.313,0,0.624,0,0.937,0c0-0.938,0-1.873,0-2.811c0.312,0,0.624,0,0.936,0c0.313-2.497,0.624-4.995,0.937-7.493
	c0.312,0,0.625,0,0.937,0c0-2.185,0-4.37,0-6.556c0.312,0,0.624,0,0.937,0c1.696-6.049-0.639-17.706-1.873-21.541
	c-0.313-2.497-0.624-4.995-0.937-7.493c-0.312,0-0.624,0-0.936,0c0-0.624,0-1.249,0-1.873c-0.313,0-0.624,0-0.937,0
	c-0.624-1.873-1.248-3.746-1.872-5.619c-3.12-3.434-6.239-6.868-9.359-10.303c-0.624,0-1.248,0-1.872,0
	c-0.313-0.624-0.624-1.249-0.937-1.873c-0.624,0-1.248,0-1.872,0c-0.312-0.624-0.624-1.249-0.936-1.873
	c-1.561-0.312-3.121-0.625-4.681-0.937c0-0.312,0-0.624,0-0.936c-0.624,0-1.248,0-1.872,0c0-0.313,0-0.625,0-0.937
	c-0.937,0-1.872,0-2.809,0c0-0.312,0-0.624,0-0.937c-1.248,0-2.496,0-3.744,0c0-0.312,0-0.624,0-0.936c-1.871,0-3.743,0-5.615,0
	c0-0.312,0-0.625,0-0.937c-3.12,0-6.241,0-9.361,0c-6.235-1.734-16.54-0.936-24.337-0.936c-15.599,0-31.203,0-46.802,0
	c0-38.084,0-76.18,0-114.264c3.604-1.314,9.939-0.936,14.977-0.936c9.983,0,19.97,0,29.953,0c34.006,0,68.023,0,102.029,0
	c0-0.313,0-0.625,0-0.937c-4.84-4.762-2.165-17.805-1.872-25.288c-3.433-1.248-6.865-2.497-10.297-3.746c0-0.312,0-0.624,0-0.937
	c-0.937,0-1.872,0-2.809,0c0-0.312,0-0.624,0-0.936c-0.624,0-1.248,0-1.872,0c0-0.312,0-0.625,0-0.937c-0.936,0-1.872,0-2.808,0
	c0-0.312,0-0.624,0-0.936c-0.937,0-1.872,0-2.808,0c0-0.313,0-0.625,0-0.937c-0.937,0-1.872,0-2.809,0c0-0.312,0-0.624,0-0.937
	c-0.936,0-1.873,0-2.809,0c0-0.313,0-0.624,0-0.937c-1.247,0-2.496,0-3.744,0c0-0.312,0-0.625,0-0.937c-1.248,0-2.496,0-3.744,0
	c0-0.313,0-0.624,0-0.936c-1.248,0-2.496,0-3.744,0c0-0.313,0-0.625,0-0.937c-3.432-0.312-6.865-0.624-10.296-0.937
	c0-0.312,0-0.624,0-0.936c-2.184,0-4.369,0-6.553,0c0-0.312,0-0.625,0-0.937c-3.12,0-6.24,0-9.36,0
	c-8.052-0.004-18.801-0.908-25.272,0.937c-2.185,0-4.369,0-6.554,0c0,0.312,0,0.624,0,0.936c-3.119,0.313-6.239,0.625-9.359,0.937
	c0,0.312,0,0.624,0,0.937c-2.496,0.312-4.992,0.624-7.488,0.936c0,0.312,0,0.625,0,0.937c-1.248,0-2.497,0-3.744,0
	c0,0.313,0,0.624,0,0.937c-0.936,0-1.873,0-2.809,0c0,0.313,0,0.625,0,0.937c-0.937,0-1.872,0-2.809,0c0,0.312,0,0.624,0,0.937
	c-0.936,0-1.872,0-2.808,0c0,0.312,0,0.624,0,0.936c-1.872,0.312-3.744,0.625-5.616,0.937c0,0.312,0,0.624,0,0.936
	c-0.624,0-1.248,0-1.872,0c0,0.313,0,0.625,0,0.937c-0.936,0-1.872,0-2.808,0c0,0.312,0,0.624,0,0.937
	c-1.872,0.624-3.745,1.248-5.617,1.873c0,0.312,0,0.624,0,0.936c-0.623,0-1.248,0-1.872,0c0,0.312,0,0.625,0,0.937
	c-1.871,0.624-3.744,1.249-5.616,1.873c-0.312,0.624-0.624,1.249-0.936,1.873c-1.872,0.625-3.744,1.249-5.616,1.873
	c0,0.313,0,0.625,0,0.937c-0.936,0.312-1.872,0.624-2.808,0.937c-0.313,0.624-0.624,1.248-0.937,1.873c-0.624,0-1.248,0-1.872,0
	c-0.624,0.936-1.248,1.873-1.872,2.809c-0.624,0-1.249,0-1.873,0c-0.312,0.625-0.624,1.249-0.936,1.874c-0.624,0-1.248,0-1.872,0
	c-0.313,0.624-0.624,1.248-0.936,1.873c-0.313,0-0.625,0-0.937,0c-0.312,0.624-0.624,1.249-0.936,1.873c-0.624,0-1.248,0-1.872,0
	c-0.937,1.249-1.872,2.498-2.809,3.746c-0.624,0-1.248,0-1.872,0c-1.56,1.873-3.12,3.747-4.68,5.62
	c-3.12,2.809-6.241,5.62-9.361,8.429c0,0.624,0,1.249,0,1.873c-1.56,1.249-3.12,2.498-4.68,3.747c0,0.624,0,1.248,0,1.873
	c-0.936,0.624-1.872,1.249-2.808,1.873c0,0.624,0,1.249,0,1.873c-0.937,0.624-1.872,1.249-2.809,1.873c0,0.625,0,1.249,0,1.873
	c-0.936,0.625-1.872,1.249-2.808,1.874c0,0.624,0,1.248,0,1.873c-0.624,0.312-1.248,0.624-1.872,0.936c0,0.625,0,1.249,0,1.874
	c-0.313,0-0.624,0-0.937,0c0,0.624,0,1.248,0,1.873c-0.624,0.312-1.247,0.624-1.872,0.936c0,0.625,0,1.249,0,1.873
	c-0.312,0-0.623,0-0.936,0c0,0.625,0,1.249,0,1.874c-0.312,0-0.625,0-0.937,0c0,0.624,0,1.249,0,1.873c-0.313,0-0.624,0-0.937,0
	c0,0.624,0,1.249,0,1.873c-0.624,0.312-1.248,0.624-1.872,0.937c0,0.624,0,1.248,0,1.873c-0.312,0-0.624,0-0.936,0
	c-1.195,2.555,0.271,2.795-1.872,4.683c0,0.313,0,0.624,0,0.936c-77.059,0-154.142,0-231.202,0c0,0.312,0,0.625,0,0.937
	c-1.248,0-2.496,0-3.744,0c0,0.312,0,0.624,0,0.936c-10.472,2.762-10.103,15.096-13.105,25.288c0,1.873,0,3.747,0,5.62
	c-5.393,18.017-5.842,40.017-11.232,58.068c0,1.873,0,3.747,0,5.62c-1.376,4.661-2.371,11.259-3.744,15.922c0,1.872,0,3.746,0,5.619
	c-2.522,8.427-7.858,26.983,2.808,29.971c3.161,3.088,12.684,1.873,18.721,1.873c16.847,0,33.699,0,50.546,0
	c67.076,0,134.172,0,201.249,0c1.56,2.81,3.12,5.62,4.68,8.43c0.937,0.625,1.872,1.248,2.809,1.872c0,0.625,0,1.249,0,1.874
	c1.248,0.937,2.496,1.873,3.743,2.81c0,0.625,0,1.249,0,1.873c1.872,1.561,3.745,3.123,5.616,4.683c0,0.625,0,1.249,0,1.874
	c0.937,0.624,1.873,1.248,2.81,1.873c2.183,2.497,4.368,4.995,6.552,7.492c0.624,0,1.248,0,1.872,0c1.56,1.873,3.12,3.747,4.68,5.62
	c0.624,0,1.248,0,1.872,0c1.248,1.561,2.496,3.122,3.744,4.683c0.624,0,1.248,0,1.872,0c0.312,0.624,0.624,1.249,0.936,1.873
	c0.937,0.313,1.873,0.624,2.81,0.938c0,0.312,0,0.624,0,0.936c0.624,0,1.248,0,1.872,0c0.312,0.625,0.624,1.249,0.936,1.873
	c0.624,0,1.248,0,1.872,0c0.313,0.625,0.624,1.249,0.937,1.874c0.624,0,1.247,0,1.871,0c0.313,0.624,0.624,1.248,0.937,1.873
	c1.872,0.624,3.744,1.249,5.616,1.873c0.312,0.624,0.624,1.249,0.936,1.873c1.248,0.312,2.496,0.624,3.744,0.937
	c0,0.313,0,0.624,0,0.937c1.872,0.625,3.745,1.249,5.617,1.873c0,0.313,0,0.625,0,0.937c0.936,0,1.872,0,2.808,0
	c0,0.313,0,0.624,0,0.938c1.248,0.312,2.496,0.624,3.744,0.936c0,0.313,0,0.625,0,0.938c1.872,0.312,3.744,0.624,5.616,0.936
	c0,0.313,0,0.625,0,0.938c0.624,0,1.248,0,1.872,0c0,0.312,0,0.624,0,0.936c2.184,0.313,4.369,0.625,6.553,0.938
	c0,0.312,0,0.624,0,0.937c0.937,0,1.872,0,2.808,0c0,0.313,0,0.624,0,0.937c1.248,0,2.496,0,3.744,0c0,0.312,0,0.625,0,0.937
	c1.248,0,2.496,0,3.744,0c0,0.313,0,0.624,0,0.936c1.561,0,3.12,0,4.681,0C432.118,475.655,443.949,475.034,453.6,476.81z
	 M553.756,159.307c0,0.312,0,0.625,0,0.937c-1.872,0.312-3.744,0.624-5.616,0.936c0,0.313,0,0.625,0,0.937c-0.624,0-1.248,0-1.872,0
	c-0.312,0.624-0.625,1.249-0.936,1.873c-0.624,0-1.249,0-1.873,0c-0.313,0.625-0.624,1.249-0.936,1.873
	c-1.248,0.937-2.496,1.874-3.744,2.81c0,0.624,0,1.249,0,1.873c-0.624,0.313-1.248,0.625-1.872,0.937
	c-0.313,1.249-0.624,2.498-0.937,3.746c-0.312,0-0.624,0-0.936,0c0,0.625,0,1.249,0,1.873c-0.313,0-0.624,0-0.937,0
	c0,0.937,0,1.874,0,2.81c-0.312,0-0.624,0-0.936,0c-1.151,3.647,0.206,10.876,0.936,13.112c0,1.249,0,2.498,0,3.747
	c3.989,9.886,17.091,21.98,32.762,16.858c1.248,0,2.497,0,3.745,0c0-0.312,0-0.624,0-0.936c0.623,0,1.248,0,1.871,0
	c0-0.312,0-0.625,0-0.937c1.248-0.312,2.496-0.624,3.744-0.936c0.937-1.249,1.872-2.498,2.809-3.747
	c1.872-1.562,3.744-3.122,5.615-4.683c0-0.624,0-1.249,0-1.873c1.815-3.202,5.972-12.811,3.744-19.668c-0.312,0-0.624,0-0.936,0
	c0-0.937,0-1.873,0-2.81c-0.313,0-0.624,0-0.937,0c-0.312-1.561-0.624-3.122-0.936-4.683c-0.624-0.312-1.248-0.624-1.872-0.936
	c0-0.625,0-1.249,0-1.874c-0.624-0.312-1.248-0.624-1.872-0.936c0-0.625,0-1.249,0-1.873c-0.312,0-0.624,0-0.936,0
	c-0.624-0.937-1.248-1.874-1.872-2.81c-0.624,0-1.248,0-1.872,0c0-0.312,0-0.625,0-0.937c-0.937-0.313-1.872-0.624-2.809-0.936
	c-0.312-0.625-0.624-1.249-0.936-1.874C568.966,158.848,560.551,159.172,553.756,159.307z M534.099,227.678
	c-38.686,0-77.383,0-116.068,0c0,21.228,0,42.461,0,63.688c31.88-0.4,64.381-1.373,86.116,8.429c0,0.312,0,0.625,0,0.937
	c0.623,0,1.247,0,1.871,0c0,0.312,0,0.624,0,0.936c0.624,0,1.248,0,1.872,0c0.313,0.625,0.624,1.249,0.937,1.873
	c1.248,0.313,2.496,0.625,3.744,0.937c0.312,0.624,0.624,1.249,0.936,1.873c0.624,0,1.248,0,1.872,0
	c1.248,1.561,2.496,3.122,3.744,4.683c0.624,0,1.248,0,1.872,0c0,0.312,0,0.625,0,0.937c0.936,0.624,1.873,1.249,2.809,1.873
	c0,0.624,0,1.249,0,1.873c1.248,0.937,2.496,1.873,3.744,2.81c0,0.624,0,1.249,0,1.873c0.624,0.312,1.248,0.624,1.872,0.937
	c0,0.624,0,1.248,0,1.873c0.624,0.312,1.248,0.624,1.872,0.936c0.313,1.249,0.624,2.498,0.936,3.747c0.313,0,0.624,0,0.937,0
	c0.312,1.248,0.624,2.498,0.936,3.746c0.313,0,0.624,0,0.937,0c0,0.938,0,1.873,0,2.811c0.312,0,0.624,0,0.936,0
	c0,0.936,0,1.873,0,2.81c0.313,0,0.624,0,0.937,0c0,0.937,0,1.873,0,2.81c0.312,0,0.624,0,0.936,0c0,1.248,0,2.498,0,3.746
	c0.313,0,0.624,0,0.937,0c0,1.873,0,3.746,0,5.619c0.312,0,0.624,0,0.936,0c0,2.498,0,4.996,0,7.493c0.313,0,0.624,0,0.937,0
	c1.831,6.595-1.456,22.813-2.809,27.161c0,1.561,0,3.122,0,4.684c-0.312,0-0.624,0-0.936,0c0,0.936,0,1.873,0,2.809
	c-0.313,0-0.624,0-0.937,0c0,0.938,0,1.874,0,2.811c-0.312,0-0.624,0-0.936,0c0,0.937,0,1.873,0,2.81c-0.313,0-0.624,0-0.937,0
	c0,0.936,0,1.873,0,2.81c-0.312,0-0.624,0-0.936,0c-0.624,1.873-1.248,3.746-1.872,5.619c-0.313,0-0.624,0-0.936,0
	c-0.313,1.249-0.624,2.498-0.937,3.747c-0.624,0.312-1.248,0.624-1.872,0.937c0,0.625,0,1.248,0,1.872
	c-0.624,0.313-1.248,0.625-1.872,0.938c0,0.624,0,1.249,0,1.873c-0.312,0-0.624,0-0.936,0c-0.624,0.937-1.248,1.873-1.872,2.81
	c11.703,0.91,27.387,13.2,31.825,21.541c1.062-0.79,0.136,0.119,0.936-0.936c8.324-4.793,15.044-13.816,20.593-21.542
	c1.248-0.937,2.496-1.873,3.744-2.81c0-0.625,0-1.249,0-1.874c0.937-0.624,1.872-1.247,2.809-1.872c0-0.625,0-1.25,0-1.873
	c0.623-0.313,1.248-0.624,1.871-0.938c0-0.624,0-1.248,0-1.873c0.624-0.312,1.248-0.624,1.872-0.936
	c0.313-0.938,0.624-1.874,0.937-2.811c0.312,0,0.624,0,0.936,0c0.313-1.249,0.624-2.498,0.937-3.746
	c0.624-0.313,1.249-0.625,1.873-0.937c0.623-1.873,1.248-3.747,1.872-5.62c0.312,0,0.624,0,0.936,0c0-0.624,0-1.248,0-1.873
	c0.313,0,0.624,0,0.937,0c0-0.624,0-1.249,0-1.873c0.312,0,0.624,0,0.936,0c0-0.624,0-1.249,0-1.873c0.313,0,0.624,0,0.937,0
	c0.623-1.873,1.248-3.747,1.871-5.62c0.313,0,0.624,0,0.937,0c0-0.937,0-1.873,0-2.809c0.312,0,0.624,0,0.936,0
	c0-0.625,0-1.249,0-1.873c0.313,0,0.624,0,0.937,0c0.312-1.873,0.624-3.747,0.936-5.62c0.313,0,0.624,0,0.937,0
	c0-0.936,0-1.873,0-2.811c0.312,0,0.624,0,0.936,0c0-0.936,0-1.873,0-2.809c0.313,0,0.624,0,0.937,0c0-0.938,0-1.874,0-2.811
	c0.312,0,0.624,0,0.936,0c0-1.248,0-2.498,0-3.746c0.313,0,0.624,0,0.937,0c0-1.248,0-2.497,0-3.746c0.312,0,0.624,0,0.936,0
	c0-1.249,0-2.498,0-3.746c0.313,0,0.624,0,0.937,0c0-1.561,0-3.122,0-4.684c0.312,0,0.624,0,0.936,0c0-2.185,0-4.371,0-6.556
	c0.313,0,0.624,0,0.936,0c0-2.81,0-5.62,0-8.43c0.313,0,0.625,0,0.937,0c1.239-4.432-0.035-22.091-0.937-25.287
	c0-3.122,0-6.245,0-9.366c-0.312,0-0.623,0-0.936,0c0-1.873,0-3.747,0-5.62c-0.312,0-0.624,0-0.936,0c0-1.873,0-3.746,0-5.619
	c-0.313,0-0.624,0-0.937,0c-0.312-2.498-0.624-4.996-0.936-7.493c-0.313,0-0.624,0-0.937,0c0-1.249,0-2.498,0-3.746
	c-0.312,0-0.624,0-0.936,0c0-0.938,0-1.874,0-2.811c-0.313,0-0.624,0-0.937,0c0-0.937,0-1.873,0-2.81c-0.312,0-0.624,0-0.936,0
	c0-0.936,0-1.873,0-2.81c-0.313,0-0.624,0-0.937,0c-0.312-1.873-0.624-3.746-0.936-5.619c-0.313,0-0.624,0-0.937,0
	c0-0.624,0-1.249,0-1.873c-0.312,0-0.624,0-0.936,0c0-0.937,0-1.873,0-2.81c-0.313,0-0.624,0-0.937,0
	c-0.623-1.873-1.248-3.747-1.871-5.619c-0.313,0-0.624,0-0.937,0c0-0.625,0-1.249,0-1.874c-0.312,0-0.624,0-0.936,0
	c0-0.624,0-1.249,0-1.873c-0.313,0-0.624,0-0.937,0c0-0.624,0-1.249,0-1.873c-0.312,0-0.624,0-0.936,0c0-0.624,0-1.249,0-1.873
	c-0.313,0-0.624,0-0.937,0c0-0.624,0-1.249,0-1.873c-0.312,0-0.625,0-0.936,0c0-0.625,0-1.249,0-1.874
	c-0.624-0.312-1.249-0.624-1.873-0.936c-0.313-1.249-0.624-2.498-0.937-3.746c-0.312,0-0.624,0-0.936,0
	c-0.313-0.937-0.624-1.874-0.937-2.81c-0.624-0.313-1.248-0.625-1.872-0.938c0-0.624,0-1.249,0-1.873
	c-0.623-0.312-1.248-0.624-1.871-0.937c0-0.624,0-1.248,0-1.873c-0.937-0.624-1.872-1.249-2.809-1.873
	c-0.312-0.936-0.624-1.873-0.936-2.81c-0.937,0-1.872,0-2.809,0c-2.061,2.47-3.82,1.654-7.487,2.81c0,0.312,0,0.625,0,0.937
	c-5.305,0-10.609,0-15.913,0c0-0.312,0-0.625,0-0.937c-0.937,0-1.872,0-2.809,0c0-0.312,0-0.624,0-0.936c-0.936,0-1.872,0-2.808,0
	c0-0.313,0-0.625,0-0.937c-1.561-0.312-3.121-0.624-4.681-0.937c-0.313-0.624-0.624-1.248-0.937-1.873c-0.624,0-1.248,0-1.872,0
	c-0.312-0.624-0.624-1.249-0.936-1.873c-0.624,0-1.248,0-1.872,0c0-0.312,0-0.624,0-0.937c-0.937-0.624-1.872-1.248-2.809-1.873
	C534.099,218.312,534.099,222.996,534.099,227.678z M96.032,266.078c6.24,0,12.481,0,18.721,0
	c-1.872,10.926-3.745,21.855-5.616,32.781c2.807,0,5.616,0,8.424,0c-0.436,2.424-0.898,4.142-0.936,7.492c-3.12,0-6.241,0-9.361,0
	c-1.871,11.55-3.744,23.104-5.616,34.654c2.496-0.312,4.993-0.625,7.489-0.937c-0.436,2.425-0.898,4.143-0.937,7.492
	c-2.495,0.313-4.992,0.625-7.488,0.938c0,0.313,0,0.624,0,0.936c-0.312,0-0.624,0-0.936,0c-0.083,3.418-1.148,6.041-1.872,8.43
	c0,1.873,0,3.746,0,5.619c-0.312,0-0.624,0-0.936,0c-0.312,3.435-0.624,6.869-0.936,10.303c-0.312,0-0.624,0-0.936,0
	c0,1.561,0,3.122,0,4.683c-0.312,0-0.624,0-0.936,0c0,0.937,0,1.874,0,2.81c-0.312,0-0.624,0-0.936,0c0,0.625,0,1.25,0,1.873
	c-0.312,0-0.624,0-0.936,0c-0.624,0.938-1.248,1.873-1.872,2.811c-4.386,2.881-16.993,2.049-24.337,1.873
	c0.312-2.497,0.624-4.995,0.936-7.493c1.062-0.79,0.136,0.119,0.936-0.937c3.348,0.06,5.349-0.119,7.488-0.937
	c2.991-7.202,2.745-17.812,5.616-25.288c-2.184,0-4.368,0-6.552,0c0,0.313,0,0.625,0,0.938c-0.936,0-1.872,0-2.808,0
	c0-0.313,0-0.624,0-0.938c0.312,0,0.624,0,0.936,0c0-1.871,0-3.746,0-5.619c0.851-0.393,1.872-1.873,1.872-1.873
	c3.894-1.781,4.508,1.86,7.488-1.873c0.312,0,0.624,0,0.936,0c0-1.873,0-3.746,0-5.619c2.089-2.395,0.798-6.758,1.872-10.303
	c1.845-6.086,3.633-14.142,3.745-21.542c-2.808,0-5.617,0-8.425,0c0-0.312,0-0.624,0-0.936c0.312,0,0.624,0,0.936,0
	c0-1.873,0-3.747,0-5.62c2.281-0.86,5.797-0.971,9.361-0.936C92.288,287.933,94.16,277.004,96.032,266.078z M159.683,266.078
	c0.031,4.625-0.891,7.944-1.872,11.239c0,1.873,0,3.747,0,5.62c-1.401,4.657-2.355,11.26-3.745,15.922c0,1.873,0,3.746,0,5.619
	c-2.397,7.86-3.253,18.296-5.616,26.224c0,1.873,0,3.747,0,5.62c-2.397,7.859-3.253,18.296-5.616,26.224c0,1.873,0,3.747,0,5.62
	c-1.69,5.541-3.306,13.008-3.744,19.668c-6.552,0-13.105,0-19.657,0c1.248-7.805,2.496-15.609,3.744-23.414
	c-5.304,0-10.609,0-15.913,0c0.312-2.498,0.624-4.996,0.936-7.493c5.304,0,10.609,0,15.913,0c0.79-1.063-0.119-0.136,0.936-0.937
	c1.248-8.428,2.496-16.859,3.744-25.288c-4.367,0-8.736,0-13.104,0c0.312-2.497,0.624-4.995,0.936-7.492c4.68,0,9.361,0,14.04,0
	c1.56-9.365,3.121-18.733,4.681-28.098c-4.68,0-9.361,0-14.041,0c-0.036-3.583,0.447-5.873,0.936-8.429c4.992,0,9.985,0,14.977,0
	c-0.028-3.33,2.485-18.334,3.744-19.668C142.977,265.19,155.526,265.994,159.683,266.078z M186.828,266.078
	c-0.936,6.868-1.872,13.737-2.808,20.605c4.68,0,9.361,0,14.04,0c-0.312,2.809-0.624,5.62-0.936,8.429c-4.991,0-9.985,0-14.976,0
	c-1.56,9.365-3.121,18.733-4.681,28.098c4.368,0,8.737,0,13.105,0c-0.312,2.497-0.624,4.995-0.936,7.492c-4.368,0-8.737,0-13.105,0
	c-0.79,1.063,0.119,0.137-0.936,0.937c-1.248,8.428-2.496,16.859-3.744,25.288c5.304,0,10.609,0,15.913,0c0,0.313,0,0.624,0,0.937
	c-0.312,0-0.624,0-0.936,0c0,1.873,0,3.746,0,5.619c-4.019,1.498-11.345,0.983-16.849,0.938c-1.248,7.805-2.496,15.609-3.744,23.414
	c-6.552,0-13.105,0-19.657,0c0.008-5.357,1.539-10.742,2.808-14.984c0-1.873,0-3.748,0-5.621c0.312,0,0.624,0,0.936,0
	c0-1.561,0-3.121,0-4.683c0.312,0,0.624,0,0.936,0c0-1.873,0-3.746,0-5.619c0.312,0,0.624,0,0.936,0c0-1.872,0-3.747,0-5.62
	c0.312,0,0.624,0,0.936,0c0-1.561,0-3.121,0-4.683c0.312,0,0.624,0,0.936,0c0.312-3.746,0.625-7.493,0.937-11.239
	c3.502-11.428,3.953-25.975,7.488-37.463c0-1.561,0-3.122,0-4.683c0.312,0,0.624,0,0.936,0c0-1.873,0-3.747,0-5.619
	c0.312,0,0.624,0,0.936,0c0-1.873,0-3.747,0-5.62c0.312,0,0.624,0,0.936,0c0-1.561,0-3.122,0-4.683c0.312,0,0.624,0,0.936,0
	c1.172-3.864-0.43-7.822,1.872-10.302C170.122,265.19,182.671,265.994,186.828,266.078z M309.449,266.078c6.552,0,13.104,0,19.657,0
	c0.002,5.347-1.54,10.752-2.809,14.985c0,1.873,0,3.747,0,5.62c-0.312,0-0.624,0-0.936,0c0,1.561,0,3.122,0,4.683
	c-0.313,0-0.624,0-0.937,0c0,1.873,0,3.746,0,5.619c-0.312,0-0.624,0-0.936,0c0,1.873,0,3.747,0,5.62c-0.313,0-0.624,0-0.937,0
	c0,1.561,0,3.122,0,4.683c-0.312,0-0.624,0-0.936,0c-0.313,3.746-0.624,7.493-0.937,11.239c-3.434,11.182-4.122,25.284-7.488,36.528
	c0,1.872,0,3.745,0,5.618c-2.451,8.101-2.129,23.181-10.296,25.288c-3.375,3.374-23.624,1.962-30.889,1.873
	c0.624-2.809,1.248-5.62,1.872-8.43c4.679,0,9.361,0,14.04,0c0.563-1.1,1.608-1.434,1.872-1.872c0-0.625,0-1.249,0-1.873
	c0.312,0,0.624,0,0.936,0c0-1.562,0-3.123,0-4.683c2.016-6.455,2.763-15.097,4.681-21.543c0-1.873,0-3.746,0-5.619
	c2.39-7.861,3.257-18.294,5.616-26.225c0-1.873,0-3.746,0-5.619c0.312,0,0.624,0,0.936,0c0-1.561,0-3.122,0-4.683
	c0.312,0,0.624,0,0.936,0c0-1.873,0-3.747,0-5.62c0.312,0,0.624,0,0.936,0c0-1.873,0-3.746,0-5.619c0.312,0,0.624,0,0.936,0
	c0-1.561,0-3.122,0-4.683c0.312,0,0.624,0,0.936,0c0-1.873,0-3.747,0-5.62C307.401,280.092,309.027,272.737,309.449,266.078z
	 M213.037,268.888c20.903,0,41.812,0,62.715,0c-0.312,2.497-0.624,4.995-0.936,7.492c-9.048,0-18.098,0-27.145,0
	c-0.791,1.063,0.118,0.137-0.936,0.937c-0.642,8.031-5.585,13.34-6.553,21.542c2.496,0,4.993,0,7.489,0c0-0.313,0-0.625,0-0.937
	c5.484-1.522,16.115,1.048,20.592,1.873c0.86,2.282,0.971,5.801,0.936,9.366c-0.312,0-0.624,0-0.936,0c0,0.936,0,1.873,0,2.81
	c-0.312,0-0.624,0-0.936,0c-0.312,1.248-0.624,2.497-0.936,3.746c-0.312,0-0.624,0-0.936,0c0,0.937,0,1.873,0,2.81
	c-0.312,0-0.624,0-0.936,0c-0.624,1.873-1.248,3.746-1.872,5.619c-0.312,0-0.624,0-0.936,0c0,0.625,0,1.249,0,1.874
	c-0.312,0-0.624,0-0.936,0c0,0.624,0,1.248,0,1.873c-0.312,0-0.624,0-0.936,0c0,0.625,0,1.25,0,1.873c-0.312,0-0.624,0-0.936,0
	c0,0.625,0,1.25,0,1.873c-0.312,0-0.624,0-0.936,0c0,0.625,0,1.25,0,1.873c-0.312,0-0.624,0-0.936,0c0,0.625,0,1.249,0,1.873
	c-0.313,0-0.624,0-0.936,0c0,0.625,0,1.249,0,1.874c-0.312,0-0.624,0-0.936,0c0,0.624,0,1.248,0,1.873
	c-0.624,0.312-1.248,0.624-1.872,0.937c-0.624,1.873-1.248,3.746-1.872,5.619c-0.312,0-0.624,0-0.936,0
	c-0.312,0.937-0.624,1.873-0.936,2.811c-0.624,0.313-1.248,0.624-1.872,0.936c-0.312,1.25-0.625,2.498-0.936,3.746
	c-0.624,0.313-1.249,0.625-1.873,0.938c0,0.624,0,1.249,0,1.873c-0.624,0.312-1.248,0.625-1.872,0.937c0,0.624,0,1.249,0,1.873
	c-0.936,0.624-1.872,1.249-2.808,1.873c0,0.624,0,1.249,0,1.873c-0.936,0.625-1.872,1.249-2.808,1.874c0,0.624,0,1.248,0,1.873
	c-1.248,0.936-2.496,1.873-3.744,2.809c0,0.625,0,1.25,0,1.875c-1.872,1.56-3.744,3.121-5.616,4.683c0,0.624,0,1.248,0,1.873
	c-3.744,3.434-7.489,6.868-11.233,10.302c-7.175,0-14.353,0-21.529,0c1.047-3.896,4.115-5.053,6.553-7.493
	c4.747-4.751,9.124-9.42,13.104-14.985c0.312,0,0.624,0,0.936,0c1.347-1.631,2.143-2.262,2.808-4.683
	c1.062-0.79,0.136,0.119,0.936-0.937c-3.743,0-7.488,0-11.232,0c-1.128-6.452-3.478-12.235-3.744-19.668c5.927,0,11.857,0,17.784,0
	c0.791,1.063-0.118,0.136,0.936,0.937c0.624,3.435,1.249,6.869,1.873,10.302c0.624,0,1.248,0,1.872,0
	c0.312-0.936,0.624-1.873,0.936-2.809c0.312,0,0.624,0,0.936,0c0-0.625,0-1.249,0-1.874c0.312,0,0.624,0,0.936,0
	c0-0.624,0-1.248,0-1.873c0.624-0.312,1.248-0.624,1.872-0.937c0.312-1.248,0.624-2.498,0.936-3.746
	c0.624-0.313,1.248-0.625,1.872-0.937c0-0.625,0-1.249,0-1.873c0.312,0,0.624,0,0.936,0c0-0.625,0-1.249,0-1.874
	c0.312,0,0.624,0,0.936,0c0-0.624,0-1.248,0-1.873c0.312,0,0.624,0,0.936,0c0-0.623,0-1.248,0-1.873
	c0.624-0.312,1.248-0.623,1.872-0.937c0.624-1.873,1.248-3.746,1.872-5.619c0.624-0.312,1.248-0.624,1.872-0.937
	c0.312-1.248,0.624-2.497,0.936-3.746c2.358-4.376,5.164-7.476,5.617-14.049c-4.68,0-9.361,0-14.041,0
	c-2.184,4.995-4.368,9.991-6.552,14.986c-0.624,0.312-1.248,0.624-1.872,0.936c-0.312,1.249-0.624,2.498-0.936,3.747
	c-0.312,0-0.624,0-0.936,0c-0.675,1.244-1.879,6.048-2.809,6.556c-6.239,0-12.481,0-18.72,0c0.485-5.566,4.378-9.994,6.552-14.049
	c0-0.624,0-1.249,0-1.873c0.312,0,0.624,0,0.936,0c0-0.625,0-1.249,0-1.874c0.312,0,0.624,0,0.936,0c0-0.624,0-1.248,0-1.873
	c0.312,0,0.624,0,0.936,0c0-0.624,0-1.249,0-1.873c0.312,0,0.624,0,0.936,0c0-0.624,0-1.249,0-1.873c0.312,0,0.624,0,0.936,0
	c0.624-1.873,1.248-3.747,1.872-5.62c0.312,0,0.624,0,0.936,0c0-0.936,0-1.873,0-2.809c0.312,0,0.624,0,0.936,0
	c0-0.625,0-1.249,0-1.873c0.312,0,0.624,0,0.936,0c0.936-2.81,1.872-5.62,2.808-8.43c1.872-4.216,4.242-8.051,4.681-14.049
	c-4.992,0-9.985,0-14.977,0C212.087,273.025,212.573,271.31,213.037,268.888z M279.496,277.317c5.928,0,11.857,0,17.785,0
	c0.038,6.088-1.43,11.359-2.808,15.922c0,1.873,0,3.747,0,5.62c-0.312,0-0.624,0-0.936,0c0,1.873,0,3.746,0,5.619
	c-0.312,0-0.625,0-0.936,0c0,1.561,0,3.122,0,4.683c-0.312,0-0.625,0-0.937,0c-0.624,5.619-1.248,11.24-1.872,16.859
	c-0.312,0-0.624,0-0.936,0c0,1.56,0,3.123,0,4.682c-0.312,0-0.624,0-0.936,0c0,1.873,0,3.747,0,5.62c-0.312,0-0.624,0-0.936,0
	c0,1.873,0,3.746,0,5.619c-0.312,0-0.624,0-0.936,0c0,1.561,0,3.123,0,4.683c-0.312,0-0.624,0-0.936,0c0,1.873,0,3.747,0,5.62
	c-1.702,5.66-3.308,13.002-3.744,19.668c-6.24,0-12.481,0-18.721,0C268.263,340.384,273.88,308.846,279.496,277.317z
	 M514.442,425.298c-1.005,1.154-1.654,0.989-2.809,1.873c0,0.313,0,0.624,0,0.937c-0.624,0-1.248,0-1.872,0
	c-0.312,0.625-0.624,1.249-0.936,1.873c-0.937,0.313-1.872,0.625-2.809,0.937c0,0.312,0,0.624,0,0.937
	c-2.808,0.937-5.616,1.873-8.425,2.81c0,0.313,0,0.625,0,0.937c-0.624,0-1.248,0-1.872,0c0,0.313,0,0.624,0,0.938
	c-1.872,0.312-3.744,0.624-5.615,0.936c0,0.313,0,0.625,0,0.938c-1.248,0-2.496,0-3.744,0c0,0.312,0,0.624,0,0.936
	c-4.368,0.625-8.737,1.249-13.105,1.874c0,0.313,0,0.624,0,0.937c-6.66,5.409-13.664,24.979-9.359,38.399c0,1.249,0,2.498,0,3.746
	c0.312,0,0.623,0,0.936,0c0.312,1.873,0.624,3.747,0.936,5.62c0.313,0,0.624,0,0.937,0c0.624,1.873,1.248,3.746,1.872,5.619
	c0.312,0,0.624,0,0.936,0c0,0.625,0,1.249,0,1.874c0.937,0.624,1.872,1.248,2.809,1.873c0,0.624,0,1.249,0,1.873
	c1.872,1.561,3.745,3.122,5.617,4.683c0.623,0.937,1.247,1.873,1.871,2.811c0.624,0,1.248,0,1.872,0
	c0.313,0.624,0.624,1.249,0.937,1.873c0.624,0,1.248,0,1.872,0c0.312,0.624,0.624,1.249,0.936,1.873c0.624,0,1.248,0,1.872,0
	c0,0.312,0,0.624,0,0.937c1.248,0.313,2.496,0.624,3.744,0.937c0,0.312,0,0.625,0,0.937c0.936,0,1.872,0,2.808,0
	c0,0.312,0,0.624,0,0.937c0.624,0,1.248,0,1.872,0c0,0.313,0,0.625,0,0.937c2.108,0.815,19.196,1.929,22.465,0.937
	c0-0.313,0-0.625,0-0.937c1.248,0,2.497,0,3.744,0c0-0.312,0-0.624,0-0.937c0.937,0,1.873,0,2.81,0c0-0.313,0-0.625,0-0.937
	c0.936,0,1.872,0,2.808,0c0-0.312,0-0.625,0-0.937c0.624,0,1.248,0,1.872,0c0-0.313,0-0.624,0-0.937c0.624,0,1.248,0,1.872,0
	c0.313-0.625,0.624-1.249,0.936-1.874c1.248-0.312,2.496-0.624,3.744-0.936c0.624-0.938,1.248-1.873,1.872-2.811
	c0.624,0,1.248,0,1.872,0c0.624-0.936,1.248-1.873,1.872-2.81c1.248-0.937,2.497-1.873,3.745-2.81c0-0.625,0-1.249,0-1.874
	c0.935-0.624,1.872-1.248,2.808-1.873c0-0.624,0-1.249,0-1.873c0.624-0.312,1.248-0.624,1.872-0.937
	c0.624-1.873,1.248-3.746,1.872-5.619c0.313,0,0.624,0,0.937,0c0.312-1.873,0.624-3.747,0.936-5.62c0.313,0,0.624,0,0.937,0
	c0-1.56,0-3.122,0-4.682c0.312,0,0.624,0,0.936,0c1.68-5.871-0.697-16.223-1.872-19.669c-0.624-2.81-1.248-5.62-1.872-8.429
	c-0.312,0-0.624,0-0.936,0c0-0.624,0-1.249,0-1.873c-0.624-0.313-1.248-0.625-1.872-0.938c-0.313-1.248-0.624-2.497-0.937-3.746
	c-1.248-0.937-2.497-1.873-3.745-2.81c0-0.624,0-1.249,0-1.873c-0.312,0-0.623,0-0.936,0c-0.624-0.938-1.248-1.873-1.872-2.811
	c-0.624,0-1.248,0-1.872,0c-1.248-1.561-2.496-3.122-3.744-4.683C531.507,429.778,521.067,425.862,514.442,425.298z"/>
</svg>
