<?xml version="1.0" standalone="no"?><!DOCTYPE svg PUBLIC "-//W3C//DTD SVG 1.1//EN" "http://www.w3.org/Graphics/SVG/1.1/DTD/svg11.dtd"><svg t="1494483466632" class="icon" style="" viewBox="0 0 1024 1024" version="1.1" xmlns="http://www.w3.org/2000/svg" p-id="19771" xmlns:xlink="http://www.w3.org/1999/xlink" width="700" height="700"><defs><style type="text/css"></style></defs><path fill="#7dc5eb" d="M396.519 246.134c-62.776 27.607-103.877 81.465-130.024 146.277 1.711-0.286 3.421-0.571 5.133-0.856 9.581-60.432 85.246-126.914 136.011-148.843 17.449-7.538 39.010-8.555 57.312-17.108-1.426 0-2.851 0-4.277 0-21.509 9.386-44.385 11.836-64.156 20.53z" p-id="19772"></path><path fill="#7dc5eb" d="M593.265 685.819c17.81 0.413 21.773-5.894 33.361-10.266 0-0.287 0-0.57 0-0.857-11.12 0-22.243 0-33.361 0 0 3.708 0 7.417 0 11.123z" p-id="19773"></path><path fill="#7dc5eb" d="M626.626 650.747c0.857-1.425 1.711-2.851 2.567-4.277 2.851-9.603 1.405-28.201-2.567-34.216-6.164-1.805-13.171-2.661-22.24-2.568 0.855 1.14 1.711 2.281 2.566 3.421 6.422-0.377 10.3-0.123 12.83 3.42 3.016 5.852 2.273 9.399 5.987 14.543-9.653-2.148-46.416-6.063-52.18 1.711 15.967 0 31.939 0 47.905 0 0 3.708 0 7.416 0 11.123-15.592-0.233-42.651-3.846-54.748 1.706-0.855 2.283-1.71 4.565-2.566 6.846 21.643 0.152 43.765 2.884 62.447-1.711z" p-id="19774"></path><path fill="#7dc5eb" d="M560.759 666.145c7.414 0 14.828 0 22.242 0 0-3.137 0-6.274 0-9.41-6.273 0-12.548 0-18.821 0-1.141 3.135-2.281 6.272-3.421 9.41z" p-id="19775"></path><path fill="#7dc5eb" d="M618.928 656.735c-8.556 0-17.11 0-25.663 0 0 3.135 0 6.272 0 9.41 13.115 0 26.234 0 39.35 0 0.287 1.428 0.57 2.851 0.857 4.279 2.85-1.998 5.702-3.995 8.554-5.988-7.697 0-15.399 0-23.095 0-0.001-2.567-0.001-5.133-0.001-7.7z" p-id="19776"></path><path fill="#7dc5eb" d="M512.003 60.209c-249.518 0-451.793 202.274-451.793 451.791s202.275 451.791 451.793 451.791c249.516 0 451.789-202.273 451.789-451.791-0.001-249.517-202.274-451.791-451.789-451.791zM878.975 390.699c-39.347 29.366-78.703 58.742-118.047 88.107-2.643 67.47-31.771 139.618-71.856 171.939 0.571 1.712 1.141 3.421 1.711 5.133 4.848 0 9.696 0 14.542 0 0 2.854 0 5.705 0 8.556-3.992 0-7.985 0-11.975 0 2.306 5.796 6.621 8.251 8.553 12.831 2.948 6.986 4.885 27.022 6.844 34.219 0.57-0.289 1.14-0.57 1.712-0.859 6.557-11.974 13.117-23.952 19.674-35.929 4.278 0 8.554 0 12.831 0-0.689 19.382-21.205 42.012-30.796 55.605 10.266 32.217 20.532 64.443 30.796 96.662-0.285 0-0.57 0-0.855 0-0.57-0.57-1.14-1.142-1.712-1.712-38.491-26.515-76.99-53.039-115.481-79.554-12.235-8.621-28.773-27.862-45.337-29.94-36.577 13.922-101.132 13.799-138.577 0.857-53.031 38.205-106.078 76.42-159.108 114.626 11.689-37.35 23.383-74.712 35.072-112.062-4.706-1.733-5.68-3.283-12.832-3.42-1.436-15.121 6.335-30.674 24.807-29.938 1.426-5.135 2.851-10.266 4.277-15.397 0.286 0 0.571 0 0.857 0 10.116 29.347 41.232 4.006 65.867 13.686 13.691 5.377 28.553 13.306 44.483 17.962 36.192 10.586 111.063 9.79 138.579-6.841 0-0.287 0-0.571 0-0.857-10.836 0-21.673 0-32.509 0 0.287-2.851 0.572-5.703 0.857-8.554 10.549 0 21.101 0 31.652 0 0-3.706 0-7.415 0-11.123-8.84 0-17.683 0-26.519 0-4.229 8.924-6.472 16.618-20.53 16.254 0-1.141 0-2.281 0-3.42 29.524-0.388 16.964-47.912 9.411-66.724-15.683-1.997-31.368-3.993-47.048-5.986 0.569-0.288 1.14-0.571 1.711-0.858 13.401-7.414 26.803-14.827 40.205-22.241-2.564-14.828-5.134-29.654-7.699-44.482-22.917 15.151-48.899 32.119-59.023 59.879-9.085 24.91 0.168 50.292 22.24 54.747 0 0.286 0 0.571 0 0.856-47.044 0-94.101 0-141.143 0 0-0.285 0-0.57 0-0.856 27.66-70.846 85.5-103.173 146.277-140.287 36.081-22.037 78.77-39.611 95.804-80.409-0.856 0.57-1.709 1.141-2.565 1.711-11.3 23.891-69.381 54.716-110.348 44.482-19.142-4.78-34.32-23.152-59.88-17.108-27.083 6.404-26.697 29.665-42.771 46.19-3.421 0-6.843 0-10.265 0 1.711-5.13 3.421-10.264 5.133-15.396-7.811 1.342-22.61 5.924-27.373 11.119 0.57 11.405 1.141 22.813 1.711 34.217-0.285 0-0.57 0-0.856 0-7.414-9.123-14.827-18.247-22.241-27.372-11.12 3.706-22.24 7.414-33.36 11.12 0.285-0.856 0.57-1.711 0.855-2.564 5.987-8.556 11.978-17.111 17.963-25.663-6.843-9.979-13.688-19.96-20.529-29.939 51.51 13.801 25.597 6.677 54.746-18.819 0.286 11.69 0.571 23.383 0.856 35.073 7.527 1.495 25.395 10.046 29.94 6.843 11.405-30.792 22.811-61.593 34.217-92.384 3.706 0 7.414 0 11.12 0-1.14 3.421-2.281 6.842-3.422 10.265 25.93-13.669 65.576-29.125 101.795-13.688 16.218 6.913 29.568 21.236 48.758 25.663 28.633 6.604 38.618-14.788 32.507-32.506 2.566 0 5.133 0 7.698 0-0.57-0.571-1.14-1.141-1.711-1.712-3.373-9.625-11.572-15.684-14.542-26.517 1.14 0.285 2.28 0.57 3.423 0.856 11.513 0.328 21.653 11.374 35.927 12.832 8.838-9.979 17.678-19.96 26.517-29.939 0 0.285 0 0.57 0 0.855-2.914 10.062-3.672 32.98 0.856 41.061 11.689 4.847 23.383 9.696 35.073 14.542 0 0.285 0 0.57 0 0.855-0.57 0-1.14 0-1.711 0-12.83 3.421-25.664 6.844-38.494 10.265-0.857 13.971-1.712 27.945-2.566 41.916-8.269-11.405-16.538-22.813-24.807-34.216-1.424 0.285-2.852 0.57-4.277 0.855-4.373 26.629-19.197 53.053-32.507 71.856 13.685-0.286 27.375-0.57 41.061-0.856 3.992-13.971 7.985-27.943 11.976-41.915 0.286 0 0.57 0 0.856 0 0.287 0 0.57 0 0.856 0 4.847 13.685 9.697 27.375 14.542 41.061 15.112-0.286 30.227-0.57 45.337-0.856-11.69 9.41-23.382 18.82-35.073 28.23 5.135 14.255 10.266 28.516 15.399 42.772-12.832-8.272-25.664-16.54-38.494-24.807-12.261 9.123-24.524 18.247-36.785 27.371 4.278-14.254 8.554-28.516 12.832-42.771-9.662-10.876-30.381-26.92-41.059-18.819-7.6 15.709-32.417 30.174-47.049 39.349 5.987 6.273 11.977 12.547 17.964 18.818 4.561 3.991 9.124 7.987 13.688 11.977 14.255-7.414 28.516-14.828 42.77-22.241-7.838 21.203-25.165 34.827-11.975 52.182 7.909 3.221 24.508 3.493 31.651 7.697 3.652 13.571 2.857 34.725-4.28 42.772 9.411 0 18.821 0 28.23 0 2.28-2.28 4.564-4.562 6.844-6.843-9.798-2.694-14.211-16.686-14.542-28.229 2.851 0 5.704 0 8.554 0 2.25 10.171 7.537 16.507 10.265 24.805 2.28-1.993 4.564-3.99 6.844-5.986 0-0.285 0-0.57 0-0.856-1.71-5.988-3.421-11.976-5.134-17.963 2.851 0 5.705 0 8.555 0 1.426 3.707 2.853 7.414 4.278 11.123 3.136-3.995 6.274-7.986 9.411-11.976-14.541-0.289-29.087-0.571-43.627-0.859 0-2.568 0-5.133 0-7.698 19.518 0.147 43.437 2.372 54.745-5.987 4.279-7.699 8.556-15.399 12.832-23.096 22.301-43.643 36.964-114.819 18.819-175.361-29.302-97.765-99.034-152.571-208.723-171.083-38.313-6.466-77.953 5.332-102.65 15.397-73.748 30.062-123.824 82.278-146.277 163.386-22.783 82.302 10.761 160.546 46.192 206.155 5.188 6.679 11.002 16.745 18.819 20.53-1.712 4.561-3.422 9.124-5.133 13.688-4.847-4.564-9.696-9.127-14.542-13.688-5.987-7.697-11.977-15.398-17.963-23.096-13.847-20.449-26.166-44.348-34.217-70.145-2.34-7.496-10.402-66.653-11.977-68.434-37.349-28.796-74.71-57.601-112.059-86.397 0-0.285 0-0.57 0-0.855 40.77 0 81.553 0 122.324 0 23.339-90.376 111.058-158.437 213.001-171.939 10.263-30.792 20.53-61.594 30.795-92.385 0.286 0 0.571 0 0.856 0 10.263 31.076 20.53 62.163 30.795 93.24 89.070 9.137 185.617 89.063 204.445 167.662 45.046 0.286 90.108 0.571 135.155 0.856-0.57 0.287-1.14 0.573-1.711 0.857zM731.843 639.627c3.42 0 6.843 0 10.265 0-0.746 16.859-15.654 38.089-35.074 37.638 0-1.999 0-3.991 0-5.988 11.137-3.938 21.147-20.386 24.809-31.65zM707.89 642.193c0-1.993 0-3.991 0-5.988 10.423-5.19 18.55-16.525 22.242-28.229 3.421 0 6.842 0 10.264 0 0 1.428 0 2.853 0 4.279-6.381 14.116-11.655 29.806-32.507 29.938zM341.772 351.351c7.984 8.554 15.969 17.109 23.952 25.661 10.834-4.562 21.671-9.125 32.506-13.686 0 0.285 0 0.57 0 0.856-5.702 10.264-11.406 20.531-17.108 30.794 6.72 5.3 20.434 19.887 22.241 26.518-8.492-3.242-28.728-8.789-35.928-5.987-5.417 9.41-10.836 18.82-16.253 28.23-0.286-0.57-0.571-1.143-0.856-1.713-1.14-11.119-2.281-22.242-3.422-33.36-11.404-3.136-22.812-6.274-34.217-9.411 10.549-4.276 21.102-8.555 31.651-12.832-0.856-11.69-1.711-23.383-2.566-35.072zM465.807 372.735c-0.285 0-0.569 0-0.856 0-7.413-9.124-14.828-18.249-22.24-27.373-11.12 3.707-22.242 7.415-33.361 11.121 0.285-0.856 0.57-1.711 0.855-2.567 5.988-8.554 11.977-17.109 17.964-25.662-6.842-9.979-13.688-19.96-20.53-29.939 36.718 10.016 35.334 11.279 53.89-18.819 0.571 11.69 1.141 23.383 1.712 35.073 11.404 3.136 22.811 6.274 34.217 9.41-0.285 0.57-0.57 1.142-0.857 1.711-9.068 1.365-27.019 6.862-32.505 12.832 0.57 11.406 1.142 22.814 1.711 34.217zM599.253 361.616c-12.261-4.562-24.524-9.126-36.784-13.686-7.984 9.693-15.968 19.39-23.952 29.084-0.284 0-0.57 0-0.857 0 0.857-12.83 1.712-25.663 2.567-38.494-11.691-5.417-23.383-10.836-35.073-16.253 12.262-3.136 24.524-6.273 36.785-9.41 0.856-12.545 1.71-25.094 2.565-37.638 6.843 10.548 13.688 21.101 20.53 31.651 12.832-2.851 25.663-5.704 38.495-8.555-7.983 9.693-15.969 19.39-23.953 29.085 6.558 11.404 13.118 22.811 19.676 34.216z" p-id="19777"></path></svg>