<?xml version="1.0" encoding="utf-8"?>
<!-- Generator: Adobe Illustrator 16.0.0, SVG Export Plug-In . SVG Version: 6.00 Build 0)  -->
<!DOCTYPE svg PUBLIC "-//W3C//DTD SVG 1.1//EN" "http://www.w3.org/Graphics/SVG/1.1/DTD/svg11.dtd">
<svg version="1.1" id="图层_1" xmlns="http://www.w3.org/2000/svg" xmlns:xlink="http://www.w3.org/1999/xlink" x="0px" y="0px"
	 width="700px" height="700px" viewBox="0 0 700 700" enable-background="new 0 0 700 700" xml:space="preserve">
<path fill="#d81e06" d="M132.821,354.837c-1.739,4.829-3.477,9.662-5.216,14.491c3.091-1.16,6.182-2.317,9.274-3.477
	c1.159-3.916,5.172-11.531,3.477-13.91c-2.511,0.966-5.023,1.931-7.536,2.896L132.821,354.837L132.821,354.837z"/>
<path fill="#d81e06" d="M275.975,320.063c1.771-2.729,4.774-9.964,4.056-12.75c-2.871,1.603-6.787,2.025-8.694,4.638
	c-1.545,4.249-3.091,8.5-4.636,12.749c0.193,0,0.387,0,0.58,0C270.197,323.547,274.347,322.637,275.975,320.063L275.975,320.063z"/>
<path fill="#d81e06" d="M117.173,396.565c-1.546,4.831-3.092,9.661-4.637,14.49c3.091-1.158,6.182-2.318,9.273-3.479
	c1.545-4.637,3.091-9.273,4.636-13.909c-0.578,0-1.158,0-1.739,0C122.196,394.633,119.685,395.6,117.173,396.565L117.173,396.565
	L117.173,396.565z"/>
<path fill="#d81e06" d="M229.609,473.649c-0.966,0-1.932,0-2.898,0c-2.826,1.821-4.887,2.587-6.375,5.796
	c-3.218,5.07-1.532,12.949,1.158,16.809c11.04-0.048,14.688-13.345,9.273-22.026C230.381,474.036,229.996,473.844,229.609,473.649
	L229.609,473.649L229.609,473.649z"/>
<path fill="#d81e06" d="M252.212,366.428c2.812-1.127,7.101-2.152,8.694-4.636c1.546-4.25,3.092-8.503,4.637-12.751
	c-0.386,0-0.772,0-1.159,0c-2.512,0.966-5.025,1.934-7.535,2.897c-1.738,4.831-3.478,9.661-5.216,14.49
	C251.826,366.429,252.019,366.429,252.212,366.428L252.212,366.428L252.212,366.428z"/>
<path fill="#d81e06" d="M360.014,429.602c-0.39-1.159-0.772-2.317-1.16-3.479c-0.194,0-0.388,0-0.577,0c-0.583,0-1.16,0-1.74,0
	c-2.127,0.773-4.253,1.547-6.377,2.318c0.192,2.513,0.387,5.025,0.579,7.533C355.107,434.434,357.862,433.379,360.014,429.602
	L360.014,429.602z"/>
<path fill="#d81e06" d="M350.08,0C157.021,0,0.515,156.506,0.515,349.565S157.022,699.129,350.08,699.129
	s349.564-156.505,349.564-349.564S543.138,0,350.08,0L350.08,0z M486.357,194.877c1.354-2.513,2.705-5.023,4.059-7.535
	c10.236-4.057,20.479-8.116,30.715-12.17c-2.125,4.249-4.25,8.5-6.375,12.749c-2.513,5.023-5.023,10.047-7.534,15.069
	c-15.54,12.863-60.172,14.094-68.968,31.876c8.887-3.478,17.773-6.955,26.662-10.433c0,9.465,0,18.934,0,28.399
	c-9.66,3.67-19.321,7.341-28.979,11.012c0-8.113,0-16.229,0-24.342c-0.387,0.193-0.772,0.387-1.159,0.58
	c-5.987,10.625-11.977,21.251-17.967,31.876c-9.466,3.67-18.931,7.342-28.398,11.012c12.17-21.441,24.343-42.889,36.513-64.332
	C445.401,210.718,465.884,202.796,486.357,194.877L486.357,194.877L486.357,194.877z M428.98,357.155
	c-10.432,4.058-20.864,8.114-31.295,12.17c0-0.192,0-0.388,0-0.577c6.373-19.319,12.75-38.641,19.124-57.958
	c-0.386,0.192-0.771,0.386-1.156,0.579c-10.433,20.283-20.867,40.57-31.299,60.855c-9.658,3.67-19.318,7.342-28.978,11.012
	c12.942-25.112,25.887-50.232,38.831-75.343c-4.056,1.545-8.115,3.091-12.171,4.635c1.933-6.181,3.863-12.365,5.795-18.545
	c12.946-5.024,25.892-10.046,38.833-15.069c1.157-3.091,2.316-6.182,3.478-9.273c10.431-3.864,20.866-7.729,31.297-11.592
	c-0.772,2.512-1.547,5.023-2.319,7.535c12.169-4.829,24.344-9.66,36.513-14.49c0.58,0,1.159,0,1.737,0
	c-1.931,6.181-3.86,12.366-5.793,18.545c-4.252,1.933-8.5,3.864-12.751,5.797c-2.125,20.669-4.252,41.344-6.375,62.013
	c-9.466,3.67-18.934,7.342-28.401,11.011c1.16-16.419,2.317-32.843,3.48-49.263C441.346,318.517,435.163,337.839,428.98,357.155
	L428.98,357.155L428.98,357.155z M371.024,413.952c0.193-0.386,0.388-0.772,0.58-1.159c3.862-1.351,7.728-2.704,11.589-4.056
	c2.126,3.282,4.254,6.569,6.375,9.85c0.39-0.191,0.773-0.384,1.16-0.576c1.165-4.239,4.014-12.409,7.534-14.49
	c3.285-1.354,6.569-2.706,9.854-4.059c1.826,2.762-11.054,21.881-12.751,26.661c0,5.603,0,11.205,0,16.807
	c-3.67,1.159-7.341,2.319-11.013,3.479C384.803,428.742,379.823,421.845,371.024,413.952L371.024,413.952z M474.767,248.777
	c0-9.466,0-18.933,0-28.4c9.273-3.67,18.547-7.341,27.82-11.011c0.579,0,1.157,0,1.739,0c-0.388,9.465-0.772,18.934-1.16,28.399
	C493.701,241.435,484.231,245.105,474.767,248.777L474.767,248.777z M351.897,264.425c3.091-9.08,6.184-18.161,9.273-27.24
	c9.466-3.671,18.934-7.342,28.397-11.012c0.388,0,0.773,0,1.16,0c-3.091,8.885-6.182,17.775-9.273,26.661c0.192,0,0.387,0,0.579,0
	c4.442-1.739,8.889-3.477,13.331-5.216c-4.056,11.205-8.115,22.412-12.173,33.615c-4.828,1.932-9.657,3.865-14.489,5.797
	c-4.796,19.436-27.743,86.05-39.99,95.048c-14.873,5.797-29.752,11.593-44.626,17.387c3.241-7.881,6.183-27.006,12.749-31.876
	c6.567-2.704,13.137-5.408,19.705-8.114c1.737-4.442,3.478-8.887,5.216-13.329c3.257-7.441,11.158-12.698,14.49-20.865
	c2.725-6.68-0.668-12.71-0.579-17.967c1.158-3.091,2.317-6.182,3.477-9.271c-14.681,5.408-29.366,10.819-44.047,16.228
	c3.863-10.818,7.729-21.637,11.592-32.455C321.757,276.016,336.829,270.221,351.897,264.425L351.897,264.425L351.897,264.425z
	 M319.442,311.37c21.024-0.424,4.591,37.352-14.49,33.036C290.225,333.342,311.919,315.229,319.442,311.37L319.442,311.37z
	 M315.386,262.686c0.58,0,1.158,0,1.738,0c-1.352,3.864-2.706,7.729-4.056,11.592c-3.089,0.772-7.711,2.165-9.273,4.636
	c-5.215,14.102-10.433,28.207-15.648,42.309c2.898-0.965,5.796-1.932,8.694-2.897c0,0.192,0,0.386,0,0.579
	c-8.5,23.761-17.002,47.526-25.503,71.286c-18.543,6.954-37.094,13.91-55.638,20.864c15.26-42.495,30.525-85.007,45.786-127.504
	C279.45,276.597,297.421,269.641,315.386,262.686L315.386,262.686L315.386,262.686z M76.024,455.683
	c15.261-42.498,30.525-85.008,45.786-127.504c18.544-7.146,37.095-14.297,55.639-21.443c-1.159,4.057-2.318,8.114-3.477,12.17
	c-3.091,0.966-6.182,1.932-9.274,2.898c-5.215,14.681-10.432,29.366-15.648,44.048c0.192,0,0.387,0,0.58,0
	c2.705-0.967,5.41-1.934,8.114-2.898c0,0.193,0,0.386,0,0.578c-8.5,23.761-17,47.526-25.5,71.287
	C113.504,441.772,94.759,448.728,76.024,455.683L76.024,455.683z M157.165,411.636c5.962-1.521,18.167-4.753,21.443-9.273
	c1.545-4.442,3.091-8.888,4.637-13.33c3.252-5.835,9.749-10.251,12.75-16.808c4.019-8.782,0.687-12.793,0.579-20.285
	c1.159-3.283,2.32-6.568,3.478-9.852c-14.681,5.601-29.367,11.206-44.046,16.807c0-0.191,0-0.387,0-0.578
	c3.862-10.818,7.726-21.638,11.591-32.456c14.874-5.603,29.752-11.205,44.626-16.808c3.477-9.272,6.956-18.547,10.432-27.819
	c9.466-3.67,18.933-7.341,28.399-11.011c-2.898,9.079-5.797,18.161-8.694,27.239c4.637-1.738,9.274-3.477,13.91-5.216
	c-3.13,17.096-9.095,33.957-26.08,38.251c-7.916,21.183-25.318,84.126-39.41,95.047c-8.085,6.267-34.147,15.757-45.206,17.967
	c3.862-10.625,7.727-21.252,11.59-31.876L157.165,411.636L157.165,411.636z M180.926,355.418c4.153,0.009,5.707,0.858,8.115,2.318
	c5.565,14.494-6.968,33.97-22.603,30.717c-14.85-11.173,7.272-28.966,14.49-33.037L180.926,355.418L180.926,355.418z
	 M207.006,510.742c-9.465,3.284-18.933,6.568-28.398,9.853c0-12.363,0-24.729,0-37.094c0.192-0.387,0.386-0.772,0.579-1.158
	c3.283-1.16,6.569-2.317,9.852-3.479c3.532,3.893,1.331,21.803,1.16,28.399c0.193,0,0.386,0,0.579,0
	c5.41-1.934,10.82-3.863,16.228-5.796C207.005,504.56,207.005,507.651,207.006,510.742L207.006,510.742L207.006,510.742z
	 M213.381,505.525c-3.336-1.676-4.207-5.065-5.216-9.273c-4.725-19.694,9.553-26.305,20.864-32.456
	C261.318,462.401,236.688,517.231,213.381,505.525L213.381,505.525z M306.112,446.41c-23.8,6.254-2.644,24.678-12.749,33.035
	c-3.284,1.157-6.569,2.318-9.852,3.479c0-9.467,0-18.936,0-28.4c-5.988,2.126-11.979,4.25-17.967,6.376c0,9.659,0,19.319,0,28.978
	c-3.67,1.159-7.342,2.318-11.012,3.478c0-9.465,0-18.933,0-28.399c-3.669,1.354-7.341,2.705-11.011,4.058c0-3.283,0-6.568,0-9.852
	c20.09-7.34,40.186-14.684,60.276-22.023c0.771,0,1.546,0,2.317,0c-0.001,3.09-0.001,6.18-0.001,9.271L306.112,446.41
	L306.112,446.41z M337.409,464.376c-9.852,3.476-19.707,6.954-29.559,10.431c0-12.747,0-25.501,0-38.25
	c9.466-3.477,18.935-6.954,28.398-10.433c0.193,2.896,0.388,5.798,0.58,8.694c-5.988,1.933-11.979,3.862-17.967,5.796
	c0,2.126,0,4.25,0,6.376c5.603-2.126,11.206-4.25,16.809-6.376c-0.193,2.898-0.387,5.797-0.579,8.694
	c-7.624,0.938-16.702,2.784-16.228,12.75c0.192,0,0.387,0,0.578,0c5.988-2.125,11.979-4.25,17.968-6.375
	C337.409,458.579,337.409,461.478,337.409,464.376L337.409,464.376z M339.147,424.386c7.921-2.705,15.843-5.41,23.763-8.114
	c1.351,0.192,2.705,0.386,4.056,0.578c2.12,0.957,2.5,1.385,3.479,3.478c2.556,8.635-3.343,13.099-6.953,17.388
	c4.717,0.927,10.341,9.618,9.851,13.331c-4.056,1.352-8.114,2.704-12.17,4.055c-2.513-4.055-5.023-8.112-7.533-12.17
	c-1.16,0.194-2.319,0.388-3.479,0.58c0,5.216,0,10.435,0,15.649c-3.67,1.353-7.341,2.704-11.012,4.056
	C339.147,450.273,339.147,437.328,339.147,424.386L339.147,424.386L339.147,424.386z M557.065,241.242
	c-5.046,12.3-16.57,19.527-22.022,30.137c-1.547,5.795-3.092,11.592-4.637,17.387c-4.368,11.183-11.008,20.328-13.329,33.615
	c-6.094,34.868,41.469,36.204,30.716,57.958c-5.254,10.631-15.97,19.481-24.92,26.66c-13.911,11.589-27.821,23.184-41.729,34.774
	c-32.273,22.895-68.835,42.159-77.66,88.095c-18.739,7.34-37.481,14.684-56.219,22.022c11.93-36.71,57.303-78.576,88.096-97.946
	c25.975-16.339,59.438-30.752,71.286-60.854c-5.221-1.896-32.981-14.176-34.776-17.966c-3.565-6.354,1.572-15.716,4.059-20.286
	c8.979-16.498,22.226-30.411,30.718-48.102c11.664-24.308,0.454-40.936,5.217-69.549c3.539-21.282,7.806-37.899,16.806-52.741
	c3.093-5.216,6.184-10.433,9.273-15.647c14.682-5.796,29.367-11.592,44.05-17.388c0.578,0,1.158,0,1.737,0
	c-10.257,13.661-25.843,23.919-30.136,43.468c-3.72,16.916,10.604,28.987,3.476,46.364L557.065,241.242L557.065,241.242z"/>
</svg>
