<?xml version="1.0" encoding="utf-8"?>
<!-- Generator: Adobe Illustrator 16.0.0, SVG Export Plug-In . SVG Version: 6.00 Build 0)  -->
<!DOCTYPE svg PUBLIC "-//W3C//DTD SVG 1.1//EN" "http://www.w3.org/Graphics/SVG/1.1/DTD/svg11.dtd">
<svg version="1.1" id="图层_1" xmlns="http://www.w3.org/2000/svg" xmlns:xlink="http://www.w3.org/1999/xlink" x="0px" y="0px"
	 width="700px" height="700px" viewBox="0 0 700 700" enable-background="new 0 0 700 700" xml:space="preserve">
<path fill="#E94B5F" d="M395.811,288.992v-16.644h-35.207v22.183h27.479C394.033,295.261,396.633,293.42,395.811,288.992z"/>
<path fill="#E94B5F" d="M339.139,294.53v-22.183h-34.631l0.006,22.183H339.139z"/>
<path fill="#E94B5F" d="M675.961,349.3c0-179.711-145.685-325.395-325.395-325.395c-179.711,0-325.395,145.684-325.395,325.395
	c0,179.71,145.684,325.394,325.395,325.394S675.961,529.011,675.961,349.3z M473.328,499.658h-25.215v61.819h-24.692v-61.831
	l-31.691,0.012h-31.693v61.819h-24.699v-61.819h-25.175v-20.29h81.567h81.598L473.328,499.658L473.328,499.658z M247.944,449.113
	l-19.664,0.012l-0.04-78.041l20.724-0.012l35.874,51.469l-0.017-51.469l19.721-0.012l0.034,78.031l-20.941,0.021l-35.709-51.103
	L247.944,449.113z M187.503,245.718h19.681l12.545,30.512l13.116-38.297h-44.762v-17.185h67.458v15.526l-24.469,65.474
	l10.738,26.064c0.382,2.953,2.189,4.252,5.37,3.876h7.739v14.442h-17.891c-5.169,0-8.555-2.416-10.134-7.216l-5.375-11.649
	l-4.788,11.649c-1.58,5.175-5.369,7.763-11.337,7.763h-16.113v-14.989h4.788c3.187,0.388,4.964-0.731,5.375-3.317l10.745-28.847
	L187.503,245.718z M301.526,347.237c-15.503,1.471-21.869-3.716-19.1-15.549v-74.319h91.316l15.502-17.213h-77.556l-5.984,5.563
	c-1.579,2.2-5.165,3.124-10.744,2.776h-12.534v-16.102h5.99c1.58,0.382,3.363-0.541,5.341-2.77l10.164-10.527h25.055l-4.76,5.535
	h93.095v15.526l-16.118,17.213h16.687v36.051c1.21,12.562-4.946,18.125-18.465,16.638h-94.908v17.207
	c-0.787,3.692,0.815,5.186,4.788,4.423h109.2v15.549L301.526,347.237L301.526,347.237z M321.281,176.017h-9.798l5.986-15.576
	c3.316-0.239,6.668-0.453,10.044-0.645L321.281,176.017z M332.283,159.534c9.573-0.484,19.375-0.792,29.44-0.885
	c6.216,0.317,14.126,0.962,23.228,1.924c-2.801,0.766-5.705,1.21-8.677,1.21h-17.083l-11.023,28.75h-27.804L332.283,159.534z
	 M442.208,292.867v-15.55h16.711v-38.272h-16.711v-15.526h50.728v14.984l-14.934-0.005v39.39h14.317v14.98h-14.317v40.508h14.317
	v14.409h-50.728V333.91h17.327v-41.042H442.208z M479.393,411.357c0,29.912-24.419,54.308-54.308,54.308
	c-29.911,0-54.308-24.405-54.308-54.308c0-29.91,24.396-54.293,54.308-54.293C454.974,357.064,479.369,381.447,479.393,411.357z
	 M359.851,451.599h-26.337l-0.029-83.079l26.333-0.012L359.851,451.599z M584.403,508.585c0,29.913-24.394,54.309-54.282,54.309
	c-29.913,0-54.309-24.409-54.309-54.309c0-29.901,24.396-54.296,54.309-54.296C560.01,454.289,584.403,478.673,584.403,508.585z
	 M551.256,371.072l19.722-0.012l0.021,78.031l-20.93,0.021l-35.704-51.103l0.022,51.103l-19.676,0.011l-0.044-78.04l20.724-0.012
	l35.886,51.48L551.256,371.072z M578.864,255.728l-1.003,5.557l-2.576,14.381c-0.221,1.219-0.544,2.312-0.965,3.283
	c-1.856,4.351-5.713,6.233-11.575,5.626h-11.946v-0.034v-13.263v-0.041h3.602c1.574,0.354,2.782-0.922,3.558-3.881l2.393-11.666
	h18.513l-0.007,0.04h0.008V255.728z M577.678,234.051c0,9.633-5.973,14.25-17.896,13.875l-12.541-0.008v42.726h19.699l4.172,38.843
	c0,3.319,1.185,4.812,3.579,4.422h3.558v14.422H566.94c-8.367,0.375-12.745-2.954-13.155-9.964l-4.173-37.731h-2.372v32.17
	c0.8,11.479-3.577,16.629-13.132,15.526h-12.539v-14.422h2.986c1.984,0,2.987-1.104,2.987-3.328v-29.946h-1.802l-7.136,36.616
	c-1.617,7.034-5.791,10.533-12.56,10.533h-11.333v-14.408h1.209c2.394,0.352,3.967-0.924,4.766-3.889l7.184-38.843h19.674v-42.148
	h-31.052v-16.649l31.668,0.006l-0.023-10.556h19.697v10.556h8.345c2.396,0,3.808-1.118,4.172-3.341v-4.992h17.328v10.531H577.678z
	 M522.779,270.666v13.332l-13.133-0.005c-7.158,0.734-11.126-2.411-11.945-9.445l-2.988-18.295h18.514l2.372,11.097
	c0,2.588,1.392,3.7,4.173,3.318L522.779,270.666L522.779,270.666z M520.065,255.072h0.502v2.416L520.065,255.072z M377.184,117.965
	h-1.116l-4.842,12.601c-3.658-0.174-7.325-0.322-11.017-0.417c-3.827-0.099-7.725-0.148-11.586-0.148
	c-1.672,0-3.336,0.032-5.005,0.051l13.145-34.185h24.616c17.874,0,31.395,14.854,29.981,32.956c-0.141,1.762-0.451,3.48-0.851,5.168
	c-7.305-0.938-14.723-1.709-22.227-2.323c0.13-0.42,0.24-0.846,0.323-1.277C389.999,123.562,384.845,117.965,377.184,117.965z
	 M293.81,133.202c-7.664,0.885-15.215,1.955-22.655,3.159c-0.381-2.428-0.524-4.944-0.328-7.539
	c1.437-18.102,17.219-32.955,35.093-32.955h17.52l-8.491,22.098h-4.447c-7.699,0-15.109,5.596-16.518,12.425
	C293.798,131.36,293.752,132.298,293.81,133.202z M340.058,65.065h29.468l-3.854,10.032l-19.691,0.005l-21.302,55.541
	c-3.362,0.173-6.713,0.377-10.051,0.62L340.058,65.065z M348.02,80.951h29.44l-3.854,10.026h-19.653l-15.033,39.13
	c-3.314,0.071-6.619,0.181-9.915,0.32L348.02,80.951z M360.068,135.542c71.696,1.841,159.244,20.303,210.2,66.961
	c-46.966-30.186-165.931-47.114-208.433-49.251c-95.135,0.86-169.38,19.709-239.476,44.054
	C161.261,165.403,258.955,132.943,360.068,135.542z M120.081,346.677v-14.989h5.34c1.203,0.376,2.018-0.16,2.4-1.654l12.522-33.28
	l-20.262-50.488l18.484-0.005l11.325,26.634l11.359-34.398h-41.778v-17.202h63.859v14.979l-23.277,62.138l12.528,30.504
	c0.792,2.224,2.195,3.148,4.173,2.771h7.159v14.989h-16.707c-5.158,0-8.344-2.222-9.546-6.657l-7.159-16.643l-6.566,16.643
	c-1.983,4.811-5.369,7.035-10.123,6.657L120.081,346.677L120.081,346.677z M193.329,552.86h-67.862v-80.411h23.432v64.419h44.43
	V552.86z M192.211,437.623l-5.266,5.653l-6.629,3.923l-7.849,2.383l-8.736,1.036l-9.286-0.171l-9.37-1.142l-5.62-1.663l-4.781-2.405
	l-4.007-3.076l-3.272-3.683l-2.581-4.299l-1.881-4.845l-1.191-5.393l-0.502-5.894l-0.028-46.908l21.197-0.022l0.102,50.248
	l1.978,6.51l3.961,4.845l5.221,2.86l5.779,0.969l5.792-0.969l5.237-2.86l3.991-4.834l2.017-6.508l0.029-50.271l21.192-0.014
	l-0.012,48.63l-1.8,10.192L192.211,437.623z M197.667,512.084c0-29.911,24.388-54.308,54.3-54.308
	c29.906,0,54.301,24.396,54.301,54.308c0,29.9-24.396,54.296-54.301,54.296C222.055,566.38,197.667,541.984,197.667,512.084z"/>
</svg>
