<?xml version="1.0" encoding="utf-8"?>
<!-- Generator: Adobe Illustrator 16.0.0, SVG Export Plug-In . SVG Version: 6.00 Build 0)  -->
<!DOCTYPE svg PUBLIC "-//W3C//DTD SVG 1.1//EN" "http://www.w3.org/Graphics/SVG/1.1/DTD/svg11.dtd">
<svg version="1.1" id="图层_1" xmlns="http://www.w3.org/2000/svg" xmlns:xlink="http://www.w3.org/1999/xlink" x="0px" y="0px"
	 width="700px" height="700px" viewBox="0 0 700 700" enable-background="new 0 0 700 700" xml:space="preserve">
<path fill="#8263A9" d="M445.315,313.924c13.322-9.347,27.375-8.583,44.302-3.691c0-7.792,0-15.589,0-23.381
	c-14.767,0-29.536,0-44.302,0C445.315,295.873,445.315,304.901,445.315,313.924z"/>
<path fill="#8263A9" d="M386.246,286.85c0-2.051,0-4.103,0-6.153c-1.23,0-2.462,0-3.691,0
	C383.557,286.785,381.733,284.363,386.246,286.85z"/>
<path fill="#8263A9" d="M350.002,20.569C168.062,20.569,20.57,168.061,20.57,350c0,181.939,147.492,329.431,329.432,329.431
	c181.938,0,329.429-147.491,329.429-329.431C679.43,168.061,531.939,20.569,350.002,20.569z M244.726,544.049
	c-28.948-17.611-51.383-38.917-66.453-70.145c-24.601-50.98-12.64-212.661-12.306-289.194c34.503,3.701,59.917,26.531,78.759,46.763
	c-0.411,15.587-0.819,31.176-1.23,46.763c0-0.82,0-1.642,0-2.461c-11.304-10.968-18.645-25.476-36.918-29.535
	c0,9.844,0,19.691,0,29.535c3.692,0,7.384,0,11.075,0c-0.915,26.223-10.046,87.818,15.999,88.604c0,1.641,0,3.283,0,4.923
	c-9.023,0-18.051,0-27.073,0c-0.855,83.692,20.896,125.626,77.528,150.134c15.587,4.923,31.176,9.845,46.763,14.768
	c-0.819,0.411-1.641,0.82-2.461,1.231c-10.665,8.204-21.332,16.408-31.996,24.612c0,0.411,0,0.819,0,1.23
	c4.102,2.87,8.205,5.743,12.307,8.614C283.805,566.188,262.718,554.992,244.726,544.049z M407.167,580.966
	c-11.896-0.409-23.793-0.819-35.688-1.229c0.411-0.819,0.82-1.642,1.231-2.461c11.484-7.793,22.973-15.591,34.457-23.383
	C407.167,562.916,407.167,571.944,407.167,580.966z M472.39,567.43c-15.455,5.61-21.311,16.297-39.38,27.073
	c-5.742-18.046-11.486-36.101-17.229-54.146c-22.969,16.406-45.944,32.818-68.915,49.224c-13.535-9.844-27.074-19.69-40.609-29.535
	c15.177-11.075,30.356-22.152,45.532-33.227c-0.819-1.23-1.641-2.462-2.461-3.691c-21.739-15.994-43.485-31.997-65.223-47.993
	c1.641-4.923,3.282-9.846,4.922-14.768c-9.225-12.141-19.086-23.188-23.381-40.61c-8.647-35.079-3.472-210.096,7.384-231.355
	c21.073-41.267,77.42-63.713,134.137-68.915c0,27.892,0,55.79,0,83.682c-0.82,1.23-1.643,2.461-2.462,3.692
	c-14.494,5.698-29.931,21.194-35.688,35.688c-0.411,0-0.818,0-1.23,0c0-25.841,0-51.688,0-77.528
	c-26.162,5.283-61.942,28.556-65.222,56.607c0.412,24.61,0.819,49.227,1.23,73.837c0,19.823-4.55,52.597,2.461,67.684
	c4.103,0.411,8.204,0.82,12.307,1.23c0,1.641,0,3.283,0,4.923c-4.923,0-9.845,0-14.767,0c-1.146,47.936,16.841,85.275,43.071,91.065
	c8.204-26.249,16.41-52.509,24.613-78.76c17.227,0,34.459,0,51.686,0c0,0.411,0,0.82,0,1.23
	c-5.741,17.638-11.486,35.28-17.229,52.917c28.302,0,56.61,0,84.912,0c4.923,15.996,9.845,31.998,14.768,47.994
	c-18.867,0-37.741,0-56.608,0C452.628,504.023,477.579,553.278,472.39,567.43z M424.396,355.764c0,0.412,0,0.82,0,1.231
	c-1.231,3.691-2.462,7.384-3.692,11.077c-22.432,6.547-51.616-0.565-63.991-8.615c-1.813,5.295-2.584,6.316-7.384,8.615
	c-7.451,2.094-13.216-0.486-18.46-3.693c-0.411-1.23-0.819-2.461-1.23-3.691c1.486-8.324,4.12-10.663,12.307-12.306
	c0.34-11.993,1.368-28.813-2.461-36.918c-7.38-0.118-6.7,1.116-8.615-4.922c7.793,0.411,15.59,0.819,23.382,1.23
	c0.41,1.23,0.82,2.461,1.231,3.691c0.411,13.126,0.819,26.254,1.23,39.379C373.816,356.217,400.371,355.908,424.396,355.764z
	 M388.707,349.611c0-0.819,0-1.642,0-2.461c0.82,0,1.643,0,2.463,0C389.455,349.515,391.044,347.886,388.707,349.611z
	 M333.33,280.697c2.462-1.641,4.923-3.282,7.384-4.922c6.708,3.119,9.059,8.354,13.537,13.536c-0.411,2.871-0.819,5.743-1.23,8.614
	c-2.871,2.05-5.743,4.103-8.615,6.153c-1.64-0.411-3.282-0.819-4.922-1.23C343.028,292.354,330.26,290.173,333.33,280.697z
	 M501.924,454.213c-2.461-8.202-4.923-16.408-7.385-24.611c-6.152,0-12.306,0-18.459,0c9.866-18.332,13.743-34.383,13.537-65.223
	c-20.558,10.669-43.891,7.615-57.839-7.385c-0.135-8.156,0.961-10.406,3.691-14.767c3.281,0.411,6.564,0.819,9.845,1.23
	c2.086,6.867,1.397,13.72,4.922,19.69c14.326,2.7,22.118,0.82,31.996-6.154c6.053-14.034,7.535-33.971-7.384-40.61
	c-14.123-8.555-26.412,3.215-33.226,9.845c-1.641-0.411-3.282-0.819-4.923-1.23c0-16.407,0-32.818,0-49.224
	c16.816-0.412,33.638-0.82,50.455-1.23c0.411-1.23,0.819-2.462,1.23-3.692c0.412-12.714,0.82-25.433,1.23-38.148
	c-0.41,0-0.818,0-1.23,0c-31.977,12.382-49.483,26.775-71.375,47.994c-5.332,0-10.666,0-15.998,0c0,2.05,0,4.103,0,6.153
	c6.563,0,13.127,0,19.689,0c0,2.049,0,4.102,0,6.153c-6.563,0-13.127,0-19.689,0c0.411,5.333,0.82,10.666,1.231,15.998
	c7.384,0,14.767,0,22.15,0c0,1.641,0,3.282,0,4.923c-11.483,0-22.974,0-34.457,0c0,1.23,0,2.461,0,3.691
	c9.949-0.566,16.178,0.131,19.689,6.153c0.819,4.922,1.642,9.845,2.462,14.767c1.64,0,3.28,0,4.922,0
	c2.462-2.05,4.923-4.103,7.384-6.152c0,1.64,0,3.281,0,4.922c-1.858,5.831-2.416,9.424-7.384,12.306
	c-22.688,10.57-19.574-13.863-22.151-28.304c-1.641,0-3.281,0-4.922,0c-0.679,18.265-7.357,32.392-25.843,29.534
	c-0.412-0.819-0.819-1.641-1.23-2.461c-3.717-19.387,8.201-20.42,11.074-34.458c-4.511,0-9.023,0-13.535,0c0-1.64,0-3.282,0-4.922
	c8.613,0,17.228,0,25.842,0c0-5.333,0-10.666,0-15.998c-2.051,0-4.103,0-6.153,0c-1.824,10.221-10.53,14.485-19.688,9.844
	c0-2.05,0-4.103,0-6.153c12.607-13.046,16.745-35.204,28.303-49.225c26.104-31.667,84.374-55.294,139.06-56.608
	C528.553,265.613,542.487,422.791,501.924,454.213z M410.858,299.156c-1.713,2.365-0.124,0.737-2.461,2.462c0-0.82,0-1.642,0-2.462
	C409.218,299.156,410.039,299.156,410.858,299.156z"/>
</svg>
