<?xml version="1.0" encoding="utf-8"?>
<!-- Generator: Adobe Illustrator 16.0.0, SVG Export Plug-In . SVG Version: 6.00 Build 0)  -->
<!DOCTYPE svg PUBLIC "-//W3C//DTD SVG 1.1//EN" "http://www.w3.org/Graphics/SVG/1.1/DTD/svg11.dtd">
<svg version="1.1" id="图层_1" xmlns="http://www.w3.org/2000/svg" xmlns:xlink="http://www.w3.org/1999/xlink" x="0px" y="0px"
	 width="700px" height="700px" viewBox="0 0 700 700" enable-background="new 0 0 700 700" xml:space="preserve">
<path fill="#F7D261" d="M390.813,344.755c24.511,3.73,32.521,17.542,34.246,44.319c0.336,0,0.671,0,1.008,0
	c3.836-19.157,15.764-34.581,32.23-41.297c5.037-1.68,10.072-3.358,15.108-5.037c-38.509-5.77-21.844-20.866-35.253-44.319
	c-4.65,24.815-21.786,41.203-47.34,45.326C390.813,344.083,390.813,344.418,390.813,344.755L390.813,344.755z"/>
<path fill="#F7D261" d="M182.315,337.705c3.717-5.829,4.833-15.677,3.021-24.174c-2.35-0.336-4.701-0.672-7.051-1.007
	c-1.007,1.007-2.015,2.015-3.021,3.021c-0.335,9.063-0.671,18.13-1.007,27.195c3.835-1.411,5.975-1.717,8.058-5.037L182.315,337.705
	z"/>
<path fill="#F7D261" d="M350.002,41.159C179.433,41.159,41.159,179.432,41.159,350s138.274,308.841,308.843,308.841
	c170.567,0,308.84-138.272,308.84-308.841S520.569,41.159,350.002,41.159z M512.688,330.654
	c10.261-5.25,20.583-12.187,27.195-21.152c5.416,15.752-19.809,42.585-29.21,49.355
	C511.345,349.457,512.017,340.054,512.688,330.654L512.688,330.654z M412.972,422.313c-34.592-7.787-53.788-51.764-37.268-91.658
	c13.459-32.505,34.126-40.92,67.484-54.391C545.546,274.592,501.858,442.321,412.972,422.313L412.972,422.313z M331.386,306.48
	c0-1.68,0-3.358,0-5.037c1.609-7.352-0.329-24.194,5.036-28.203c22.491-6.379,44.992-12.759,67.485-19.138
	c6.667,23.049-25.158,57.184-32.231,73.528c-8.186,18.912-4.282,39.927-3.021,60.434c-3.021,11.078-6.043,22.158-9.064,33.238
	c-1.008,0-2.015,0-3.021,0c-8.913-2.401-33.052-3.681-37.268-11.08c7.386-35.585,14.773-71.182,22.159-106.766
	c-3.358,1.007-6.717,2.015-10.073,3.021L331.386,306.48z M223.612,322.597c27.342,0.283,32.175-13.554,47.339-24.173
	c7.05-3.021,14.102-6.045,21.152-9.065c2.015,0,4.029,0,6.043,0c-1.612,10.513,0.445,18.257,3.021,26.188
	c-29.933-2.418-62.571,25.396-77.556,8.058C223.612,323.268,223.612,322.933,223.612,322.597z M96.701,395.117
	c-7.84-11.821-1.235-44.527,3.021-56.405c10.233,2.947,14.349-2.92,21.152-6.044c0,1.342,0,2.686,0,4.029
	c-2.35,9.735-4.701,19.474-7.051,29.21c0.335,1.007,0.672,2.015,1.008,3.021c2.35-1.008,4.701-2.014,7.051-3.021
	c2.35-21.822,4.7-43.649,7.05-65.471c5.707-0.336,11.417-0.672,17.124-1.007c-1.278,16.311-12.74,41.438-7.051,57.413
	c8.056-3.358,16.117-6.717,24.174-10.073c0.671-8.728,1.343-17.458,2.015-26.188c-5.809,3.701-10.375,6.99-19.138,8.058
	c1.679-6.044,3.358-12.088,5.036-18.13c5.372-1.008,10.744-2.015,16.116-3.021c0-5.707,0-11.417,0-17.124
	c2.685-1.007,5.372-2.015,8.057-3.021c0.336,0.335,0.672,0.671,1.008,1.007c0.335,4.701,0.671,9.402,1.008,14.102
	c8.857-4.154,24.022-9.089,29.21,2.015c5.006,8.489-0.898,22.055-4.029,29.209c7.812-0.937,33.412-8.013,37.268,1.008
	c3.948,9.236-7.174,20.85-8.058,31.224c9.988-0.387,19.934-6.51,25.181-12.087c-2.875-5.319-5.542-7.612-4.029-12.087
	c5.036-3.693,10.073-7.388,15.109-11.08c0.335,0,0.672,0,1.007,0c0.671,5.37,1.343,10.743,2.015,16.115c0.336,0,0.671,0,1.008,0
	c12.012-4.932,28.825-10.517,44.318-6.044c-5.591,8.572-8.433,13.169-8.057,26.188c-9.069-3.669-21.985-6.438-34.247-4.029
	c0.671,3.357,1.343,6.715,2.015,10.073c21.353-2.691,30.299,3.556,36.262,19.138c-5.708,5.37-11.417,10.743-17.124,16.115
	c0.737-14.883-3.814-24.289-16.116-26.188c0.882,12.821,2.015,27.887-7.051,33.238c-4.695,4.315-15.051,3.357-21.152,1.007
	c0-5.372,0-10.745,0-16.115c6.08-2.215,7.373-5.752,11.08-10.072c0-1.344,0-2.688,0-4.029c-0.335,0-0.671,0-1.007,0
	c-6.783,4.351-35.792,35.652-40.29,10.072c4.364-4.029,8.73-8.057,13.093-12.087c9.556,4.837,28.935,3.159,29.21-12.087
	c-0.335-1.68-0.672-3.357-1.007-5.036c-14.279,3.173-30.904,21.347-45.326,15.108c0.026-18.639,9.427-25.402,12.087-40.29
	c-0.671-0.671-1.343-1.344-2.015-2.015c-21.248-0.354-35.945,6.408-52.375,11.08c-0.336,3.02-0.671,6.044-1.008,9.064
	c26.532-1.012,48.055,19.153,40.29,46.333c-8.393,0.336-16.788,0.671-25.181,1.008c3.118-17.007-0.131-32.903-16.116-36.261
	c-1.679,12.758-3.358,25.518-5.036,38.273c-9.064,1.008-18.131,2.016-27.195,3.021c6.733-14.072,15.681-28.477,18.13-46.332
	c-3.267-1.587-3.24-0.295-3.021-2.016c1.679-0.672,3.358-1.344,5.036-2.014c0-1.344,0-2.688,0-4.03c-0.336,0-0.671,0-1.008,0
	c-7.385,4.7-14.773,9.402-22.159,14.103c0.333,10.046,3.268,35.528-2.015,41.296c-7.721,1.342-15.445,2.686-23.166,4.029
	c1.679-10.072,3.358-20.146,5.036-30.217c-5.036,3.692-10.073,7.388-15.109,11.08c-3.92-1.013-3.027-0.391-5.038-3.021
	L96.701,395.117z M563.05,401.16c-6.749,1.407-17.557,1.681-22.159-2.015c9.07-17.294,13.87-16.995,29.21-27.194
	c1.995-6.294,4.143-13.618,1.007-20.145c-1.654-3.314-2.047-3.216-5.036-5.037c-1.007,0.671-2.015,1.343-3.021,2.014
	c-2.721,21.88-18.075,37.328-29.209,51.369c-39.026,49.217-121.269,66.835-211.519,52.376
	c-28.787-4.613-69.753-10.427-103.745-5.037c-22.758,3.608-40.67,10.97-59.427,15.109c-15.403-14.646-40.031-16.187-60.434-26.188
	c0.671,0,1.343,0,2.015,0c16.786-2.686,33.576-5.373,50.362-8.058c128.257-23.725,285.006,72.698,361.597-24.174
	c11.326-14.323,23.279-29.622,29.21-49.354c-5.707,2.686-11.416,5.371-17.123,8.058c1.045-6.425,4.568-15.856,9.064-19.138
	c10.743-3.021,21.489-6.044,32.231-9.064c3.357,0.671,6.715,1.343,10.072,2.015C592.659,357.154,595.339,394.43,563.05,401.16
	L563.05,401.16z M591.252,349.792c0.129-36.518-20.098-36.383-47.34-46.333c1.679-1.679,3.358-3.358,5.036-5.036
	c1.989-4.136,2.373-2.889,6.044-5.036c35.47-0.899,58.178,17.655,62.449,47.34c-1.008,0.335-2.015,0.671-3.021,1.007
	C606.697,344.418,598.975,347.105,591.252,349.792L591.252,349.792z"/>
</svg>
