<?xml version="1.0" encoding="utf-8"?>
<!-- Generator: Adobe Illustrator 16.0.0, SVG Export Plug-In . SVG Version: 6.00 Build 0)  -->
<!DOCTYPE svg PUBLIC "-//W3C//DTD SVG 1.1//EN" "http://www.w3.org/Graphics/SVG/1.1/DTD/svg11.dtd">
<svg version="1.1" id="图层_1" xmlns="http://www.w3.org/2000/svg" xmlns:xlink="http://www.w3.org/1999/xlink" x="0px" y="0px"
	 width="700px" height="700px" viewBox="0 0 700 700" enable-background="new 0 0 700 700" xml:space="preserve">
<path fill="#478ACA" d="M350.438,44.942C181.96,44.942,45.381,181.521,45.381,350c0,168.478,136.579,305.057,305.058,305.057
	c168.479,0,305.058-136.578,305.058-305.057S518.917,44.942,350.438,44.942z M547.984,325.709
	c15.25,3.486,43.507,21.446,49.433,41.975c1.989,6.89-1.907,15.53-8.935,23.712c7.387,7.772,14.835,14.096,22.199,18.609
	c-160.336,51.15-224.274,166.238-245.915,207.552C261.483,479.845,219.186,472.959,104.098,439.515
	c19.093-14.484,33.915-32.395,45.37-52.175c-9.933-28.309-19.868-55.804-29.798-74.427l-23.027,11.445l-6.668-10.047
	c21.536-12.236,46.037-20.313,77.07-19.239c3.835,7.148,6.881,14.552,9.193,22.191c19.801-85.336,3.72-173.132,3.72-173.132
	c98.248,49.47,253.667,18.976,314.653-16.436c-5.544,39.273,6.274,95.692,26.687,148.357c29.783,4.391,59.314,15.889,88.729,30.565
	l-7.909,8.947c-23.667-11.99-48.685-20.603-75.171-25.555c5.068,12.01,10.556,23.718,16.354,34.865
	C544.998,325.108,546.57,325.386,547.984,325.709L547.984,325.709z"/>
<path fill="#478ACA" d="M562.827,356.607c-1.382-2.494-3.184-4.659-5.287-6.543c2.258,3.666,4.547,7.232,6.858,10.686
	C564.041,359.25,563.521,357.856,562.827,356.607L562.827,356.607z"/>
<path fill="#478ACA" d="M487.021,328.031l33.362-39.178c2.199,0.358,4.384,0.75,6.563,1.156c-1.946-4.613-3.832-9.27-5.649-13.958
	c-12.495-1.842-25.035-2.442-37.63-1.487l-21.73,36.872l-38.257-19.799l6.764-17.145l-34.993-11.995l-5.056,18.271l-18.263-5.346
	l7.683-9l-32.722-6.022l-15.867,34.753c13.204-0.511,24.276-4.753,34.376-10.689l22.982,3.562l-6.091,23.373
	c-17.212-3.899-34.424-6.37-51.633-6.748l-1.573,10.871l30.487,1.396c-6.908,33.7-17.599,46.798-28.838,56.952
	c24.924-2.941,45.517-14.965,54.122-52.098l16.683,8.941l-20.305,52.893c10.585,19.288,25.165,22.022,43.063,11.038l-3.792-7.249
	l6.702-7.309l-23.146-1.521l20.778-40.044l15.082,9.926l-0.271,0.458l1.109,0.093l7.496,4.934l3.8-3.985l28.411,2.387
	c4.62-3.94,17.028-11.971,23.428-13.357c5.634-1.215,37.906-2.814,53.439,11.089c-4.904-7.963-9.668-16.402-14.239-25.19
	c-16.509-2.28-44.946-0.479-56.279,3.157H487.021z M444.714,340.659l-34.876-20.91l10.001-20.393l37.074,20.601L444.714,340.659z"/>
<path fill="#478ACA" d="M501.241,411.213c-12.818-1.139-35.763-17.023-34.088-28.272c-8.253,1.931-17.021,4.899-26.935,10.155
	c5.431,11.408,15.184,25.593,36.724,28.938c42.21,4.821,64.109-0.103,84.206-9.869c10.404-5.058,20.396-12.69,27.334-20.77
	c-8.172-8.599-16.268-18.973-24.084-30.645C568.842,379.446,547.218,415.305,501.241,411.213L501.241,411.213z"/>
<path fill="#478ACA" d="M230.593,403.234c20.739-40.612,22.229-69.759,25.719-109.439c-28.044-13.298-42.967,1.65-67.602,4.331
	l21.179,1.56c-31.243,42.113-7.975,93.385-6.439,103.714c7.409-5.505,15.989-7.117,27.146-0.165H230.593z"/>
<path fill="#478ACA" d="M175.446,407.152c7.942-32.438,9.029-62.666,0.79-89.891c-5.626,24.25-14.156,48.297-26.769,70.077
	c2.083,5.936,4.165,11.905,6.247,17.838l19.732,1.975L175.446,407.152z"/>
<path fill="#478ACA" d="M316.472,301.248l5.182-5.942l-22-6.507l-6.786,8.271l-26.937,3.166l1.614,7.028l24.516-0.256l3.525,66.354
	c-31.311,15.139-63.822,26.572-92,49.537c14.359-3.932,28.718-9.385,43.075-16.359l12.584,5.433l53.854-33.108
	c13.227,17.538,42.474,33.363,80.706,48.231l11.144-12.911c-29.996-13.496-62.563-23.401-89.992-40.486L316.472,301.248
	L316.472,301.248z"/>
<path fill="#478ACA" d="M324.47,269.674c-14.457-12.534-32.904-17.096-53.163-18.033l32.106,28.166
	C314.993,283.466,322.015,280.088,324.47,269.674z"/>
</svg>
