<?xml version="1.0" standalone="no"?><!DOCTYPE svg PUBLIC "-//W3C//DTD SVG 1.1//EN" "http://www.w3.org/Graphics/SVG/1.1/DTD/svg11.dtd"><svg t="1504663889766" class="icon" style="" viewBox="0 0 1024 1024" version="1.1" xmlns="http://www.w3.org/2000/svg" p-id="2387" xmlns:xlink="http://www.w3.org/1999/xlink" width="200" height="200"><defs><style type="text/css"></style></defs><path d="M948.736 403.968c0-51.2-292.352-58.88-292.352-58.88S571.904 71.68 512 71.68 368.128 345.088 368.128 345.088s-292.352-1.024-292.352 58.88S279.04 631.808 279.04 631.808s-66.56 278.528-36.864 310.272c29.696 31.232 269.824-132.608 269.824-132.608s234.496 169.984 269.824 132.608c35.328-37.376-36.864-309.76-36.864-309.76s203.776-176.64 203.776-228.352zM454.144 457.216c-126.464 50.688-222.72 8.192-246.784 0.512-27.136-8.704-44.544-17.408-34.304-31.232 9.728-13.824 79.36-9.216 109.568-11.776 35.328-3.072 61.44-6.656 96.256-15.872 77.824-20.48 103.936-132.608 111.104-186.368 8.704-65.536 37.376-73.728 43.52-35.84 15.36 92.16 21.504 240.128-79.36 280.576z" fill="#FFD200" p-id="2388"></path></svg>