<?xml version="1.0" standalone="no"?><!DOCTYPE svg PUBLIC "-//W3C//DTD SVG 1.1//EN" "http://www.w3.org/Graphics/SVG/1.1/DTD/svg11.dtd"><svg t="1504663957931" class="icon" style="" viewBox="0 0 1042 1024" version="1.1" xmlns="http://www.w3.org/2000/svg" p-id="4029" xmlns:xlink="http://www.w3.org/1999/xlink" width="203.515625" height="200"><defs><style type="text/css"></style></defs><path d="M243.705239 211.843215l67.139831 67.138361-55.915074 55.913604-67.136891-67.138361zM94.654227 491.496483h111.850725v74.518157H94.654227zM467.391991 122.433185h74.518157v108.029281H467.391991zM821.316492 267.795034l-55.851873-55.851873-67.169226 67.022247 52.324386 52.177408zM698.295393 778.398737l67.169226 67.022248 52.177408-52.03043-67.022248-67.169226zM802.797187 491.496483h111.850725v74.518157h-111.850725zM504.57758 305.127602c-123.021099 0-223.554471 100.68035-223.554471 223.554471 0 123.021099 100.68035 223.554471 223.554471 223.554471 123.021099 0 223.554471-100.68035 223.554471-223.554471 0.146979-122.874121-100.533372-223.554471-223.554471-223.554471M467.391991 826.901679h74.518157v108.029281H467.391991zM187.838668 789.569112l55.851873 55.851873 67.169226-67.022248-52.177407-52.177408z" fill="#FFD522" p-id="4030"></path></svg>