<?xml version="1.0" standalone="no"?><!DOCTYPE svg PUBLIC "-//W3C//DTD SVG 1.1//EN" "http://www.w3.org/Graphics/SVG/1.1/DTD/svg11.dtd"><svg t="1504664083638" class="icon" style="" viewBox="0 0 1024 1024" version="1.1" xmlns="http://www.w3.org/2000/svg" p-id="4781" xmlns:xlink="http://www.w3.org/1999/xlink" width="200" height="200"><defs><style type="text/css"></style></defs><path d="M67.296 385.664l428.736 532.128-171.936-532.128-256.8 0zM370.688 385.664l151.84 533.216 130.656-533.216-282.496 0zM545.632 917.792l412.736-532.128-254.816 0-157.92 532.128zM959.328 350.848l-123.744-211.584-123.808 211.584 247.552 0zM796.672 127.136l-247.552 0 123.744 218.848 123.808-218.848zM634.816 350.848l-123.744-211.584-123.776 211.584 247.52 0zM474.848 127.136l-247.52 0 123.776 218.848 123.744-218.848zM188.448 139.264l-123.744 211.584 247.52 0-123.776-211.584z" p-id="4782" fill="#58bef4"></path></svg>