<?xml version="1.0" standalone="no"?><!DOCTYPE svg PUBLIC "-//W3C//DTD SVG 1.1//EN" "http://www.w3.org/Graphics/SVG/1.1/DTD/svg11.dtd"><svg t="1504664123322" class="icon" style="" viewBox="0 0 1024 1024" version="1.1" xmlns="http://www.w3.org/2000/svg" p-id="5605" xmlns:xlink="http://www.w3.org/1999/xlink" width="200" height="200"><defs><style type="text/css"></style></defs><path d="M953.484482 477.156424c-19.84293-83.992973-95.55224-92.619444-140.181693-79.124082-30.694069-140.045593-181.362604-137.339971-254.039857-50.414203-17.35425-35.510772-24.877597-82.643232-26.071795-109.295242 22.101367 1.354857 44.727691 5.107321 65.886593 11.743462 8.15575-20.893866 8.15575-54.940286 0-75.889411-21.158902 6.625908-43.785226 10.32209-65.886593 11.850909 1.194198-26.762527 4.26514-54.238298 9.780761-79.888492-8.682753-4.983501-20.010753-7.390317-31.31931-7.390317-11.326976 0-22.654976 2.406816-31.315216 7.390317 5.493108 25.650193 8.56098 53.125965 9.773598 79.888492-22.096251-1.527796-44.701085-5.225001-65.878406-11.850909-8.133238 20.949124-8.133238 54.995545 0 75.889411 21.178345-6.636141 43.788296-10.388605 65.878406-11.743462-1.159406 26.65201-8.691963 73.779354-26.088168 109.295242-72.634274-86.926792-223.326345-89.63139-254.015298 50.414203-44.659129-13.501502-120.314203-4.868891-140.138714 79.124082-26.452465 111.878067 78.710666 165.695786 147.906631 278.394544 28.606525 46.598294 33.616632 95.724155 37.106106 128.771829 2.489704 23.364127 11.105942 33.992185 34.047444 33.992185L511.646448 918.314982l222.73999 0c22.925129 0 31.517831-10.628058 34.012651-33.992185 3.462868-33.047674 8.567119-82.173534 37.106106-128.771829C874.755396 642.85221 979.893968 589.033467 953.484482 477.156424L953.484482 477.156424zM285.335119 784.604678c-42.602284-128.483256-144.30357-200.207811-128.788202-274.631848 6.217608-29.528524 24.610514-48.016597 52.786227-49.01432 19.434631 96.145757 110.969371 173.266206 144.343479 302.694997C324.297502 769.935584 311.230905 774.74103 285.335119 784.604678L285.335119 784.604678zM405.233859 754.491847c-17.718547-138.872884-124.430964-223.977167-78.149894-325.232293 25.504884-55.878658 87.710644-54.464449 122.924657-27.528983-31.368428 118.92046 29.046546 202.794729 32.719192 343.491145C463.658504 745.748718 428.783205 751.092423 405.233859 754.491847L405.233859 754.491847zM540.579407 745.221716c3.698229-140.696416 64.064085-224.570685 32.69668-343.491145 35.239596-26.934442 97.467869-28.341488 122.927727 27.528983 46.297442 101.255125-60.440557 186.359408-78.124312 325.232293C594.554716 751.092423 559.650765 745.748718 540.579407 745.221716L540.579407 745.221716zM737.954707 784.604678c-25.901926-9.863648-38.966477-14.677281-68.303642-20.952194 33.379225-129.420605 124.869962-206.544123 144.324036-302.694997 28.175713 0.997724 46.566572 19.485797 52.81488 49.01432C882.303302 584.395844 780.57848 656.121422 737.954707 784.604678L737.954707 784.604678zM737.954707 784.604678" p-id="5606" fill="#d81e06"></path></svg>