<?xml version="1.0" standalone="no"?><!DOCTYPE svg PUBLIC "-//W3C//DTD SVG 1.1//EN" "http://www.w3.org/Graphics/SVG/1.1/DTD/svg11.dtd"><svg t="1494471696026" class="icon" style="" viewBox="0 0 1024 1024" version="1.1" xmlns="http://www.w3.org/2000/svg" p-id="6230" xmlns:xlink="http://www.w3.org/1999/xlink" width="700" height="700"><defs><style type="text/css"></style></defs><path d="M512.001024 0c282.769838 0 511.998464 229.230674 511.998464 511.999488s-229.228626 511.999488-511.998464 511.999488C229.231185 1024 0.000512 794.768303 0.000512 511.999488S229.231185 0 512.001024 0z" fill="#D45846" p-id="6231"></path><path d="M307.881422 541.606966c-7.485819 15.906341-20.922822 26.255649-40.305891 31.042805-7.102928 1.728127-25.146904 3.261737-54.124763 4.602878-2.114089 3.255594-3.16755 7.570792-3.167549 12.93126 0 4.409385 0.67057 9.394129 2.015806 14.949114 0.382891 1.151743 1.53361 2.205204 3.45523 3.163455 1.915477 0.95825 3.06722 1.627797 3.454206 2.009664 6.140583 0.576383 20.054664 2.87987 41.745314 6.902269a10.803863 10.803863 0 0 1 1.151743 4.884414c0 0.192469-1.538729 5.078931-4.606972 14.660411a35.483927 35.483927 0 0 1-3.022174 2.157087c-1.057556 0.665452-2.159135 0.906038-3.310878 0.715616-15.739466-1.345236-37.525328-1.82129-65.35349-1.439423-31.09297 0.381867-52.877808 0.28768-65.352466-0.287679-1.538729-2.297344-2.303486-5.267305-2.303487-8.909886 0-4.214868 0.864063-8.525971 2.591166-12.933307 3.454206-1.151743 7.098833-2.349556 10.940025-3.595487 3.837096-1.241835 5.852903-3.495157 6.045372-6.756893 0.959274-16.478629 1.439423-36.406345 1.439423-59.788267 0.189398-20.117114 0.28768-40.143112 0.287679-60.072876-1.728127-1.340117-5.663505-2.77954-11.803063-4.31315-4.993958-1.147648-8.160484-3.159359-9.500602-6.036158 0.381867-1.529515 0.381867-3.639508 0-6.324861-0.386986-3.447039-0.576383-5.557033-0.576383-6.320767 0-3.257642 1.341141-5.460798 4.030589-6.612541 38.192827 2.495955 87.809922 2.495955 148.845143 0 15.546997 1.915477 26.386692 6.516307 32.532394 13.797371 8.061178 9.579432 12.091768 22.231202 12.091767 37.94405-0.001024 12.074363-2.401768 23.28364-7.198139 33.630901z m-68.520016-46.793533c-2.690472-5.370706-6.621755-9.306085-11.804087-11.803064-4.224082-1.915477-8.448164-1.627797-12.667128 0.864063-1.345236 7.871781-2.015806 18.331656-2.015806 31.38065l-0.576383 32.532393c0.382891 0.193493 0.527242 0.817994 0.432031 1.871455-0.099306 1.055509 0.238539 1.583775 1.007392 1.583775 9.019429 1.344212 16.504224-1.629845 22.456432-8.926266 4.988839-5.94709 7.485819-13.913057 7.485818-23.894831 0-7.867686-1.439423-15.735371-4.318269-23.608175zM563.821276 619.186337c0 2.496979-0.674666 5.570342-2.014783 9.213946-1.728127 4.799442-2.690472 7.678288-2.87987 8.636538-0.386986 0-0.913204 0.193493-1.583774 0.576383-0.674666 0.381867-1.200884 0.478101-1.583775 0.28768-20.539932-2.685353-45.680693-2.591166-75.429452 0.28768-9.789305-20.727282-23.608175-47.309514-41.457634-79.74772-3.265832-1.915477-5.088145-2.87987-5.470013-2.87987-0.769876 0-1.394377 0.243658-1.871454 0.719711-0.482196 0.478101-1.394377 2.245131-2.735518 5.305185a936.376404 936.376404 0 0 0-0.864064 23.526274c-0.386986 9.180161 0.095211 16.831831 1.439423 22.950914 1.728127 2.869632 5.94709 4.686827 12.668151 5.452608 5.94709 0.574336 9.401296 2.775445 10.363641 6.598209 0 10.139435-1.538729 16.162284-4.605949 18.073665-21.116315-1.340117-56.815234-1.43328-107.098805-0.28768-0.768853-0.377772-2.113065-1.523372-4.030589-3.440896-0.193493-5.928662-0.193493-9.467841 0-10.619584 0.576383-4.206678 2.878846-6.600256 6.909435-7.17664 5.757692-2.48367 9.402319-5.353302 10.941049-8.60992 3.261737-50.697175 4.124776-91.835393 2.590142-123.404417-1.538729-2.295296-4.893629-3.872928-10.076985-4.736991-5.182332-0.859968-8.542351-2.343413-10.075961-4.449312 0-1.141505-0.099306-2.911607-0.28768-5.303137-0.193493-2.393578-0.28768-4.160608-0.28768-5.312352 0-4.01728 1.439423-6.600256 4.318269-7.751999 0.576383 0 0.864063-0.281537 0.864064-0.857921a1010.468809 1010.468809 0 0 0 48.07939 1.151743c19.959453 0 40.113423-0.765781 60.459862-2.303486 2.685353 1.537705 4.030589 3.841191 4.030589 6.908411 0 1.539753-0.386986 3.742909-1.151743 6.62278-0.768853 2.87987-1.251049 4.799442-1.439423 5.756668-1.537705 2.115112-4.893629 3.937426-10.075962 5.471036-5.183356 1.539753-8.448164 3.742909-9.789304 6.622779l-1.728127 21.879025c-0.576383 8.638586-0.481173 15.834677 0.28768 21.593393 1.151743 0.769876 2.303486 1.151743 3.455229 1.151743 1.340117 0 3.309854-0.621429 5.902044-1.861217 2.591166-1.241835 4.461597-1.961547 5.61334-2.15504 15.160011-15.294125 29.078188-30.683462 41.745315-46.172103 0.576383-0.765781 0.864063-1.529515 0.864063-2.295296 0-0.763734-0.625525-1.911382-1.871454-3.440897-1.251049-1.527467-1.871455-2.769302-1.871455-3.7296-0.768853-8.217815-0.576383-13.283438 0.576384-15.198915h19.289906c8.061178 0.385962 14.777121 0.385962 20.152946 0h9.213945c2.303486 0.385962 4.124776 0.385962 5.470012 0 1.341141 0.192469 3.26276-0.096235 5.758716-0.864063 2.49186-0.765781 4.124776-1.151743 4.893629-1.151743 1.916501 0 3.455229 0.673642 4.606972 2.015806 0.763734 2.301439 1.150719 4.992935 1.15072 8.060155 0 2.87987-0.386986 5.568294-1.15072 8.062202-1.538729 2.877822-4.417575 4.992935-8.637561 6.333051-6.527568 2.115112-10.175267 3.361042-10.941049 3.74291-19.771079 16.892233-33.589949 32.150526-41.457635 45.775904 20.15397 31.669354 39.631226 59.594774 58.444055 83.779333 1.151743 1.537705 3.261737 2.8338 6.334076 3.887261 3.068244 1.053461 5.083026 2.156063 6.045372 3.307806zM700.282877 634.732311c-0.576383 1.728127-2.113065 2.979176-4.605949 3.742909-34.359826-2.49186-72.649911-2.685353-114.872303-0.576383-3.264808-1.340117-4.893629-3.643603-4.893629-6.908412 0-1.151743 0.381867-3.356947 1.151743-6.622779 0.764757-3.261737 1.052437-5.658386 0.864063-7.196091 2.302463-1.728127 6.189724-2.924916 11.659736-3.599582 5.471036-0.669547 9.16378-1.728127 11.084376-3.167549 1.916501-1.439423 2.973033-3.117385 3.166526-5.039004 2.492884-39.343546 3.742909-64.489427 3.74291-75.429452 0-11.515384-0.481173-22.069447-1.439423-31.669353-2.495955-2.87987-6.720037-4.70116-12.667128-5.471036-8.061178-1.151743-12.861644-2.015806-14.395254-2.589119-1.151743-1.728127-1.728127-3.551464-1.728126-5.471036 0-1.342165 0.332726-3.405065 1.007391-6.190747 0.669547-2.77954 1.007391-4.844488 1.007392-6.1887 13.243511-2.493908 30.323094-5.085074 51.245916-7.774523 31.282368-4.031613 48.462281-6.23477 51.53462-6.620731 0.764757 0.192469 1.53361 1.005344 2.302462 2.44579 0.764757 1.439423 1.151743 2.835848 1.151743 4.174941 0 2.689448-1.344212 5.664529-4.030589 8.926266-4.031613 5.374801-6.145702 8.160484-6.335099 8.347834-1.150719 12.667127-2.689448 54.893615-4.605949 126.675368 3.261737 1.537705 7.961873 2.87987 14.10655 4.031613 6.909435 1.345236 11.610595 2.495955 14.107574 3.455229 2.109993 1.919572 3.166526 4.317245 3.166526 7.196091 0 1.345236-0.28768 3.310878-0.864063 5.903068s-0.862016 4.465692-0.862016 5.615388zM904.97579 460.265233c0.576383 1.539753 0.864063 3.073363 0.864064 4.606972 0 2.113065-2.402792 7.965968-7.197115 17.56178-0.768853 1.151743-3.072339 2.113065-6.909436 2.87987-3.072339 0.769876-4.605949 2.113065-4.605948 4.031613 0 0.767829 0.094187 1.537705 0.287679 2.301439 12.667127 11.517432 19.001203 28.02575 19.001203 49.518813 0 14.588747-3.166526 33.01459-9.500601 55.277529-3.072339 10.75165-9.837422 20.201063-20.296274 28.357452-10.463971 8.160484-21.448017 13.193346-32.964425 15.114966-14.395254 2.49186-27.450391 3.742909-39.154149 3.742909-33.783442 0-57.966977-9.977679-72.550605-29.941227-9.599907-16.69874-14.395254-36.08181-14.395254-58.157399 0-26.097988 6.334076-48.748937 19.001203-67.942609 11.898275-14.009292 28.308311-22.550619 49.231133-25.623982 11.898275-1.915477 31.669354-2.109993 59.308119-0.576383 26.293529 1.539753 45.582411 1.057556 57.867671-1.439423 0.380843 0.193493 1.05039 0.28768 2.012735 0.28768z m-71.974221 58.732758l-6.909436-19.577586c-3.647699-7.098833-9.023524-10.747555-16.122356-10.940024-9.981774 2.495955-16.221663 10.174243-18.712499 23.030768-3.265832 16.316873-4.894652 31.09297-4.894653 44.336481 0 22.650949 4.79637 41.844621 14.395254 57.581015 3.455229 2.87987 7.098833 4.319293 10.941048 4.319293 4.218963 0 8.825936-2.975081 13.818871-8.926265 7.292326-16.122357 10.941048-34.44787 10.941048-54.987802-0.002048-11.516408-1.153791-23.125979-3.457277-34.83588z" fill="#FFFFFF" p-id="6232"></path><path d="M413.419999 394.412142h-67.304799v-12.916927h32.632723V278.157747h-32.632723v-12.237143h32.632723v-19.715796l34.672076-8.838221v157.045555z m91.099301-116.254395h-31.273154v103.337468h31.273154v12.916927h-66.625014V246.204808l35.35186-8.838221v28.554017h31.273154v12.237143zM677.880705 246.884593v12.237143H519.476605v-12.237143H677.880705zM520.836174 394.412142l15.636065-63.226092h29.233801l-15.636066 63.226092h-29.2338z m63.226092-18.356226v-53.708088h-54.387871v-55.067655H667.683938v55.067655h-53.028302v72.064314h-36.031645l5.438275-18.356226z m-26.514663-65.945231h82.262103v-30.593369h-82.262103v30.593369z m53.028303-78.862157v13.596712H584.062266v-0.679785l26.51364-12.916927z m65.265445 163.163614h-28.554016l-15.636065-63.226092h28.554016l15.636065 63.226092z" fill="#FFFFFF" p-id="6233"></path><path d="M302.337699 696.278394l0.208849 53.053897 30.557538-0.117734 0.027642 7.220662-38.701642 0.151518-0.234444-60.276606 8.142057-0.031737zM396.646524 726.047627c0.032761 8.060155-2.013759 14.980851-6.130345 20.761067-5.232497 7.352728-12.943546 11.045473-23.127003 11.0854-10.131245 0.039927-17.841269-3.593439-23.12905-10.905217-4.219987-5.804786-6.345337-12.707054-6.377074-20.710901-0.030713-8.058107 2.010688-14.978804 6.130345-20.759019 5.231473-7.350681 12.940474-11.04752 23.127003-11.087447 10.129197-0.03788 17.840246 3.597534 23.12905 10.907263 4.218963 5.804786 6.345337 12.707054 6.377074 20.708854z m-8.395952 0.032761c-0.027642-7.220662-1.898073-13.059232-5.609245-17.5239-3.881119-4.630519-9.03888-6.930934-15.473285-6.906364-6.437476 0.025594-11.534836 2.324986-15.294126 6.902269-3.75929 4.575236-5.623578 10.473184-5.59696 17.693846 0.026618 7.218614 1.941071 13.101206 5.736193 17.647777 3.795122 4.54657 8.911933 6.806034 15.345314 6.78044 6.435429-0.023547 11.53586-2.323962 15.295149-6.900222 3.761337-4.575236 5.625625-10.474208 5.59696-17.693846zM401.006767 703.111046l-0.027641-7.218614 48.940382-0.192469 0.029689 7.218614-20.399675 0.079854 0.206802 53.057992-8.142056 0.031737-0.207826-53.055944-20.399675 0.07883zM452.29773 702.911411l-0.02969-7.218614 48.943454-0.19247 0.026618 7.218615-20.399675 0.079854 0.206802 53.055944-8.142056 0.031737-0.205779-53.055944-20.399674 0.080878zM554.306342 748.34947l0.026618 7.218614-44.493118 0.174042-0.234444-60.274559 43.905473-0.171994 0.028666 7.220662-35.764441 0.140257 0.071664 18.467817 32.994114-0.127971 0.026619 7.218614-32.992067 0.127972 0.079854 20.149874 36.351062-0.143328zM598.611086 737.849668l-24.220391 0.094187-6.173343 17.582255-8.428713 0.021499 22.430838-60.364651 9.233397-0.035832 22.06228 60.19061-8.846411 0.014332-6.057657-17.5024z m-21.803266-7.134665l18.806686-0.07576-9.010215-26.527972-9.796471 26.603732zM630.035758 729.415836l0.104425 25.856378-8.145128 0.031737-0.234444-60.274559 27.873209-0.111591c5.761787-0.020475 10.299143 1.051414 13.611044 3.220786 4.152418 2.727328 6.240912 7.026145 6.263436 12.903619 0.01638 3.975306-0.868158 7.194044-2.649522 9.665428-1.223407 1.682057-3.120456 3.287331-5.689099 4.806608 2.355699 0.943918 3.980424 1.943119 4.881344 3.003746 1.572513 1.78341 2.367984 4.552713 2.38334 8.301765l0.546694 10.911359c0.006143 1.735293 0.192469 2.993508 0.561027 3.773622 0.363439 0.786257 1.193718 1.535658 2.484694 2.257417l0.006143 1.344212-9.993036 0.03788c-0.507791-1.673867-0.882491-4.036732-1.116935-7.088595-0.236491-3.047768-0.357296-5.718789-0.367534-8.014085-0.011261-3.245356-0.581502-5.65122-1.706627-7.214519-1.6882-2.343413-4.714469-3.505394-9.079831-3.489014l-19.7332 0.077806z m-0.106472-27.452438l0.079854 20.483624 18.887564-0.073711c3.693768-0.014333 6.490713-0.641905 8.389809-1.879645 2.565572-1.63394 3.842215-4.493334 3.826859-8.578183-0.01638-4.084849-1.314523-6.906364-3.895452-8.464545-1.739388-1.055509-4.066421-1.57968-6.974956-1.567394l-20.313678 0.079854zM707.192312 730.710907l0.096235 24.258271-8.144104 0.029689-0.094187-24.25827-22.893583-35.926197 9.519029-0.058355 17.417428 28.893909 17.163533-28.991167 9.544623-0.05426-22.608974 36.10638z" fill="#FFFFFF" p-id="6234"></path></svg>