<svg xmlns="http://www.w3.org/2000/svg" xmlns:xlink="http://www.w3.org/1999/xlink" preserveAspectRatio="xMidYMid" width="21" height="26" viewBox="0 0 21 26">
  <defs>
    <style>
      .cls-1 {
        fill: #ed5a61;
        fill-rule: evenodd;
      }
    </style>
  </defs>
  <path d="M19.051,26.006 L1.957,26.006 C0.879,26.006 0.002,25.131 0.002,24.054 L0.002,1.957 C0.002,0.880 0.879,0.005 1.957,0.005 L14.371,0.005 C14.372,0.005 14.374,0.006 14.375,0.006 C14.376,0.006 14.376,0.006 14.376,0.006 C14.483,0.007 14.580,0.051 14.649,0.122 C14.650,0.123 14.651,0.123 14.651,0.123 L20.896,6.530 C20.909,6.543 20.915,6.561 20.926,6.576 C20.944,6.601 20.965,6.625 20.977,6.655 C20.991,6.690 20.995,6.727 20.999,6.764 C21.000,6.777 21.006,6.788 21.006,6.802 L21.006,6.806 C21.006,6.807 21.006,6.808 21.006,6.808 L21.006,24.054 C21.006,25.131 20.130,26.006 19.051,26.006 ZM14.762,1.356 L14.762,6.411 L19.689,6.411 L14.762,1.356 ZM20.224,7.192 L14.371,7.192 C14.155,7.192 13.980,7.017 13.980,6.802 L13.980,0.786 L1.957,0.786 C1.310,0.786 0.784,1.311 0.784,1.957 L0.784,24.054 C0.784,24.700 1.310,25.225 1.957,25.225 L19.051,25.225 C19.698,25.225 20.224,24.700 20.224,24.054 L20.224,7.192 ZM15.018,16.245 L10.768,20.140 C10.694,20.209 10.599,20.243 10.504,20.243 C10.409,20.243 10.315,20.209 10.240,20.140 L5.990,16.245 C5.371,15.678 5.029,14.921 5.029,14.113 C5.029,13.306 5.371,12.548 5.990,11.981 C7.123,10.942 8.966,10.943 10.096,11.981 L10.504,12.354 L10.911,11.981 C12.043,10.942 13.887,10.942 15.018,11.981 C15.637,12.549 15.978,13.306 15.978,14.113 C15.978,14.921 15.637,15.678 15.018,16.245 ZM14.490,12.555 C13.649,11.785 12.282,11.785 11.441,12.555 L10.770,13.170 C10.620,13.307 10.391,13.307 10.241,13.170 L9.569,12.555 C9.148,12.170 8.596,11.977 8.044,11.977 C7.492,11.977 6.941,12.170 6.520,12.555 C6.064,12.973 5.813,13.526 5.813,14.112 C5.813,14.699 6.064,15.252 6.520,15.670 L10.505,19.322 L14.490,15.670 C14.946,15.252 15.196,14.699 15.196,14.112 C15.196,13.526 14.946,12.973 14.490,12.555 Z" class="cls-1"/>
</svg>
