<svg xmlns="http://www.w3.org/2000/svg" xmlns:xlink="http://www.w3.org/1999/xlink" preserveAspectRatio="xMidYMid" width="21" height="26" viewBox="0 0 21 26">
  <defs>
    <style>
      .cls-1 {
        fill: #fdb452;
        fill-rule: evenodd;
      }
    </style>
  </defs>
  <path d="M19.051,26.006 L1.957,26.006 C0.880,26.006 0.002,25.131 0.002,24.054 L0.002,1.958 C0.002,0.881 0.880,0.005 1.957,0.005 L14.371,0.005 C14.481,0.005 14.579,0.051 14.650,0.124 C14.650,0.125 14.651,0.124 14.651,0.125 L20.890,6.525 C20.891,6.526 20.892,6.527 20.893,6.528 L20.896,6.531 C20.904,6.540 20.907,6.551 20.915,6.560 C20.939,6.590 20.962,6.620 20.977,6.656 C20.990,6.689 20.993,6.723 20.997,6.758 C20.999,6.773 21.006,6.786 21.006,6.802 C21.006,6.802 21.006,6.802 21.006,6.803 C21.006,6.803 21.006,6.803 21.006,6.803 L21.006,6.808 C21.006,6.808 21.006,6.809 21.006,6.810 L21.006,24.055 C21.006,25.131 20.130,26.006 19.051,26.006 ZM14.762,1.357 L14.762,6.412 L19.688,6.412 L14.762,1.357 ZM20.224,7.193 L14.371,7.193 C14.155,7.193 13.980,7.018 13.980,6.803 L13.980,0.786 L1.957,0.786 C1.310,0.786 0.784,1.312 0.784,1.958 L0.784,24.054 C0.784,24.700 1.310,25.225 1.957,25.225 L19.051,25.225 C19.698,25.225 20.224,24.700 20.224,24.054 L20.224,7.193 ZM15.352,13.619 L13.550,15.419 C13.164,15.807 12.650,16.019 12.101,16.019 C11.885,16.019 11.710,15.844 11.710,15.629 C11.710,15.413 11.885,15.238 12.101,15.238 C12.440,15.238 12.758,15.107 12.997,14.867 L14.799,13.067 C15.038,12.828 15.170,12.511 15.170,12.173 C15.170,11.835 15.038,11.517 14.799,11.278 C14.320,10.801 13.486,10.801 13.008,11.278 L11.205,13.078 C10.966,13.317 10.835,13.635 10.835,13.973 C10.835,14.189 10.659,14.364 10.444,14.364 C10.228,14.364 10.053,14.189 10.053,13.973 C10.053,13.427 10.265,12.913 10.652,12.526 L12.455,10.726 C13.229,9.953 14.579,9.953 15.352,10.726 C15.739,11.112 15.952,11.626 15.952,12.173 C15.952,12.720 15.739,13.233 15.352,13.619 ZM8.005,18.456 C7.905,18.456 7.805,18.418 7.728,18.342 C7.575,18.189 7.575,17.942 7.728,17.790 L12.727,12.796 C12.879,12.644 13.127,12.644 13.280,12.796 C13.432,12.948 13.432,13.196 13.280,13.348 L8.281,18.342 C8.205,18.418 8.105,18.456 8.005,18.456 ZM8.909,15.899 C8.908,15.899 8.906,15.899 8.906,15.899 C8.568,15.899 8.251,16.030 8.013,16.270 L6.210,18.069 C5.717,18.563 5.717,19.365 6.210,19.858 C6.689,20.335 7.521,20.336 8.002,19.858 L9.804,18.058 C10.043,17.819 10.175,17.501 10.175,17.163 C10.175,16.948 10.350,16.773 10.566,16.773 C10.781,16.773 10.957,16.948 10.957,17.163 C10.957,17.710 10.744,18.224 10.357,18.610 L8.554,20.411 C8.167,20.797 7.652,21.010 7.105,21.010 C6.558,21.010 6.044,20.798 5.657,20.411 C4.858,19.613 4.858,18.314 5.657,17.517 L7.459,15.718 C7.845,15.331 8.358,15.118 8.906,15.118 C8.906,15.118 8.908,15.118 8.909,15.118 C9.125,15.119 9.300,15.294 9.300,15.509 C9.300,15.724 9.125,15.899 8.909,15.899 Z" class="cls-1"/>
</svg>
