<svg xmlns="http://www.w3.org/2000/svg" xmlns:xlink="http://www.w3.org/1999/xlink" preserveAspectRatio="xMidYMid" width="21" height="26" viewBox="0 0 21 26">
  <defs>
    <style>
      .cls-1 {
        fill: #93f183;
        fill-rule: evenodd;
      }
    </style>
  </defs>
  <path d="M19.052,26.006 L1.957,26.006 C0.879,26.006 0.002,25.131 0.002,24.054 L0.002,1.958 C0.002,0.881 0.879,0.005 1.957,0.005 L14.371,0.005 C14.373,0.005 14.375,0.006 14.377,0.006 C14.377,0.006 14.377,0.006 14.377,0.006 C14.484,0.008 14.581,0.053 14.651,0.124 C14.651,0.125 14.652,0.124 14.652,0.125 L20.890,6.525 C20.891,6.526 20.892,6.527 20.893,6.528 L20.896,6.531 C20.904,6.540 20.907,6.551 20.915,6.560 C20.939,6.590 20.962,6.620 20.977,6.656 C20.990,6.689 20.993,6.723 20.997,6.758 C20.999,6.773 21.006,6.786 21.006,6.802 C21.006,6.802 21.006,6.802 21.006,6.803 C21.006,6.803 21.006,6.803 21.006,6.803 L21.006,6.808 C21.006,6.808 21.006,6.809 21.006,6.810 L21.006,24.055 C21.006,25.131 20.130,26.006 19.052,26.006 ZM14.762,1.357 L14.762,6.412 L19.688,6.412 L14.762,1.357 ZM20.224,7.193 L14.371,7.193 C14.155,7.193 13.980,7.018 13.980,6.803 L13.980,0.786 L1.957,0.786 C1.310,0.786 0.784,1.312 0.784,1.958 L0.784,24.054 C0.784,24.700 1.310,25.225 1.957,25.225 L19.052,25.225 C19.698,25.225 20.224,24.700 20.224,24.054 L20.224,7.193 ZM10.505,20.042 C7.487,20.042 5.031,17.589 5.031,14.575 C5.031,11.561 7.487,9.108 10.505,9.108 C13.523,9.108 15.978,11.561 15.978,14.575 C15.978,17.589 13.523,20.042 10.505,20.042 ZM5.813,14.575 C5.813,17.159 7.917,19.261 10.505,19.261 C12.958,19.261 14.954,17.365 15.157,14.966 L10.505,14.966 C10.289,14.966 10.114,14.791 10.114,14.575 L10.114,9.929 C7.712,10.131 5.813,12.125 5.813,14.575 ZM10.896,9.929 L10.896,14.185 L15.157,14.185 C14.965,11.917 13.166,10.120 10.896,9.929 Z" class="cls-1"/>
</svg>
