<svg xmlns="http://www.w3.org/2000/svg" xmlns:xlink="http://www.w3.org/1999/xlink" preserveAspectRatio="xMidYMid" width="21" height="26" viewBox="0 0 21 26">
  <defs>
    <style>
      .cls-1 {
        fill: #6f73e6;
        fill-rule: evenodd;
      }
    </style>
  </defs>
  <path d="M19.051,26.006 L1.957,26.006 C0.880,26.006 0.002,25.131 0.002,24.054 L0.002,1.958 C0.002,0.881 0.880,0.005 1.957,0.005 L14.371,0.005 C14.373,0.005 14.374,0.006 14.376,0.006 C14.376,0.006 14.376,0.006 14.376,0.006 C14.484,0.008 14.580,0.053 14.650,0.124 C14.650,0.125 14.651,0.124 14.651,0.125 L20.890,6.525 C20.891,6.526 20.892,6.527 20.893,6.528 L20.896,6.531 C20.904,6.540 20.907,6.551 20.915,6.560 C20.939,6.590 20.962,6.620 20.977,6.656 C20.990,6.689 20.993,6.723 20.997,6.758 C20.999,6.773 21.006,6.786 21.006,6.802 C21.006,6.802 21.006,6.802 21.006,6.803 C21.006,6.803 21.006,6.803 21.006,6.803 L21.006,6.808 C21.006,6.808 21.006,6.809 21.006,6.810 L21.006,24.055 C21.006,25.131 20.130,26.006 19.051,26.006 ZM14.762,1.357 L14.762,6.412 L19.688,6.412 L14.762,1.357 ZM20.224,7.193 L14.371,7.193 C14.155,7.193 13.980,7.018 13.980,6.803 L13.980,0.786 L1.957,0.786 C1.310,0.786 0.784,1.312 0.784,1.958 L0.784,24.054 C0.784,24.700 1.310,25.225 1.957,25.225 L19.051,25.225 C19.698,25.225 20.224,24.700 20.224,24.054 L20.224,7.193 ZM12.814,16.798 L13.926,20.215 C13.978,20.376 13.921,20.553 13.783,20.652 C13.716,20.701 13.636,20.727 13.555,20.727 C13.475,20.727 13.394,20.702 13.325,20.652 L10.414,18.540 L7.503,20.652 C7.365,20.751 7.181,20.751 7.043,20.652 C6.906,20.553 6.848,20.376 6.901,20.215 L8.013,16.798 L5.101,14.684 C4.964,14.585 4.906,14.409 4.958,14.248 C5.011,14.087 5.161,13.978 5.330,13.978 L8.929,13.978 L10.041,10.560 C10.093,10.399 10.243,10.290 10.413,10.290 C10.583,10.290 10.733,10.399 10.785,10.560 L11.897,13.978 L15.497,13.978 C15.666,13.978 15.816,14.087 15.869,14.248 C15.921,14.409 15.864,14.585 15.727,14.684 L12.814,16.798 ZM11.613,14.759 C11.443,14.759 11.293,14.650 11.240,14.489 L10.412,11.945 L9.584,14.489 C9.532,14.650 9.382,14.759 9.212,14.759 L6.535,14.759 L8.702,16.333 C8.839,16.432 8.897,16.609 8.845,16.770 L8.016,19.315 L10.183,17.742 C10.321,17.643 10.505,17.643 10.643,17.742 L12.810,19.315 L11.982,16.770 C11.929,16.609 11.986,16.432 12.124,16.333 L14.292,14.759 L11.613,14.759 Z" class="cls-1"/>
</svg>
