<svg xmlns="http://www.w3.org/2000/svg" xmlns:xlink="http://www.w3.org/1999/xlink" preserveAspectRatio="xMidYMid" width="26" height="36" viewBox="0 0 26 36">
	<defs>
		<style>
		      .cls-1 {
		        fill: #6bcdfb;
		        filter: url(#color-overlay-1);
		        fill-rule: evenodd;
		      }
		    </style>
		<filter id="color-overlay-1" filterUnits="userSpaceOnUse">
			<feFlood flood-color="#6bcdfb" />
			<feComposite operator="in" in2="SourceGraphic" />
			<feBlend in2="SourceGraphic" result="solidFill" />
		</filter>
	</defs>
	<path d="M22.941,36.000 L3.059,36.000 C1.369,36.000 -0.000,34.598 -0.000,32.869 L-0.000,3.131 C-0.000,1.401 1.369,0.000 3.059,0.000 L17.567,0.000 C17.569,0.000 17.571,0.000 17.572,0.000 L17.587,0.000 C17.588,0.000 17.588,-0.000 17.588,-0.000 C17.833,-0.000 18.042,0.125 18.182,0.309 L25.698,8.001 C25.877,8.145 26.000,8.358 26.000,8.609 L26.000,8.609 L26.000,8.625 C26.000,8.627 26.000,8.628 26.000,8.630 L26.000,32.869 C26.000,34.598 24.631,36.000 22.941,36.000 ZM18.353,2.646 L18.353,7.826 L23.414,7.826 L18.353,2.646 ZM24.471,9.391 L17.588,9.391 C17.166,9.391 16.823,9.041 16.823,8.609 L16.823,1.565 L3.059,1.565 C2.214,1.565 1.529,2.266 1.529,3.131 L1.529,32.869 C1.529,33.734 2.214,34.435 3.059,34.435 L22.941,34.435 C23.786,34.435 24.471,33.734 24.471,32.869 L24.471,9.391 ZM19.882,29.739 L6.118,29.739 C5.695,29.739 5.353,29.389 5.353,28.956 C5.353,28.524 5.695,28.174 6.118,28.174 L19.882,28.174 C20.305,28.174 20.647,28.524 20.647,28.956 C20.647,29.389 20.305,29.739 19.882,29.739 ZM19.882,23.478 L6.118,23.478 C5.695,23.478 5.353,23.128 5.353,22.696 C5.353,22.263 5.695,21.913 6.118,21.913 L19.882,21.913 C20.305,21.913 20.647,22.263 20.647,22.696 C20.647,23.128 20.305,23.478 19.882,23.478 ZM19.882,17.217 L6.118,17.217 C5.695,17.217 5.353,16.867 5.353,16.435 C5.353,16.002 5.695,15.652 6.118,15.652 L19.882,15.652 C20.305,15.652 20.647,16.002 20.647,16.435 C20.647,16.867 20.305,17.217 19.882,17.217 Z" class="cls-1" />
</svg>
