<svg xmlns="http://www.w3.org/2000/svg" xmlns:xlink="http://www.w3.org/1999/xlink" preserveAspectRatio="xMidYMid" width="19.844" height="19.94" viewBox="0 0 19.844 19.94">
  <defs>
    <style>
      .cls-1 {
        fill: #000;
        filter: url(#color-overlay-1);
        fill-rule: evenodd;
      }
    </style>

    <filter id="color-overlay-1" filterUnits="userSpaceOnUse">
      <feFlood flood-color="#ababab"/>
      <feComposite operator="in" in2="SourceGraphic"/>
      <feBlend in2="SourceGraphic" result="solidFill"/>
    </filter>
  </defs>
  <path d="M19.389,9.437 C19.356,9.441 19.326,9.445 19.293,9.445 C19.020,9.445 18.780,9.251 18.734,8.973 C18.402,7.011 17.478,5.221 16.059,3.798 C14.639,2.378 12.854,1.448 10.897,1.115 C10.586,1.060 10.381,0.770 10.431,0.458 C10.486,0.151 10.775,-0.060 11.082,-0.005 C13.274,0.370 15.269,1.406 16.857,2.997 C18.444,4.589 19.478,6.590 19.851,8.788 C19.906,9.096 19.696,9.390 19.389,9.437 ZM10.927,3.612 C12.258,3.840 13.472,4.471 14.433,5.436 C15.395,6.400 16.025,7.617 16.252,8.952 C16.302,9.264 16.097,9.559 15.786,9.609 C15.752,9.614 15.723,9.618 15.689,9.618 C15.416,9.618 15.177,9.424 15.131,9.146 C14.942,8.043 14.425,7.040 13.627,6.240 C12.829,5.440 11.830,4.918 10.729,4.733 C10.418,4.682 10.217,4.383 10.271,4.076 C10.326,3.768 10.616,3.562 10.927,3.612 ZM7.163,7.365 C6.853,7.681 6.533,8.009 6.189,8.325 C6.445,8.893 6.798,9.454 7.323,10.119 C8.407,11.454 9.536,12.486 10.780,13.278 C10.901,13.353 11.044,13.425 11.195,13.501 C11.300,13.555 11.410,13.610 11.519,13.669 L12.846,12.343 C13.270,11.917 13.766,11.694 14.282,11.694 C14.803,11.694 15.294,11.921 15.702,12.347 L18.008,14.667 C18.432,15.088 18.654,15.590 18.654,16.112 C18.654,16.630 18.436,17.135 18.020,17.569 C17.840,17.758 17.655,17.940 17.474,18.112 C17.210,18.369 16.958,18.609 16.739,18.875 C16.735,18.883 16.727,18.887 16.722,18.896 C16.084,19.590 15.269,19.940 14.299,19.940 C14.215,19.940 14.123,19.936 14.034,19.932 C12.594,19.839 11.305,19.296 10.339,18.837 C7.810,17.611 5.597,15.872 3.757,13.669 C2.241,11.841 1.225,10.136 0.544,8.295 C0.267,7.546 -0.094,6.400 0.007,5.171 C0.074,4.408 0.381,3.751 0.918,3.212 L2.346,1.768 C2.350,1.764 2.350,1.764 2.355,1.759 C2.775,1.355 3.270,1.140 3.783,1.140 C4.295,1.140 4.782,1.355 5.189,1.759 C5.462,2.012 5.727,2.281 5.979,2.543 C6.105,2.677 6.239,2.812 6.370,2.943 L7.516,4.092 C8.398,4.977 8.398,6.122 7.516,7.007 C7.399,7.125 7.281,7.247 7.163,7.365 ZM6.718,4.897 L5.572,3.747 C5.437,3.608 5.303,3.473 5.173,3.339 C4.916,3.073 4.673,2.825 4.417,2.585 C4.413,2.581 4.408,2.576 4.404,2.572 C4.270,2.437 4.056,2.277 3.791,2.277 C3.577,2.277 3.358,2.383 3.153,2.576 L1.720,4.012 C1.372,4.362 1.183,4.770 1.141,5.263 C1.078,6.034 1.221,6.851 1.611,7.900 C2.245,9.618 3.203,11.218 4.635,12.949 C6.370,15.025 8.457,16.664 10.834,17.817 C11.704,18.234 12.863,18.723 14.110,18.803 C14.173,18.807 14.240,18.807 14.303,18.807 C14.958,18.807 15.458,18.592 15.882,18.137 C16.143,17.830 16.420,17.556 16.693,17.295 C16.874,17.118 17.042,16.958 17.205,16.781 C17.634,16.335 17.634,15.893 17.201,15.463 L14.887,13.143 C14.883,13.139 14.883,13.139 14.879,13.134 C14.748,12.991 14.534,12.827 14.274,12.827 C14.009,12.827 13.783,13.000 13.640,13.143 L12.203,14.583 C12.132,14.655 11.914,14.874 11.565,14.874 C11.426,14.874 11.292,14.840 11.149,14.768 C11.132,14.760 11.116,14.747 11.099,14.739 C10.977,14.663 10.834,14.591 10.683,14.516 C10.515,14.431 10.339,14.343 10.166,14.234 C8.818,13.379 7.596,12.263 6.437,10.831 L6.433,10.826 C5.794,10.014 5.374,9.331 5.076,8.607 C5.072,8.594 5.068,8.582 5.063,8.569 C4.988,8.329 4.921,7.975 5.282,7.613 C5.286,7.605 5.294,7.601 5.303,7.592 C5.668,7.264 6.004,6.927 6.357,6.565 C6.479,6.447 6.596,6.325 6.718,6.202 C7.163,5.756 7.163,5.343 6.718,4.897 Z" class="cls-1"/>
</svg>
