<?xml version="1.0" standalone="no"?><!DOCTYPE svg PUBLIC "-//W3C//DTD SVG 1.1//EN" "http://www.w3.org/Graphics/SVG/1.1/DTD/svg11.dtd"><svg width="200" height="200" viewBox="0 0 200 200" version="1.1" xmlns="http://www.w3.org/2000/svg" xmlns:xlink="http://www.w3.org/1999/xlink"><defs><style type="text/css"><![CDATA[
@font-face { font-family: ifont; src: url("//at.alicdn.com/t/font_1442373896_4754455.eot?#iefix") format("embedded-opentype"), url("//at.alicdn.com/t/font_1442373896_4754455.woff") format("woff"), url("//at.alicdn.com/t/font_1442373896_4754455.ttf") format("truetype"), url("//at.alicdn.com/t/font_1442373896_4754455.svg#ifont") format("svg"); }

]]></style></defs><g class="transform-group"><g transform="scale(0.1953125, 0.1953125)"><path d="M391.108141 241.210667 617.717252 241.210667 741.71024 89.040942 610.592994 89.040942 610.767979 63.464427 526.864034 63.464427 526.935666 88.615247 465.869868 88.615247 465.753211 63.464427 381.754099 63.464427 381.783775 88.615247 277.566178 88.615247ZM829.892629 535.781636C774.589069 427.417603 625.623315 308.841997 625.623315 308.841997L374.083395 308.841997c0 0-166.261675 149.933801-191.979406 240.180198-7.243985 25.405623-11.629875 54.958706-11.629875 73.0262 0 186.140421 150.920268 337.060689 337.063759 337.060689 186.18647 0 341.263407-138.986471 341.263407-325.130985C848.802304 629.828592 844.376505 564.167127 829.892629 535.781636zM599.915817 668.809395l0 0.090051c15.229866 0.090051 27.54638 12.453636 27.54638 27.708062 0 15.245216-12.316513 27.602661-27.54638 27.695782l-55.982012 0.024559 0 27.92398-0.327458 0c0.433882 2.156106 0.683569 4.421706 0.683569 6.734378 0 19.144012-15.511275 34.654264-34.649148 34.654264-19.140942 0-34.657334-15.510252-34.657334-34.654264 0-2.312672 0.25071-4.578272 0.686638-6.734378l-0.576121 0 0-27.92398-55.416124 0 0-0.024559c-0.044002 0-0.094144 0.024559-0.13917 0.024559-15.310707 0-27.722388-12.421914-27.722388-27.721365 0-15.318894 12.411681-27.718295 27.722388-27.718295 0.044002 0 0.095167 0 0.13917 0l0-0.079818 55.416124 0 0-27.615964-55.416124 0 0-0.055259c-0.044002 0-0.094144 0.024559-0.13917 0.024559-15.310707 0-27.722388-12.429077-27.722388-27.723412 0-15.319917 12.411681-27.722388 27.722388-27.722388 0.044002 0 0.095167 0 0.13917 0l0-0.050142 50.558489 0c0.450255-1.766226 1.202385-3.408633 2.366907-4.903683l-62.203714-62.192458c-7.689123-7.68503-5.193279-22.664186 5.590322-33.463136 10.777461-10.773368 25.746384-13.279445 33.446763-5.589298l60.813041 60.824297L566.557058 480.322533c8.777921-9.555633 26.535353-7.255241 37.397748 3.709485 10.793834 10.907421 16.232706 20.859074 5.550413 32.895201l-65.48034 66.940598c-0.056282 0.623193 0.122797 1.177825 0.01535 1.801019l55.876612 0 0 0.065492c15.229866 0.089028 27.54638 12.45159 27.54638 27.706015 0 15.241123-12.316513 27.623128-27.54638 27.697829l0 0.055259-55.982012 0 0 27.615964L599.915817 668.809395z" fill="#ed5a61"></path></g></g></svg>