<?xml version="1.0" standalone="no"?><!DOCTYPE svg PUBLIC "-//W3C//DTD SVG 1.1//EN" "http://www.w3.org/Graphics/SVG/1.1/DTD/svg11.dtd"><svg width="200" height="200" viewBox="0 0 200 200" version="1.1" xmlns="http://www.w3.org/2000/svg" xmlns:xlink="http://www.w3.org/1999/xlink"><defs><style type="text/css"><![CDATA[
@font-face { font-family: ifont; src: url("//at.alicdn.com/t/font_1442373896_4754455.eot?#iefix") format("embedded-opentype"), url("//at.alicdn.com/t/font_1442373896_4754455.woff") format("woff"), url("//at.alicdn.com/t/font_1442373896_4754455.ttf") format("truetype"), url("//at.alicdn.com/t/font_1442373896_4754455.svg#ifont") format("svg"); }

]]></style></defs><g class="transform-group"><g transform="scale(0.1953125, 0.1953125)"><path d="M1017.514667 145.783467C1021.696 138.257067 1024 130.4576 1024 122.436267c0-61.474133-129.570133-111.291733-289.3824-111.291733-159.829333 0-289.399467 49.834667-289.399467 111.291733 0 8.021333 2.304 15.8208 6.485333 23.3472-3.805867 1.774933-6.485333 5.5808-6.485333 10.052267l0 184.558933c-45.0048-11.093333-98.389333-17.6128-155.818667-17.6128C129.570133 322.781867 0 372.616533 0 434.090667c0 8.021333 2.304 15.8208 6.485333 23.3472C2.679467 459.195733 0 463.0016 0 467.490133l0 445.218133c0 3.822933 2.048 7.031467 4.983467 9.028267 24.695467 51.831467 142.523733 91.136 284.416 91.136 141.892267 0 259.703467-39.304533 284.416-91.136 2.935467-1.9968 4.983467-5.205333 4.983467-9.028267l0-73.301333c44.987733 11.1104 98.3552 17.646933 155.835733 17.646933 141.892267 0 259.720533-39.3216 284.398933-91.153067C1021.969067 763.904 1024 760.695467 1024 756.872533L1024 155.835733C1024 151.3472 1021.3376 147.541333 1017.514667 145.783467zM289.399467 367.3088c135.236267 0 244.855467 29.9008 244.855467 66.7648 0 36.881067-109.6192 66.798933-244.855467 66.798933S44.526933 470.971733 44.526933 434.090667C44.526933 397.2096 154.146133 367.3088 289.399467 367.3088zM44.526933 493.2096c51.217067 31.300267 141.602133 52.1728 244.872533 52.1728 103.253333 0 193.6384-20.855467 244.855467-52.155733l0 96.699733c0 36.864-109.6192 66.781867-244.855467 66.781867S44.526933 626.7904 44.526933 589.909333L44.526933 493.2096zM44.526933 649.045333c51.217067 31.300267 141.602133 52.1728 244.872533 52.1728 103.253333 0 193.6384-20.872533 244.855467-52.1728l0 96.699733c0 36.864-109.6192 66.781867-244.855467 66.781867S44.526933 782.609067 44.526933 745.745067L44.526933 649.045333zM289.399467 968.3456c-135.236267 0-244.872533-29.917867-244.872533-66.781867l0-96.682667c51.217067 31.300267 141.602133 52.1728 244.872533 52.1728 103.253333 0 193.6384-20.872533 244.855467-52.1728l0 96.682667C534.254933 938.427733 424.635733 968.3456 289.399467 968.3456zM979.473067 745.745067c0 36.864-109.6192 66.781867-244.855467 66.781867-59.204267 0-113.493333-5.7344-155.835733-15.274667l0-113.8688c45.021867 11.144533 98.2528 17.8176 155.835733 17.8176 103.253333 0 193.6384-20.872533 244.855467-52.1728L979.473067 745.745067zM979.473067 589.909333c0 36.864-109.6192 66.781867-244.855467 66.781867-59.204267 0-113.493333-5.7344-155.835733-15.274667l0-113.8688c45.021867 11.1616 98.2528 17.8176 155.835733 17.8176 103.253333 0 193.6384-20.855467 244.855467-52.155733L979.473067 589.909333zM979.473067 434.090667c0 36.881067-109.6192 66.798933-244.855467 66.798933-59.204267 0-113.493333-5.7344-155.835733-15.274667l0-18.1248c0-4.488533-2.6624-8.2944-6.485333-10.052267 4.181333-7.5264 6.485333-15.325867 6.485333-23.3472 0-31.5392-34.2528-59.9552-89.053867-80.196267l0-16.4864c51.217067 31.300267 141.602133 52.1728 244.8896 52.1728 103.253333 0 193.6384-20.872533 244.855467-52.1728L979.473067 434.090667zM979.473067 278.272c0 36.881067-109.6192 66.781867-244.855467 66.781867-135.253333 0-244.8896-29.9008-244.8896-66.781867l0-96.699733c51.217067 31.300267 141.602133 52.1728 244.8896 52.1728 103.253333 0 193.6384-20.855467 244.855467-52.155733L979.473067 278.272zM734.6176 189.218133c-135.253333 0-244.8896-29.9008-244.8896-66.781867 0-36.864 109.636267-66.781867 244.8896-66.781867 135.236267 0 244.855467 29.917867 244.855467 66.781867C979.473067 159.317333 869.853867 189.218133 734.6176 189.218133z" fill="#56c9ff"></path></g></g></svg>