<svg xmlns="http://www.w3.org/2000/svg" xmlns:xlink="http://www.w3.org/1999/xlink" preserveAspectRatio="xMidYMid" width="28" height="33" viewBox="0 0 28 33">
  <defs>
    <style>
      .cls-1 {
        fill: #fff;
        fill-rule: evenodd;
      }
    </style>
  </defs>
  <path d="M25.305,33.000 L2.695,33.000 C1.207,33.000 -0.000,31.715 -0.000,30.130 L-0.000,5.022 C-0.000,3.437 1.207,2.152 2.695,2.152 L7.262,2.152 C7.262,2.152 7.262,2.152 7.262,2.152 C7.634,2.152 7.936,2.473 7.936,2.869 C7.936,3.266 7.634,3.587 7.262,3.587 L7.262,3.587 L2.695,3.587 C1.951,3.587 1.348,4.229 1.348,5.022 L1.348,30.130 C1.348,30.923 1.951,31.565 2.695,31.565 L25.305,31.565 C26.049,31.565 26.652,30.923 26.652,30.130 L26.652,5.022 C26.652,4.229 26.049,3.587 25.305,3.587 L20.738,3.587 L20.738,3.587 C20.366,3.587 20.064,3.266 20.064,2.869 C20.064,2.473 20.366,2.152 20.738,2.152 C20.738,2.152 20.738,2.152 20.738,2.152 L25.305,2.152 C26.793,2.152 28.000,3.437 28.000,5.022 L28.000,30.130 C28.000,31.715 26.793,33.000 25.305,33.000 ZM10.133,19.659 C10.958,20.476 12.484,22.328 12.484,22.328 C12.484,22.328 18.970,16.320 20.206,15.162 C22.061,16.116 20.849,17.206 20.849,17.206 L12.714,24.973 L8.485,20.476 C8.485,20.476 8.760,18.637 10.133,19.659 ZM21.412,5.739 C21.412,6.135 21.110,6.456 20.738,6.456 L7.262,6.456 C6.890,6.456 6.588,6.135 6.588,5.739 C6.588,5.343 6.890,5.022 7.262,5.022 C7.262,5.022 8.020,4.932 8.610,4.304 L9.957,2.869 C9.957,2.869 10.484,2.152 11.305,2.152 L11.979,2.152 C11.979,0.964 12.884,-0.000 14.000,-0.000 C15.116,-0.000 16.021,0.964 16.021,2.152 L16.695,2.152 C17.579,2.152 18.043,2.869 18.043,2.869 L19.390,4.304 C19.980,4.932 20.738,5.022 20.738,5.022 C21.110,5.022 21.412,5.343 21.412,5.739 ZM14.000,1.435 C13.628,1.435 13.326,1.756 13.326,2.152 L14.674,2.152 C14.674,1.756 14.372,1.435 14.000,1.435 ZM17.614,4.304 C17.614,4.304 17.156,3.587 16.389,3.587 L11.611,3.587 C10.843,3.587 10.386,4.304 10.386,4.304 L9.773,5.022 L18.226,5.022 L17.614,4.304 Z" class="cls-1"/>
</svg>
