<svg xmlns="http://www.w3.org/2000/svg" xmlns:xlink="http://www.w3.org/1999/xlink" preserveAspectRatio="xMidYMid" width="17.156" height="19" viewBox="0 0 17.156 19">
  <defs>
    <style>
      .cls-1 {
        fill: #000;
        filter: url(#color-overlay-1);
        fill-rule: evenodd;
      }
    </style>

    <filter id="color-overlay-1" filterUnits="userSpaceOnUse">
      <feFlood flood-color="#c4c4c4"/>
      <feComposite operator="in" in2="SourceGraphic"/>
      <feBlend in2="SourceGraphic" result="solidFill"/>
    </filter>
  </defs>
  <path d="M14.353,7.922 C14.510,7.372 14.597,6.792 14.597,6.190 C14.597,2.771 11.896,-0.000 8.562,-0.000 C5.230,-0.000 2.527,2.771 2.527,6.190 C2.527,6.792 2.615,7.372 2.771,7.922 C2.011,8.548 -0.938,11.260 0.276,14.780 C0.276,14.780 1.302,14.689 2.145,13.091 C2.401,14.115 2.878,15.044 3.528,15.822 C2.576,16.109 1.929,16.667 1.929,17.307 C1.929,18.243 3.305,19.000 5.001,19.000 C6.152,19.000 7.155,18.651 7.680,18.135 C7.970,18.174 8.261,18.201 8.561,18.201 C8.861,18.201 9.153,18.174 9.442,18.135 C9.968,18.651 10.970,19.000 12.121,19.000 C13.818,19.000 15.194,18.243 15.194,17.307 C15.194,16.667 14.547,16.108 13.595,15.822 C14.244,15.043 14.722,14.114 14.979,13.091 C15.821,14.689 16.847,14.780 16.847,14.780 C18.062,11.260 15.113,8.547 14.353,7.922 Z" class="cls-1"/>
</svg>
