<svg xmlns="http://www.w3.org/2000/svg" xmlns:xlink="http://www.w3.org/1999/xlink" preserveAspectRatio="xMidYMid" width="5.891" height="5.891" viewBox="0 0 18 18">
  <defs>
    <style>
      .cls-1 {
        fill: #cdcdcd;
        fill-rule: evenodd;
      }
    </style>
  </defs>
  <path d="M9.455,3.029 C9.650,3.029 9.809,3.188 9.809,3.383 L9.809,10.116 C9.809,10.244 9.741,10.361 9.630,10.424 C9.519,10.487 9.383,10.486 9.274,10.421 L4.047,8.766 C3.941,8.703 3.855,8.431 4.017,8.251 C4.178,8.071 4.502,8.223 4.502,8.223 L9.101,9.494 L9.101,3.383 C9.101,3.188 9.260,3.029 9.455,3.029 ZM17.634,9.366 C17.431,9.366 17.267,9.202 17.267,9.000 C17.267,4.441 13.559,0.733 9.000,0.733 C4.441,0.733 0.733,4.441 0.733,9.000 C0.733,13.559 4.441,17.267 9.000,17.267 C10.334,17.267 11.607,16.960 12.784,16.353 C13.907,15.774 14.898,14.929 15.652,13.910 C15.772,13.748 16.002,13.713 16.164,13.834 C16.327,13.954 16.361,14.183 16.241,14.346 C15.421,15.454 14.342,16.374 13.119,17.004 C11.856,17.656 10.431,18.000 9.000,18.000 C4.037,18.000 -0.000,13.963 -0.000,9.000 C-0.000,4.037 4.037,-0.000 9.000,-0.000 C13.963,-0.000 18.000,4.037 18.000,9.000 C18.000,9.202 17.836,9.366 17.634,9.366 Z" class="cls-1"/>
</svg>
