<svg xmlns="http://www.w3.org/2000/svg" xmlns:xlink="http://www.w3.org/1999/xlink" preserveAspectRatio="xMidYMid" width="120" height="120" viewBox="0 0 120 120">
	<defs>
		<style>
		      .cls-1 {
		        fill: #fdb452;
		        fill-rule: evenodd;
		      }
		    </style>
	</defs>
	<path d="M100.000,120.000 L20.000,120.000 C8.954,120.000 -0.000,111.046 -0.000,100.000 L-0.000,20.000 C-0.000,8.954 8.954,-0.000 20.000,-0.000 L100.000,-0.000 C111.046,-0.000 120.000,8.954 120.000,20.000 L120.000,100.000 C120.000,111.046 111.046,120.000 100.000,120.000 ZM110.000,25.000 C110.000,17.268 103.732,11.000 96.000,11.000 L25.000,11.000 C17.268,11.000 11.000,17.268 11.000,25.000 L11.000,96.000 C11.000,103.732 17.268,110.000 25.000,110.000 L96.000,110.000 C103.732,110.000 110.000,103.732 110.000,96.000 L110.000,25.000 ZM82.500,51.000 C76.701,51.000 72.000,46.299 72.000,40.500 C72.000,34.701 76.701,30.000 82.500,30.000 C88.299,30.000 93.000,34.701 93.000,40.500 C93.000,46.299 88.299,51.000 82.500,51.000 ZM42.500,91.000 C36.701,91.000 32.000,86.299 32.000,80.500 C32.000,74.701 36.701,70.000 42.500,70.000 C48.299,70.000 53.000,74.701 53.000,80.500 C53.000,86.299 48.299,91.000 42.500,91.000 Z" class="cls-1" />
</svg>
