<svg xmlns="http://www.w3.org/2000/svg" xmlns:xlink="http://www.w3.org/1999/xlink" preserveAspectRatio="xMidYMid" width="120" height="120" viewBox="0 0 120 120">
	<defs>
		<style>
		      .cls-1 {
		        fill: #93f183;
		        fill-rule: evenodd;
		      }
		    </style>
	</defs>
	<path d="M100.000,120.000 L20.000,120.000 C8.954,120.000 -0.000,111.046 -0.000,100.000 L-0.000,20.000 C-0.000,8.954 8.954,-0.000 20.000,-0.000 L100.000,-0.000 C111.046,-0.000 120.000,8.954 120.000,20.000 L120.000,100.000 C120.000,111.046 111.046,120.000 100.000,120.000 ZM110.000,25.000 C110.000,17.268 103.732,11.000 96.000,11.000 L25.000,11.000 C17.268,11.000 11.000,17.268 11.000,25.000 L11.000,96.000 C11.000,103.732 17.268,110.000 25.000,110.000 L96.000,110.000 C103.732,110.000 110.000,103.732 110.000,96.000 L110.000,25.000 ZM84.500,95.000 C78.701,95.000 74.000,90.299 74.000,84.500 C74.000,78.701 78.701,74.000 84.500,74.000 C90.299,74.000 95.000,78.701 95.000,84.500 C95.000,90.299 90.299,95.000 84.500,95.000 ZM59.500,70.000 C53.701,70.000 49.000,65.299 49.000,59.500 C49.000,53.701 53.701,49.000 59.500,49.000 C65.299,49.000 70.000,53.701 70.000,59.500 C70.000,65.299 65.299,70.000 59.500,70.000 ZM34.500,45.000 C28.701,45.000 24.000,40.299 24.000,34.500 C24.000,28.701 28.701,24.000 34.500,24.000 C40.299,24.000 45.000,28.701 45.000,34.500 C45.000,40.299 40.299,45.000 34.500,45.000 Z" class="cls-1" />
</svg>
