<svg xmlns="http://www.w3.org/2000/svg" xmlns:xlink="http://www.w3.org/1999/xlink" preserveAspectRatio="xMidYMid" width="120" height="120" viewBox="0 0 120 120">
	<defs>
		<style>
		      .cls-1 {
		        fill: #98d3fd;
		        fill-rule: evenodd;
		      }
		    </style>
	</defs>
	<path d="M100.000,120.000 L20.000,120.000 C8.954,120.000 -0.000,111.046 -0.000,100.000 L-0.000,20.000 C-0.000,8.954 8.954,-0.000 20.000,-0.000 L100.000,-0.000 C111.046,-0.000 120.000,8.954 120.000,20.000 L120.000,100.000 C120.000,111.046 111.046,120.000 100.000,120.000 ZM110.000,25.000 C110.000,17.268 103.732,11.000 96.000,11.000 L25.000,11.000 C17.268,11.000 11.000,17.268 11.000,25.000 L11.000,96.000 C11.000,103.732 17.268,110.000 25.000,110.000 L96.000,110.000 C103.732,110.000 110.000,103.732 110.000,96.000 L110.000,25.000 ZM84.500,92.000 C78.701,92.000 74.000,87.299 74.000,81.500 C74.000,75.701 78.701,71.000 84.500,71.000 C90.299,71.000 95.000,75.701 95.000,81.500 C95.000,87.299 90.299,92.000 84.500,92.000 ZM84.500,52.000 C78.701,52.000 74.000,47.299 74.000,41.500 C74.000,35.701 78.701,31.000 84.500,31.000 C90.299,31.000 95.000,35.701 95.000,41.500 C95.000,47.299 90.299,52.000 84.500,52.000 ZM37.500,92.000 C31.701,92.000 27.000,87.299 27.000,81.500 C27.000,75.701 31.701,71.000 37.500,71.000 C43.299,71.000 48.000,75.701 48.000,81.500 C48.000,87.299 43.299,92.000 37.500,92.000 ZM37.500,52.000 C31.701,52.000 27.000,47.299 27.000,41.500 C27.000,35.701 31.701,31.000 37.500,31.000 C43.299,31.000 48.000,35.701 48.000,41.500 C48.000,47.299 43.299,52.000 37.500,52.000 Z" class="cls-1" />
</svg>
