<svg xmlns="http://www.w3.org/2000/svg" xmlns:xlink="http://www.w3.org/1999/xlink" preserveAspectRatio="xMidYMid" width="20.875" height="22.125" viewBox="0 0 20.875 22.125">
  <defs>
    <style>
      .cls-1 {
        fill: #ec524c;
        fill-rule: evenodd;
      }
    </style>
  </defs>
  <path d="M8.116,1.182 L17.386,11.610 L17.386,13.928 L8.116,3.499 L6.957,4.658 L2.322,9.293 L11.592,19.721 L9.275,19.721 L0.005,9.293 L1.163,8.134 L8.116,1.182 ZM12.425,4.332 C12.425,4.332 11.411,3.463 11.411,2.015 C11.411,0.566 12.135,-0.011 12.135,-0.011 C12.135,-0.011 20.246,5.817 20.862,11.067 C20.789,11.140 19.545,11.425 19.147,11.461 C18.966,10.085 18.689,9.365 17.422,7.265 C16.155,5.165 12.862,2.825 12.862,2.825 L12.425,4.332 ZM17.386,11.610 C18.013,12.431 19.703,13.928 19.703,13.928 L11.592,22.039 L9.275,19.721 C9.275,19.721 10.820,19.721 11.592,19.721 C11.978,18.949 13.909,17.404 13.909,17.404 L17.386,13.928 C17.386,13.928 17.386,12.383 17.386,11.610 ZM7.536,22.111 C7.536,22.111 1.598,21.967 0.005,13.928 C0.222,14.000 0.367,13.928 1.598,13.928 C1.526,16.752 3.626,18.997 4.640,19.721 C5.654,20.446 5.871,20.446 5.871,20.446 L6.233,18.418 C6.233,18.418 7.174,19.142 7.536,20.084 C7.899,21.025 7.536,22.111 7.536,22.111 Z" class="cls-1"/>
</svg>
